<?xml version="1.0" encoding="utf-8"?>
<!-- Generator: Adobe Illustrator 24.1.2, SVG Export Plug-In . SVG Version: 6.00 Build 0)  -->
<svg version="1.1" id="Layer_1" xmlns="http://www.w3.org/2000/svg" xmlns:xlink="http://www.w3.org/1999/xlink" x="0px" y="0px"
	 viewBox="0 0 100 100" style="enable-background:new 0 0 100 100;" xml:space="preserve">
<style type="text/css">
	.st0{fill-rule:evenodd;clip-rule:evenodd;fill:#242424;}
</style>
<g id="Layer_1_1_">
	<g>
		<g id="church-on-sunday">
			<path class="st0" d="M96.4,0h3.6v3.6l-0.1,0.1c-0.6,7.6-2.8,14.8-6.6,21.3c3.8,6.6,6,13.8,6.6,21.3l0.1,0.1v3.7
				c0,8.7-2.2,17.2-6.7,24.9c4.3,7.6,6.7,16.2,6.7,24.9v0.1h-3.6L83.6,87.1c-8.3,7.6-18.9,12.1-30.1,12.8l0.1,0.1h-7.1l0.1-0.1
				c-10.9-0.8-21.6-5-30.1-12.8L3.6,100H0l0,0c0-8.7,2.2-17.2,6.7-24.9C2.3,67.4,0,58.9,0,50.1v-3.7l0.1-0.1
				C0.7,38.9,2.9,31.6,6.7,25c-3.8-6.4-6-13.8-6.6-21.3L0,3.6V0h3.6L3.4,0.1c11.2,0.8,21.8,5.2,30.1,12.8L46.4,0H50
				c0,8.7-2.2,17.3-6.7,25c4.3,7.6,6.7,16.2,6.7,25c0-8.7,2.2-17.3,6.7-25C52.3,17.4,50,8.8,50,0h3.6l12.9,12.9
				C74.8,5.3,85.3,0.8,96.6,0.1L96.4,0z M97.4,97.4c-0.3-6.9-2.2-13.8-5.6-20c-1.9,2.9-4,5.6-6.4,7.9C85.3,85.4,97.4,97.4,97.4,97.4
				z M81.8,85.3l-8.6-8.6l-6.8,6.8l-1.8,1.8l-12,12.1C63,96.9,73.4,92.9,81.8,85.3z M52.9,93.6l10-10c-1.8-1.9-3.3-4-4.8-6.1
				C55.4,82.4,53.7,87.9,52.9,93.6z M59.6,75c1.4,2.4,3.2,4.7,5.1,6.8l6.8-6.8l-6.8-6.8C62.8,70.3,61.1,72.7,59.6,75z M62.9,66.4
				c-1.8,1.9-3.3,4-4.8,6.1c-2.7-5-4.4-10.4-5.2-16.1C52.9,56.6,62.9,66.4,62.9,66.4z M64.7,64.7l1.8,1.8l6.8,6.8l8.6-8.6
				c-8-7.2-18.3-11.6-29.2-12.1C52.6,52.6,64.7,64.7,64.7,64.7z M75,75l8.6,8.6c2.6-2.6,4.9-5.4,6.8-8.6c-1.9-3.1-4.2-6-6.8-8.6
				L75,75z M56.7,75c-3.8,6.6-6,13.8-6.6,21.3L50,96.6l-0.1-0.1c-0.6-7.6-2.8-14.9-6.6-21.4c3.8-6.6,6-13.8,6.6-21.3l0.1-0.1
				l0.1,0.1C50.7,61.2,52.9,68.6,56.7,75L56.7,75z M68.2,14.8c8-7.2,18.3-11.6,29.2-12.1l-12.1,12l-1.8,1.8l-6.8,6.9L68.2,14.8z
				 M85.3,31.8L78.6,25l6.8-6.8c1.9,2.1,3.6,4.3,5.1,6.8C88.9,27.4,87.2,29.7,85.3,31.8z M91.8,27.4c-1.4,2.1-3,4.2-4.8,6.1l10,10
				C96.2,38,94.6,32.6,91.8,27.4z M83.6,33.7l1.8,1.8l12.1,12.1C86.7,47,76.3,42.7,68.2,35.4l8.6-8.6C76.8,26.8,83.6,33.7,83.6,33.7
				z M66.4,16.4L75,25l-8.6,8.6c-2.6-2.6-4.9-5.4-6.8-8.6C61.6,21.9,63.8,19,66.4,16.4z M64.7,14.7l-12.1-12
				c0.3,6.9,2.2,13.8,5.6,20C60,19.8,62.2,17.1,64.7,14.7z M52.6,47.4c0.3-6.9,2.2-13.8,5.6-20c1.9,2.9,4,5.6,6.4,7.9L52.6,47.4z
				 M85.3,64.7l12.1-12.1c-0.3,6.9-2.2,13.8-5.6,20C89.9,69.8,87.8,67.1,85.3,64.7z M96.6,49.9L83.6,63
				c-8.3-7.6-18.9-12.1-30.1-12.8l13-13C74.8,44.7,85.3,49.2,96.6,49.9z M87,16.4c1.8,1.9,3.3,4,4.8,6.1c2.7-5,4.4-10.4,5.2-16.1
				L87,16.4z M47.4,52.7C37,53.2,26.6,57.2,18.2,64.8l8.6,8.6l6.8-6.8l1.8-1.8L47.4,52.7z M28.6,75l6.8,6.8c1.9-2.1,3.7-4.4,5.1-6.8
				c-1.4-2.4-3.2-4.7-5.1-6.8L28.6,75z M35.3,85.4l-1.8-1.8l-6.8-6.8l-8.6,8.6c8,7.2,18.3,11.6,29.2,12.1
				C47.4,97.4,35.3,85.4,35.3,85.4z M47,93.6l-10-10c1.8-1.9,3.3-4,4.8-6.1C44.6,82.4,46.3,87.9,47,93.6z M25,75l-8.6-8.6
				c-2.6,2.6-4.9,5.4-6.8,8.6c1.9,3.1,4.2,6,6.8,8.6L25,75z M46.6,50.1l-13-13c-8.3,7.6-18.9,12.1-30.1,12.8l13,13
				C24.8,55.4,35.3,50.9,46.6,50.1L46.6,50.1z M2.6,52.7l12.1,12.1c-2.4,2.4-4.6,5.1-6.4,7.9C4.8,66.3,2.9,59.6,2.6,52.7L2.6,52.7z
				 M8.2,77.4c-3.3,6.2-5.2,13.1-5.7,20l12.1-12.1C12.2,83,10.1,80.3,8.2,77.4z M47,56.6c-0.8,5.6-2.6,11-5.2,16.1
				c-1.4-2.1-3-4.2-4.8-6.1L47,56.6z M41.8,27.4c3.3,6.2,5.2,13.1,5.7,20l-12.1-12C37.8,32.9,40,30.2,41.8,27.4z M23.2,26.8l8.6,8.6
				c-8,7.2-18.3,11.6-29.2,12.1l12.1-12.1l1.8-1.8L23.2,26.8z M12.9,33.6l-10,10c0.8-5.6,2.6-11,5.2-16.1
				C9.6,29.7,11.2,31.7,12.9,33.6z M14.7,31.8c-1.9-2.1-3.6-4.3-5.1-6.8c1.4-2.4,3.2-4.7,5.1-6.8l6.8,6.8
				C21.4,25,14.7,31.8,14.7,31.8z M8.2,22.6c1.4-2.1,3-4.2,4.8-6.1L3,6.4C3.7,12.1,5.4,17.6,8.2,22.6z M16.4,16.4l-1.8-1.8L2.6,2.7
				c10.8,0.6,21.1,4.9,29.2,12.1l-8.6,8.6L16.4,16.4z M33.6,33.7L25,25.1l8.6-8.6c2.6,2.6,4.9,5.4,6.8,8.6
				C38.4,28.1,36.2,31,33.6,33.7z M41.8,22.6c-1.9-2.9-4-5.6-6.4-7.9l12.1-12C47,9.6,45.1,16.3,41.8,22.6L41.8,22.6z"/>
		</g>
	</g>
</g>
</svg>
