<?xml version="1.0" encoding="utf-8"?>
<!-- Generator: Adobe Illustrator 24.1.2, SVG Export Plug-In . SVG Version: 6.00 Build 0)  -->
<svg version="1.1" id="Layer_1" xmlns="http://www.w3.org/2000/svg" xmlns:xlink="http://www.w3.org/1999/xlink" x="0px" y="0px"
	 viewBox="0 0 100 100" style="enable-background:new 0 0 100 100;" xml:space="preserve">
<style type="text/css">
	.st0{fill:#242424;}
</style>
<path class="st0" d="M100,54.2V54c-1.1,0.6-2.2,1.3-2.4,1.4c-1.8,1.1-3.1,2.1-4.1,3.2c-0.9,1-2.1,1.7-3.7,2.4
	c-0.2,0.1-0.5,0.2-0.8,0.3l-0.8,0.3c-1.6,0.6-2.5,1-3.2,1.7c-0.7,0.6-1.6,1.1-2.8,1.5c-0.3,0.1-0.7,0.2-1.1,0.3l-1,0.3
	c-0.9,0.2-1.4,0.4-1.8,0.6c-0.5,0.3-1.1,0.5-2.1,0.8c-0.3,0.1-0.5,0.2-0.8,0.2c-0.3,0.1-0.6,0.2-0.9,0.3c-0.6,0.2-1.3,0.4-1.9,0.7
	c-0.4,0.2-0.9,0.7-1.5,1.4c-0.4,0.5-0.7,1-1,1.5c-1,1.5-1.3,2-1.7,2.4c-0.2,0.2-0.5,0.5-0.8,0.7c-0.4,0.3-1.7,1.3-2,1.5
	c-0.2,0.2-0.5,0.4-0.6,0.7c-0.2,0.4-0.3,0.8-0.5,1.5c-0.4,1.8-0.6,2.5-1.4,3.7c-0.7,1.1-1.1,1.6-1.6,2.2c-0.1,0.1-0.2,0.2-0.2,0.2
	l-0.6,0.6c-0.3,0.3-0.5,0.5-0.8,0.8C59.1,86,58.6,87,58.3,88c-0.4,1.4-0.5,2.6-0.3,4.5c0.1,1,0.1,1.1,0.1,1.4c0,1.8,0,2.9,0.1,4.3
	c0,0.7,0.1,1.3,0.2,1.9h0.1c-0.2-1.6-0.2-3.6-0.2-6.2c0-0.3,0-0.4-0.1-1.4c-0.2-2-0.2-3.2,0.3-4.5c0.3-1,0.9-2,1.6-2.8
	c0.3-0.3,0.5-0.5,0.8-0.8c0.1-0.1,0.5-0.5,0.6-0.6s0.2-0.2,0.3-0.3c0.5-0.5,1-1.1,1.7-2.2c0.8-1.2,1-2,1.4-3.7
	c0.1-0.7,0.3-1.1,0.4-1.4c0.1-0.2,0.3-0.4,0.6-0.6c0.2-0.2,1.6-1.1,2-1.5c0.3-0.2,0.5-0.5,0.8-0.7c0.5-0.5,0.8-0.9,1.7-2.4
	c0.3-0.5,0.7-1,1-1.5c0.5-0.7,1-1.2,1.4-1.3c0.6-0.2,1.2-0.5,1.8-0.7c0.4-0.1,0.8-0.3,1.3-0.4l0.4-0.1c1-0.3,1.6-0.5,2.2-0.9
	c0.4-0.2,0.8-0.4,1.7-0.6l1-0.3c0.4-0.1,0.8-0.2,1.1-0.3c1.2-0.4,2.1-0.8,2.9-1.5c0.7-0.6,1.5-1,3.1-1.6l0.8-0.3
	c0.3-0.1,0.6-0.2,0.8-0.3c1.7-0.7,2.8-1.4,3.8-2.4c1-1.1,2.3-2.1,4.1-3.2C97.9,55.4,98.9,54.8,100,54.2V43.4c-0.7,1.4-1.4,2.5-2.1,3
	c-0.4,0.3-0.9,0.7-1.5,1.2c-0.3,0.3-0.7,0.6-1,0.8l-0.2,0.2c-0.3,0.2-0.5,0.4-0.8,0.6c-1.3,1-2.1,1.7-2.9,2.2
	c-0.5,0.3-0.6,0.5-1.3,1.2c-1,1-2,1.4-4.9,1.8c-1.9,0.2-3.3,0.8-5.1,1.8c-0.3,0.2-1.2,0.7-1.2,0.7c-0.4,0.3-0.8,0.4-1.1,0.6
	c-0.9,0.5-1.7,0.7-2.6,0.7c-2.9,0-6.9,1.9-8.6,3.8c-2,2.2-5.2,4.6-7.5,5.2c-1.2,0.3-2,1.2-2.3,2.4c-0.2,0.7-0.3,1.4-0.3,2.3
	c0,0.1,0,0.2,0,0.6c0.1,0.9,0.1,1.5-0.1,2.2c-0.3,1-0.8,2.1-1.8,3.2c-2.3,2.8-3.8,7.8-3.8,11.9c0,0.4,0,0.7,0,1.5c0,1.8,0,2.6,0,3.7
	c-0.1,1.9-0.3,3.5-0.8,4.9h-0.2c0.5-1.4,0.7-3,0.8-4.9c0.1-1,0.1-1.8,0-3.6c0-0.7,0-1.1,0-1.5c0-4.2,1.5-9.2,3.9-12.1
	c0.9-1.1,1.5-2.2,1.7-3.2c0.2-0.7,0.2-1.3,0.1-2.2c0-0.4,0-0.5,0-0.6c0-0.9,0.1-1.6,0.3-2.3c0.4-1.3,1.2-2.2,2.5-2.6
	c2.3-0.6,5.5-2.9,7.5-5.1c1.7-1.9,5.8-3.9,8.7-3.9c0.8,0,1.6-0.2,2.5-0.7c0.3-0.2,0.6-0.3,1.1-0.6c0,0,0.9-0.5,1.2-0.7
	c1.8-1,3.3-1.6,5.2-1.9c2.9-0.4,3.8-0.8,4.8-1.8c0.7-0.7,0.8-0.9,1.4-1.2c0.8-0.5,1.7-1.2,2.9-2.2c0.3-0.2,0.5-0.4,0.8-0.6l0.2-0.2
	c0.3-0.3,0.7-0.6,1-0.8c0.6-0.5,1.1-0.9,1.5-1.2c0.7-0.5,1.5-1.8,2.2-3.2L100,54.2L100,54.2z M100,34.8c-0.1,0-0.2,0-0.3,0
	c-1,0.1-2.3,0.6-3.6,1.2c-0.6,0.3-1.4,0.4-2.4,0.5c-0.8,0-1.6-0.1-2.5-0.2c-0.3,0-0.5-0.1-0.8-0.2c-0.2,0-0.4-0.1-0.6-0.1
	c-0.9-0.1-1.8-0.1-2.8-0.1c-1.7,0-2.9,0.1-3,0.5c-0.1,0.2,0.1,0.4,0.5,0.8c0.2,0.2,0.4,0.3,0.7,0.6c0.3,0.2,0.5,0.4,0.8,0.7
	c0.2,0.2,0.5,0.3,0.9,0.4c0.1,0,0.1,0,0.4,0.1c0.6,0.1,0.8,0.2,1,0.4c0.2,0.3,0.2,0.8,0,1.5c-0.4,1.1-1,1.7-1.7,1.7
	c-0.6,0-1.3-0.2-2.4-0.8c-0.8-0.4-1.1-1.2-1.4-2.5c0-0.1-0.1-0.3-0.1-0.5l-0.1-0.5c-0.2-1.1-0.3-1.5-0.6-1.7
	c-0.1-0.1-0.3-0.1-0.4-0.2c-0.4-0.1-0.8-0.2-1.3-0.2c-0.4,0-2.4,0.2-2.3,0.2c-3.4,0.2-4.8,0.8-6.2,2.5c-0.2,0.3-0.5,0.6-0.7,0.9
	l-0.4,0.5l-0.4,0.6c-0.7,0.9-1.2,1.4-1.7,1.9c-0.1,0.1-0.2,0.2-0.4,0.3l-0.7,0.5c-0.3,0.2-0.6,0.4-0.9,0.7c-0.8,0.6-1.6,1.4-2.7,2.6
	c-1.4,1.4-2,2.3-1.9,2.7c0,0.3,0.3,0.4,1.1,0.4c0.3,0,0.4,0,0.5,0c0.5,0,0.8,0.1,1.1,0.3c1.2,0.7,1.9,1.2,2.3,1.9
	c0.5,1,0.1,2.1-1.5,3.4c-1.4,1-1.8,1.7-1.9,2.5c0,0.2,0,0.3,0,0.7c0.1,1.1,0,1.8-0.5,2.9c-0.2,0.4-0.4,0.9-0.7,1.3
	c-0.5,0.7-0.9,1-1.8,1.3c-0.1,0-0.6,0.2-0.7,0.3c-0.3,0.1-0.6,0.2-0.8,0.4c-0.7,0.3-1.4,0.8-2.2,1.4c-1.4,1.1-2.2,2.4-2.7,4.2
	c-0.2,0.7-0.3,1.1-0.5,2.5s-0.4,2.1-0.7,2.8c-0.3,0.7-2,4.4-2.2,4.8c-0.3,0.8-0.7,1.5-1.1,2.2c-0.7,1.4-1.3,2.3-1.8,3
	c-0.9,1.1-1.5,2.4-2.3,4.7c-0.1,0.3-0.2,0.6-0.3,0.9c-0.3,0.9-0.5,1.4-0.7,2c-1,2.6-4.2,4.4-7.7,4.4c-1.9,0-3.4-0.5-5.2-1.4
	c-0.9-0.5-0.8-0.4-3.7-2.4c-2.4-1.6-2.9-1.8-3.4-1.1c0.4-0.3,0.1,0,0.1,0c-0.2,0.3-0.5,0.7-0.8,1c-0.1,0.1-0.9,1-1.2,1.2
	c-0.4,0.4-0.7,0.8-1,1.2c-0.3,0.4-0.6,0.8-0.8,1.3c-0.2,0.4-0.3,0.9-0.4,1.8c0,0.2-0.1,0.4-0.1,0.5h-0.2l0.1-0.6
	c0.1-0.9,0.2-1.4,0.5-1.8c0.2-0.5,0.5-0.9,0.9-1.3c0.3-0.4,0.6-0.7,1-1.2c0.2-0.3,1-1.1,1.2-1.2c0.3-0.3,0.6-0.6,0.8-1
	c0,0,0.2-0.4,0.3-0.5c0.5-0.7,1.2-0.6,3.6,1.1c2.9,2,2.8,1.9,3.7,2.4c1.7,1,3.2,1.4,5.1,1.4c3.4,0,6.6-1.8,7.6-4.3
	c0.3-0.6,0.5-1.3,0.7-2c0.1-0.3,0.2-0.6,0.3-0.9c0.8-2.4,1.4-3.7,2.3-4.8c0.5-0.6,1.1-1.6,1.8-2.9c0.3-0.7,0.7-1.4,1.1-2.2
	c0.2-0.4,1.8-4.1,2.2-4.8c0.3-0.6,0.5-1.3,0.7-2.7c0.2-1.4,0.3-1.8,0.5-2.6c0.5-1.8,1.3-3.2,2.7-4.3c0.7-0.5,1.4-1,2.2-1.4
	c0.3-0.1,0.5-0.2,0.8-0.4c0.2-0.1,0.6-0.2,0.7-0.3c0.8-0.3,1.2-0.6,1.7-1.2c0.2-0.3,0.4-0.7,0.7-1.2c0.5-1.1,0.6-1.8,0.5-2.8
	c0-0.3-0.1-0.5,0-0.8c0-0.8,0.5-1.5,1.9-2.6c1.6-1.2,1.9-2.2,1.4-3.2c-0.4-0.7-1-1.2-2.3-1.9c-0.3-0.1-0.6-0.2-1.1-0.3
	c-0.1,0-0.2,0-0.5,0c-1,0-1.3-0.1-1.3-0.6s0.6-1.3,2-2.8c1.1-1.1,2-1.9,2.7-2.6c0.3-0.2,0.6-0.5,0.9-0.7l0.7-0.5
	c0.1-0.1,0.2-0.2,0.3-0.3c0.5-0.4,1-0.9,1.7-1.8c0.1-0.2,0.3-0.4,0.4-0.6l0.4-0.5c0.3-0.4,0.5-0.7,0.7-0.9c1.4-1.7,2.8-2.3,6.2-2.5
	c-0.1,0,2-0.1,2.4-0.2c0.6,0,1,0,1.4,0.2c0.1,0,0.3,0.1,0.4,0.2c0.4,0.2,0.5,0.6,0.7,1.8l0.1,0.5c0,0.2,0.1,0.3,0.1,0.5
	c0.2,1.3,0.6,2,1.3,2.4c1.1,0.6,1.8,0.9,2.3,0.8c0.7,0,1.2-0.5,1.5-1.6c0.2-0.7,0.2-1.1,0.1-1.3c-0.2-0.2-0.4-0.3-0.9-0.4
	c-0.1,0-0.3-0.1-0.4-0.1c-0.4-0.1-0.7-0.2-1-0.5c-0.3-0.2-0.5-0.4-0.8-0.7c-0.2-0.2-0.5-0.4-0.7-0.6c-0.5-0.4-0.6-0.7-0.5-1
	c0.2-0.4,1.3-0.6,3.2-0.6c0.9,0,1.9,0.1,2.8,0.1c0.5,0.1,0.5,0.1,0.6,0.1c0.2,0,0.5,0.1,0.8,0.2c0.8,0.1,1.6,0.2,2.4,0.2
	c0.9,0,1.7-0.1,2.3-0.4c1.3-0.7,2.6-1.1,3.7-1.3c0.1,0,0.2,0,0.3,0L100,34.8L100,34.8z M100,18v0.2c-1.4,2.7-2.9,4.9-3.9,6
	c-0.5,0.5-1.3,0.8-2.3,0.9c-0.7,0.1-1.4,0.1-3.2,0C89,25,88.1,25,87.2,25.2c-0.8,0.2-1.7,0.3-2.5,0.4h-0.4c-2.1,0.1-3.2,0.3-5.5,1
	c-0.7,0.2-1.5,0.4-2.4,0.6c-1.8,0.3-3.6,0.6-5.4,0.7C69.7,28,68.8,28,67.6,28c-0.9,0-2,0.3-3,0.9c-1.4,0.8-2.5,2.1-3.3,4.1
	c-0.2,0.6-0.5,1.1-0.8,1.6c-0.6,1-1.2,1.5-2.2,2l-0.7,0.3c-0.9,0.4-1.8,1-2.5,1.7c-1.4,1.2-2.3,2.8-3.8,5.9L51,45.2
	c-1.2,2.6-1.9,3.9-2.9,5c-1.3,1.4-3.4,2.4-6.7,3.3c-0.7,0.2-3.2,0.8-3.2,0.9c-1.2,0.3-1.9,0.6-2.6,0.8c-1.8,0.7-3.1,1.8-6.1,4.4
	l-0.3,0.3c-1.4,1.3-2.2,2-3.1,2.6c-0.7,0.5-1.3,0.9-2.2,1.5c-0.3,0.2-1.7,1.1-2.1,1.3c-1.9,1.2-3.1,2.2-4.1,3.3
	c-0.4,0.5-0.8,1-1.1,1.5c-0.7,1.2-1,2.2-1.5,4.2l-0.3,1c-0.1,0.4-0.2,0.8-0.3,1.1c-0.5,1.8-1.1,2.9-2.5,4.5l-0.7,0.8
	c-0.2,0.3-0.5,0.6-0.7,0.9s-0.4,0.7-0.6,1c-0.2,0.5-0.3,1-0.3,2c-0.1,1.7-0.2,2.5-0.8,3.8C8.6,90,8,91.7,7.8,92c0.2,0.6,0,1-0.2,1.4
	c-0.5,0.9-1.1,1.7-2.2,2.8c-1,1.1-1.5,1.8-1.8,2.7c-0.1,0.3-0.2,0.5-0.2,0.8L3.3,100H3.1l0.1-0.3c0.1-0.3,0.2-0.6,0.2-0.8
	c0.3-0.9,0.8-1.6,1.8-2.7c1.1-1.2,1.8-2,2.2-2.9c0.2-0.4,0.4-0.8,0.6-1.2c0.1-0.3,0.8-2,1.1-2.6c0.5-1.2,0.7-2.1,0.8-3.7
	c0.1-1,0.1-1.5,0.3-2c0.1-0.4,0.3-0.8,0.6-1.1c0.2-0.3,0.4-0.6,0.7-0.9l0.7-0.8c1.3-1.6,1.9-2.7,2.4-4.4c0.1-0.3,0.2-0.7,0.3-1.1
	l0.3-1c0.5-2,0.9-3.1,1.6-4.2c0.3-0.5,0.7-1,1.1-1.5c1-1.2,2.2-2.1,4.1-3.4c0.3-0.2,1.7-1.1,2.1-1.3c0.8-0.5,1.5-1,2.2-1.5
	c0.9-0.7,1.7-1.3,3.1-2.6l0.3-0.3c3-2.7,4.3-3.7,6.1-4.4c0.7-0.3,1.5-0.5,2.6-0.8c0,0,2.5-0.6,3.2-0.9c3.3-0.9,5.4-1.9,6.6-3.3
	c1-1.1,1.7-2.3,2.9-4.9l0.3-0.7c1.5-3.2,2.4-4.7,3.8-6c0.8-0.7,1.6-1.3,2.6-1.7l0.7-0.3c1-0.5,1.6-1,2.2-2c0.3-0.5,0.5-1.1,0.7-1.6
	c0.8-2,1.9-3.3,3.3-4.2c1-0.6,2.2-0.9,3.1-0.9c1.2,0,2.1,0,3.4-0.1c1.8-0.1,3.6-0.3,5.4-0.7c0.8-0.2,1.6-0.4,2.4-0.6
	c2.2-0.7,3.4-0.8,5.5-1h0.4c1-0.1,1.6-0.1,2.5-0.3c0.9-0.2,1.8-0.2,3.8-0.1c1.5,0.1,2.1,0.1,2.9,0c1-0.1,1.7-0.4,2.2-0.9
	C97,23,98.5,20.7,100,18L100,18z M100,93c-0.2-0.8-0.4-1.8-0.6-3.4v-0.3V89c-0.3-2.6-0.5-3.7-0.9-4.1s-0.5-0.8-0.4-1.4
	c0-0.1,0-0.2,0.1-0.4c0.1-0.6,0.1-0.8,0-1.1c-0.2-0.4-0.6-0.7-1.3-1c-0.8-0.3-1.1-0.8-0.8-1.4c0.1-0.2,0.3-0.5,0.6-0.8
	c0.2-0.2,0.9-1,0.8-0.9c1-1.1,1.5-1.9,1.5-2.7c0-0.9,0.4-1.7,1.1-2.1v0.2c-0.6,0.5-0.9,1.2-0.9,1.9c0,0.9-0.5,1.7-1.5,2.9
	c0.1-0.1-0.7,0.7-0.8,0.9c-0.3,0.3-0.5,0.6-0.6,0.8c-0.2,0.5,0,0.9,0.7,1.2c0.8,0.3,1.2,0.7,1.4,1.1c0.1,0.3,0.1,0.6,0,1.2
	c0,0.2,0,0.3-0.1,0.3c-0.1,0.6,0,0.9,0.4,1.3c0.5,0.5,0.7,1.5,1,4.2v0.3v0.3c0.1,1.2,0.3,2,0.4,2.7L100,93L100,93z M100,82.7
	c-0.2-0.5-0.7-1.6-0.8-1.9C99,80.4,99,80.2,99,79.9c0-0.1,0.3-0.8,0.4-0.9c0.2-0.6,0.4-1.2,0.6-1.9v0.7c-0.1,0.4-0.3,0.9-0.4,1.3
	c-0.1,0.1-0.3,0.7-0.4,0.9c0,0.2,0,0.4,0.1,0.8c0.1,0.2,0.4,0.9,0.7,1.5C100,82.3,100,82.7,100,82.7z M100,68.5
	c-0.3,0.3-0.6,0.5-1.1,0.7c0,0-2.3,0.9-3.4,1.4c-1.6,0.7-2.8,1-3.8,0.9c-0.8-0.1-1.5-0.4-2.5-1l-0.5-0.3c-0.3-0.2-0.6-0.4-0.9-0.5
	c-0.7-0.4-0.5-1,0.2-1.7c0.6-0.6,1.6-1.3,3.1-2.3l0.7-0.5c3-1.9,3-1.9,3.7-2.5c1.9-1.5,3.3-2.3,4.4-2.5v0.2c-1.1,0.2-2.4,1-4.3,2.5
	C95,63.3,95,63.3,92,65.2c-0.2,0.2-0.5,0.3-0.7,0.5c-1.5,1-2.5,1.7-3.1,2.3c-0.7,0.7-0.8,1.2-0.3,1.5c0.3,0.2,0.5,0.3,0.9,0.5
	l0.5,0.3c0.9,0.6,1.6,0.9,2.4,1c1,0.1,2.2-0.1,3.8-0.9c1.1-0.5,3.4-1.4,3.4-1.4c0.5-0.2,0.8-0.5,1.1-0.8L100,68.5L100,68.5z
	 M100,61.6v0.2c-1.1,0-2,0.5-3.3,1.5l-0.8,0.6c-0.2,0.2-0.5,0.4-0.7,0.5c-0.1,0.1-0.9,0.6-1,0.6c-0.6,0.3-1,0.6-1.5,0.9
	s-0.9,0.6-1.4,1c-0.8,0.6-1.2,1.1-1.3,1.6c-0.1,0.4,0.2,0.8,1.2,0.9c1.8,0.3,3.5,0,5.1-0.8c1.1-0.5,2-1.2,2.8-2
	c0.3-0.4,0.6-0.8,0.9-1.2v0.3c-0.2,0.4-0.5,0.7-0.8,1c-0.8,0.8-1.8,1.5-2.9,2.1c-1.6,0.8-3.4,1.1-5.2,0.8c-1-0.2-1.4-0.5-1.3-1.1
	c0.1-0.5,0.6-1,1.4-1.6c0.4-0.3,0.8-0.6,1.4-1c0.5-0.3,0.9-0.6,1.5-0.9c0.1-0.1,0.9-0.5,1-0.6c0.2-0.1,0.4-0.3,0.7-0.5
	c0.1-0.1,0.6-0.5,0.8-0.6C97.9,62.1,98.9,61.6,100,61.6L100,61.6z M100,35.8V36c-0.3,0-0.7,0-1.3,0.3c-1.7,0.6-2.3,0.8-3.2,1.1
	c-0.3,0.1-0.4,0.1-0.6,0.2c-0.2,0.1-0.5,0.1-1.1,0.2c-0.1,0-0.3,0-0.4,0c-1.3,0.2-1.9,0.4-1.9,1c0,0.7,0.5,2.2,1.3,4.3
	c0.2,0.4,0.3,0.8,0.4,1.3c0,0.2,0.1,0.4,0.1,0.6c0.3,1.3,0.5,1.8,0.9,1.9c0.4,0.1,0.8,0.1,1.2-0.1c0.6-0.3,1.2-0.8,1.9-1.6
	c0.3-0.3,0.5-0.6,0.8-0.9l0.5-0.7c0.4-0.5,1-2,1.4-3.4v0.6c-0.4,1.2-0.9,2.4-1.3,2.9c-0.1,0.1-0.4,0.6-0.5,0.7
	c-0.3,0.3-0.5,0.6-0.8,0.9c-0.7,0.8-1.3,1.3-1.9,1.6c-0.5,0.2-1,0.3-1.4,0.1c-0.5-0.2-0.7-0.7-1-2.1c0-0.2-0.1-0.4-0.1-0.6
	c-0.1-0.5-0.2-0.9-0.4-1.2c-0.9-2.1-1.3-3.6-1.3-4.4c0-0.7,0.6-1,2-1.2c0.1,0,0.3,0,0.4,0c0.6-0.1,0.9-0.1,1.1-0.2
	c0.2-0.1,0.3-0.1,0.6-0.2c0.9-0.3,1.5-0.5,3.2-1.1C99.2,35.9,99.7,35.8,100,35.8L100,35.8z M0,48.7c1.7-1.9,3-3.9,3.8-5.9
	c0.5-1.4,1-2.7,1.8-5.1l0.3-0.8c1.1-3.3,1.7-5,2.5-6.6c1-2.1,2.1-3.5,3.4-4.3c1.1-0.6,1.7-1.3,2-2.2c0.1-0.4,0.2-0.7,0.3-1.1
	c0.2-0.9,0.3-1.3,0.7-1.7c0.4-0.6,1-1.1,2-1.5c2.6-1.1,2.8-1.2,3-1.5c0.1-0.2,0.1-0.4,0.1-0.8c0-0.1,0-0.6,0-0.7c0-0.3,0-0.6,0-0.9
	c0-1.7,0-1.9,0.4-2.2c0.1-0.1,0.2-0.1,0.3-0.2c0,0,0.4-0.2,0.5-0.2c0.5-0.3,1-0.6,1.5-1c0.3-0.3,0.4-0.4,1.3-1.3
	c0.6-0.7,1-1.1,1.5-1.4C26,9,26.6,8.8,27.2,9c0.7,0.2,1.8,0.3,3.1,0.4c1.1,0.1,2.1,0.1,3.7,0.1c0.8,0,1.5,0.1,2.6,0.3
	c1.3,0.2,1.5,0.3,2.1,0.3c0.7,0,1.2-0.1,1.8-0.5c0.8-0.5,1.4-0.8,1.9-0.9C42.9,8.6,43.1,8.6,45,9c2.9,0.6,5.1,0.2,6.8-1.6
	c0.8-0.9,0.9-1.5,0.6-2.5c-0.1-0.4-0.2-0.5-0.2-0.7c0-0.4,0.1-0.8,0.5-1.2s0.8-1.5,1-3H54c-0.3,1.6-0.6,2.8-1.1,3.3
	c-0.3,0.3-0.4,0.6-0.4,0.9c0,0.2,0,0.3,0.2,0.6c0.4,1.1,0.3,1.8-0.6,2.8c-1.8,2-4.2,2.4-7.1,1.7c-1.9-0.4-2.1-0.4-2.6-0.3
	c-0.5,0.1-0.9,0.3-1.7,0.8c-0.6,0.4-1.3,0.6-2,0.5c-0.5,0-0.8,0-2.1-0.3c-1.1-0.2-1.7-0.3-2.5-0.3c-1.5,0-2.5,0-3.7-0.1
	c-1.3-0.1-2.4-0.2-3.2-0.4c-0.9-0.3-1.7,0.2-3,1.6c-0.9,1-1,1.1-1.4,1.4c-0.5,0.4-1,0.7-1.6,1c-0.1,0.1-0.4,0.2-0.5,0.2
	c-0.1,0.1-0.2,0.1-0.3,0.2c-0.2,0.2-0.3,0.4-0.3,1.9c0,0.3,0,0.6,0,0.9c0,0,0,0.5,0,0.7c0,0.5,0,0.7-0.2,1c-0.3,0.4-0.4,0.5-3.2,1.6
	c-0.9,0.4-1.5,0.8-1.9,1.4c-0.3,0.4-0.4,0.8-0.6,1.6c-0.1,0.6-0.2,0.8-0.3,1.1c-0.4,1-1,1.7-2.2,2.4c-1.2,0.7-2.3,2-3.2,4.1
	C7.9,32,7.3,33.7,6.2,37L6,37.8c-0.8,2.4-1.3,3.7-1.8,5.1c-0.9,2.2-2.3,4.3-4.2,6.3V48.7L0,48.7z M0,61.7L0,61.7l0.2-0.1
	c1.1,0,1.2,0.9,0.8,2.2c-0.2,0.7-0.6,1.3-0.9,1.9v-0.3c0.3-0.5,0.6-1.1,0.8-1.6c0.4-1.3,0.3-2-0.6-2C0.1,61.7,0.1,61.7,0,61.7V54
	c0.8-0.4,1.5-0.9,2.3-1.4c2.3-1.6,5-6.3,5-8.9c0-3,3.6-12.1,5.4-13.2c2.1-1.3,5.4-4.7,6-6.3c0.3-0.9,0.9-1.2,2.4-1.6
	c1-0.2,1.4-0.4,1.8-0.8c0.2-0.3,0.5-0.8,0.7-1.7c0-0.1,0.3-1.1,0.4-1.4c0.6-2,1.2-3.1,2.2-3.4c0.4-0.1,0.5-0.2,1.6-0.6
	c1.2-0.5,2-0.7,2.9-0.8c1.1-0.1,2.2,0.1,3.3,0.8c0.9,0.6,2,0.8,3.4,0.8c1,0,2-0.2,3.3-0.5c0.3-0.1,1.2-0.3,1.4-0.3
	c0.4-0.1,0.7-0.1,0.9-0.1c0.8,0,1.5,0,2.4,0c1.3-0.1,2.6-0.2,3.8-0.3c1.4-0.2,2.6-0.5,3.6-0.8c3.1-1.1,5.4-3,5.6-4.6
	c0-0.4,0.1-0.5,0.5-1.9c0.4-1.3,0.5-2.2,0.5-3c0-0.4-0.1-0.7-0.2-1.1C58.7,2,58.5,1.1,58.3,0h0.1c0.1,1.1,0.3,2,0.6,2.6
	c0.1,0.4,0.2,0.7,0.3,1.1c0.1,0.9-0.1,1.8-0.5,3.1s-0.4,1.4-0.5,1.8c-0.2,1.6-2.5,3.6-5.7,4.7c-1,0.4-2.3,0.6-3.7,0.8
	c-1.2,0.2-2.5,0.3-3.8,0.3c-0.9,0-1.5,0-2.4,0c-0.2,0-0.4,0-0.9,0.1c-0.1,0-1.1,0.3-1.4,0.3c-1.3,0.3-2.3,0.4-3.3,0.5
	c-1.4,0-2.5-0.2-3.5-0.8s-2.1-0.9-3.2-0.8c-0.8,0.1-1.6,0.3-2.8,0.8C26.5,15,26.4,15,26,15.1c-1,0.3-1.5,1.3-2.1,3.3
	c0.1,0.6-0.2,1.6-0.2,1.7c-0.3,0.9-0.5,1.5-0.8,1.8c-0.4,0.4-0.8,0.6-2,0.9c-1.3,0.3-1.9,0.6-2.1,1.4c-0.6,1.7-3.9,5-6,6.4
	C11,31.7,7.4,40.7,7.4,43.7c0,2.7-2.7,7.5-5,9.1C2,53,1,53.6,0,54.2V54V61.7L0,61.7z M0,32.7v-0.2c1.2-0.6,2.4-1.7,3.6-3.2
	c0.6-0.8,2.4-3.1,2.6-3.4c0.3-0.3,0.7-0.7,1.2-1.1c0.2-0.1,0.8-0.6,0.9-0.7c1.6-1.1,2.3-2,2.7-3.2c0.1-0.5,0.3-1.1,0.4-2
	c0-0.2,0.3-2.1,0.4-2.6c0.5-2.8,1-4.5,1.7-5.3c1.8-2.2,3.3-4.6,3.3-5.4c0-0.4,0.1-0.6,1-2.6c0.1-0.2,0.2-0.5,0.3-0.7
	c0.4-1,0.6-1.7,0.7-2.2H19c0,0.6-0.3,1.3-0.7,2.3c-0.1,0.2-0.2,0.4-0.3,0.7c-0.9,2-1,2.2-1,2.5c0,0.9-1.5,3.3-3.4,5.6
	c-0.7,0.9-1.2,2.5-1.6,5.3c-0.1,0.6-0.4,2.4-0.4,2.6c-0.2,0.9-0.3,1.6-0.4,2.1c-0.3,1.3-1.1,2.2-2.7,3.3L7.6,25
	c-0.5,0.4-0.9,0.7-1.2,1.1c-0.3,0.3-2,2.7-2.6,3.4C2.5,31,1.3,32.1,0,32.7L0,32.7z M0,93v-0.7c0.1,0.4,0.2,0.7,0.3,1
	c0.3,1,0.8,1.4,1.4,1.1c3.2-1.5,5.6-4,5.6-6.6c0-2.7,1.1-5.3,2.8-7.7c0.3-0.4,0.6-0.7,0.9-1c0.1-0.1,0.2-0.2,0.4-0.3l0.3-0.2
	c0.6-0.4,0.9-0.9,1.2-2.1c0.1-0.5,0.2-0.8,0.7-2.2l0.1-0.3c0.5-1.6,0.8-2.5,0.7-3.1c-0.1-0.7-0.6-0.9-1.9-0.3
	c-0.5,0.2-1,0.4-1.5,0.6c-2.3,0.8-4.5,1-7.1,0.9H3.6H3.4c-0.9,0-1.7,0.2-2.5,0.5c-0.3,0.1-0.6,0.3-0.8,0.5v-0.2
	c0.2-0.2,0.5-0.3,0.8-0.4C1.8,72.1,2.8,72,3.7,72H4c2.5,0,4.7-0.2,7-1c0.5-0.2,1-0.4,1.5-0.6c1.3-0.6,2-0.5,2.1,0.4
	c0.1,0.6-0.2,1.6-0.7,3.2l-0.1,0.3c-0.5,1.4-0.6,1.7-0.7,2.2c-0.3,1.3-0.6,1.7-1.2,2.2L11.5,79c-0.1,0.1-0.3,0.2-0.4,0.3
	c-0.3,0.3-0.6,0.6-0.9,1c-1.8,2.4-2.8,5-2.8,7.6s-2.5,5.2-5.7,6.7c-0.7,0.3-1.2-0.1-1.6-1.2C0.1,93.3,0,93.1,0,93L0,93z M0,82.7
	v-0.4l0.2,0.5c0.3,0.8,0.6,1.7,0.7,2.8C1,86.5,1,87.1,1.1,88.7c0,1.6,0.1,2.1,0.3,2.5S2,91.6,2.8,91c2.9-2.4,3.6-3.8,3.6-6.4
	c0-1.2,0.2-2.1,0.6-2.9s0.6-1.1,2.2-3.3c0.4-0.5,0.8-1,1.3-1.5c0.2-0.2,0.4-0.4,0.6-0.5c0.1,0,0.1-0.1,0.1-0.1
	c0.2-0.2,0.3-0.3,0.4-0.6c0.2-0.3,0.3-0.6,0.4-1l0.1-0.2l0.1-0.2c0-0.2,0.1-0.3,0.1-0.4c0.1-0.3,0.1-0.4,0.2-0.6
	c0.1-0.4,0-0.6-0.1-0.7c-0.4-0.3-1.5,0-4,0.8c-1.6,0.6-2.7,0.7-4.6,0.7c-1.3,0-1.7,0.1-2.2,0.4c-0.6,0.4-1,1.1-1.3,2.4
	c-0.1,0.4-0.2,0.7-0.2,1v-0.7l0.1-0.4c0.3-1.3,0.7-2.1,1.3-2.5C1.9,74,2.4,74,3.7,74c1.9,0,3-0.1,4.6-0.7c2.5-0.9,3.7-1.1,4.1-0.8
	c0.2,0.2,0.3,0.4,0.2,0.9c0,0.2-0.1,0.4-0.2,0.6l-0.1,0.4l-0.1,0.2l-0.1,0.2c-0.1,0.3-0.2,0.7-0.4,1c-0.1,0.3-0.3,0.4-0.5,0.6
	L11,76.5l-0.2,0.1c-0.1,0.1-0.3,0.2-0.4,0.4c-0.5,0.4-0.9,0.9-1.2,1.4c-1.6,2.2-1.8,2.5-2.2,3.2c-0.4,0.9-0.6,1.7-0.6,2.9
	c0,2.7-0.8,4.2-3.7,6.6c-0.8,0.7-1.4,0.8-1.6,0.2C1,90.8,1,90.3,1,88.7c0-1.5-0.1-2.2-0.2-3.1c-0.1-1.1-0.4-2-0.7-2.7L0,82.7L0,82.7
	z M63.2,0h0.2l0.2,0.9c0.5,1.9,0.8,3.2,0.9,4.6c0.1,1.8-0.3,3.5-1.1,5.2c-1.3,2.5-3.4,4.4-6,5.7c-2.1,1-4.4,1.5-6,1.5
	c-1.1,0-2.9,0.2-6.2,0.8l-0.4,0.1c-4.1,0.7-5.3,0.8-6.2,0.8c-0.6,0-0.7,0-3.3-0.5c-0.6-0.1-1.1-0.2-1.5-0.2
	c-3.4-0.5-5.2-0.2-5.3,1.3c0,0.1,0,0.3,0,0.5v0.5c-0.2,1.8-0.3,2.6-0.7,3.3c-0.5,0.9-1.3,1.3-2.6,1.3c-1.7,0-2.2,0.1-2.6,0.5
	c0.1-0.1-0.8,1-1.4,1.4c-0.5,0.4-2.4,2.1-2.6,2.3c-0.4,0.3-0.7,0.7-1.1,1c-1.2,1.1-2,2-2.4,2.7c-1,1.5-1.7,3-1.9,4
	c-0.3,1.4,0.6,1.6,3.2,0.2c2.4-1.3,4.9-2.5,7.4-3.6c0.6-0.3,2.3-1,2.6-1.2c0.8-0.4,1.4-0.6,1.8-0.9l0.3-0.2l0.4-0.2
	c0.3-0.2,0.6-0.3,0.8-0.4c3-1.5,5.7-1.7,8.4-0.2c3.8,2.2,6.4,6.2,6.4,9.4s-0.1,4.2-0.9,5.5c-0.2,0.4-0.5,0.8-0.8,1.2
	c-1.1,1.3-2,2.7-2.1,3.5c-0.2,1.1,0.8,1.2,3.4,0c2.2-1,3.7-2.5,4.7-4.4c0.4-0.8,0.8-1.6,1-2.5c0.1-0.5,0.5-1.9,0.6-2.1
	c0.1-0.3,0.2-0.5,0.3-0.8c1.2-2.5,3.5-5.1,6-6.2c1.3-0.6,2.2-1.6,3.2-3.5c0.1-0.2,0.7-1.3,0.9-1.5c0.6-1,1-1.6,1.6-2
	c1.7-1.2,4.8-1.8,8.4-1.8c1.3,0,2.8-0.2,4.6-0.6c0.8-0.2,1.7-0.4,2.5-0.6c-0.2,0.1,2.6-0.7,3.2-0.8c2.4-0.6,6.8-0.8,10.7-0.8
	c2.9,0,4.6-1.5,6.4-6.4c1.1-3,1.1-4.4,0.4-5.7l-0.2-0.4c-0.2-0.3-0.3-0.7-0.3-1c0-0.7,0-0.7,0.4-4.1c-0.1-0.6,0-1.1,0-1.6
	c0.2-1.4,0.2-2.5,0.2-3.5c0-0.2,0-0.3,0-0.5h0.2c0,0.2,0,0.3,0,0.5c0,0.9-0.1,2.1-0.2,3.5c-0.1,0.5-0.1,1-0.2,1.6
	C98.1,9,98.1,9,98.1,9.7c0,0.3,0.1,0.6,0.2,0.9c0,0.1,0.2,0.4,0.2,0.4c0.7,1.4,0.7,2.8-0.4,5.9c-1.8,5-3.6,6.6-6.6,6.6
	c-3.8,0-8.3,0.3-10.6,0.8c-0.6,0.1-3.4,0.9-3.2,0.8c-0.8,0.2-1.7,0.4-2.5,0.6c-1.8,0.4-3.4,0.6-4.6,0.6c-3.6,0-6.6,0.6-8.3,1.8
	c-0.5,0.4-0.9,0.9-1.5,1.9c-0.1,0.3-0.7,1.3-0.9,1.5c-1.1,1.9-2,3-3.3,3.5c-2.5,1.1-4.7,3.7-6,6.1c-0.1,0.3-0.2,0.5-0.3,0.8
	c0,0.1-0.4,1.6-0.6,2.1c-0.3,0.9-0.6,1.7-1,2.5c-1,1.9-2.6,3.4-4.8,4.5c-2.7,1.2-3.8,1.1-3.6-0.2c0.2-0.9,1.1-2.3,2.2-3.6
	c0.3-0.4,0.6-0.7,0.8-1.2c0.7-1.3,0.8-2.3,0.8-5.5s-2.5-7.1-6.3-9.3c-2.6-1.5-5.3-1.2-8.2,0.2c-0.4,0.2-0.8,0.4-1.2,0.6L28,32.4
	c-0.6,0.3-1.2,0.6-1.8,0.9c-0.3,0.1-2,0.9-2.6,1.2c-2.5,1.1-5,2.3-7.4,3.6c-2.7,1.4-3.7,1.2-3.4-0.4c0.2-1,1-2.5,2-4.1
	c0.5-0.7,1.3-1.6,2.5-2.7c0.3-0.3,0.7-0.6,1.1-1c0.2-0.2,2.2-1.9,2.6-2.3c0.5-0.5,1.4-1.5,1.4-1.4c0.5-0.5,1-0.6,2.7-0.6
	c1.2,0,2-0.4,2.5-1.2c0.4-0.7,0.5-1.5,0.7-3.3v-0.5l0.1-0.5c0.1-0.9,0.7-1.4,1.9-1.6c0.9-0.1,2.1-0.1,3.6,0.1
	c0.4,0.1,0.9,0.1,1.5,0.2c2.6,0.4,2.7,0.5,3.2,0.5c1,0,2.1-0.2,6.2-0.8l0.4-0.1c3.3-0.5,5.1-0.8,6.2-0.8c1.7,0,3.9-0.5,6-1.5
	c2.6-1.2,4.7-3.1,6-5.6c0.8-1.6,1.2-3.3,1.1-5.1c-0.1-1.4-0.3-2.7-0.9-4.6L63.2,0z M65.5,0h0.2c0.1,0.6,0.3,1.4,0.6,2.5
	C66.9,4.8,66.8,7,66.2,9c-0.4,1.3-1,2.4-1.9,3.4c-1,1.1-2,2.2-3.2,3.1c-1.9,1.5-3.9,2.6-6,3.1c-1.2,0.3-2.5,0.5-3.8,0.7
	c-0.5,0.1-1.1,0.1-1.7,0.2L48,19.7c-1.9,0.2-2.9,0.4-3.6,0.7c-1.5,0.7-4.7,1-8.2,1c-0.2,0-0.5,0-0.7-0.1c-0.4-0.1-0.8-0.2-1.5-0.4
	c-1.2-0.4-1.6-0.5-2.1-0.4c-0.6,0-1.1,0.4-1.4,1.1c-0.3,0.8-0.4,1.3-0.6,2.5c-0.2,1.5-0.5,2-1.7,2.4c-0.4,0.1-0.8,0.3-1.1,0.4
	C27,27,26.9,27,26.8,27.1l-0.2,0.1c-0.3,0.2-0.6,0.2-1.5,0.2c-0.5,0-1.5-0.1-1.6-0.1c-0.2,0-0.1,0-1.2,1c-0.2,0.2-0.6,0.5-1.1,0.9
	c-0.3,0.2-1.2,0.9-1.3,1C19,31.1,18.5,31.6,18,32c-0.8,0.8-1.1,1.5-0.9,2.1s0.7,0.7,1.5,0.5c0.4-0.2,0.9-0.4,1.3-0.6
	c0.2-0.1,1.3-0.7,1.6-0.8c0.7-0.4,1.4-0.7,2.1-0.9c0.6-0.2,1.2-0.5,1.8-0.8c0.3-0.2,1.8-0.9,2.2-1c0.7-0.3,1.3-0.6,1.9-0.9
	c2.9-1.2,4.9-1.6,6.3-1.1l0.9,0.3c0.4,0.1,0.7,0.3,1,0.4c0.7,0.3,1.5,0.6,2.2,1c3.1,1.6,5.1,3.7,5.8,6.6c1.2,4.6,0.6,7.6-1.3,10.4
	c-0.7,1-0.6,1.5,0,1.5c0.7,0,1.7-0.8,2.5-2.1c0.5-0.8,0.8-1.7,1.3-3.6l0.3-1.1c0.1-0.4,0.2-0.8,0.3-1.1c0.8-2.8,1.8-4.5,3.6-5.8
	c1.2-0.8,4-2.6,4.2-2.8c1.1-0.8,1.8-1.6,2.4-3c1.3-2.9,3.5-4.1,7.4-4.1c1.6,0,3-0.2,4.9-0.6c0.3-0.1,0.7-0.1,1-0.2
	c0.4-0.1,0.7-0.1,0.9-0.2c0.7-0.1,1.2-0.2,1.6-0.2c0.7,0,1.6-0.2,5.2-1l0.5-0.1c2.7-0.6,4.3-0.9,5.3-0.9c0.3,0,0.4,0,1.1,0
	c1.3,0,2,0,2.9,0c2.7-0.2,4.5-0.9,5-2.4c0.2-0.5,0.4-1,0.6-1.5c0,0.1,0.4-0.8,0.5-1.1c0.9-2,0.9-3.7-0.2-6.6C95.3,9.2,95,8,94.8,6.8
	c-0.3-2-0.2-3.9,0-6.7v-0.4H95v0.4c-0.2,2.9-0.3,4.7,0,6.7c0.1,1.2,0.4,2.3,0.9,3.4c1.2,3,1.2,4.6,0.2,6.7C96,17.1,95.6,18,95.6,18
	c-0.2,0.5-0.4,1-0.6,1.5c-0.5,1.6-2.3,2.4-5.1,2.5c-0.8,0.1-1.6,0.1-2.9,0c-0.7,0-0.8,0-1.1,0c-1,0-2.5,0.3-5.2,0.9L80.2,23
	c-3.7,0.8-4.5,1-5.3,1c-0.4,0-0.9,0.1-1.6,0.2c-0.3,0-0.5,0.1-0.9,0.2c-0.3,0.1-0.7,0.1-1,0.2c-1.9,0.4-3.4,0.6-5,0.6
	c-3.8,0-6,1.1-7.3,3.9c-0.6,1.5-1.3,2.3-2.4,3.1c-0.3,0.2-3.1,1.9-4.2,2.8c-1.7,1.2-2.7,3-3.5,5.7c-0.1,0.3-0.2,0.7-0.3,1.1
	l-0.3,1.1c-0.5,1.9-0.8,2.8-1.4,3.6c-0.8,1.3-1.9,2.1-2.6,2.2c-0.8,0.1-0.9-0.7-0.2-1.8c1.9-2.8,2.5-5.7,1.3-10.3
	c-0.7-2.9-2.7-5-5.7-6.5c-0.7-0.3-1.4-0.7-2.2-1c-0.3-0.1-0.6-0.2-1-0.4l-0.9-0.3c-1.3-0.5-3.3-0.1-6.2,1.1
	c-0.6,0.2-1.2,0.5-1.9,0.9l-2.2,1c-0.8,0.4-1.4,0.6-1.9,0.8c-0.7,0.3-1.4,0.6-2,0.9c-0.3,0.1-1.3,0.7-1.6,0.8
	c-0.4,0.2-0.9,0.4-1.3,0.6c-0.9,0.3-1.4,0.1-1.7-0.6c-0.2-0.7,0.1-1.4,1-2.3c0.5-0.5,1-0.9,1.9-1.6c0.1-0.1,1.1-0.8,1.3-1
	c0.4-0.3,0.7-0.6,1-0.9c1.1-1.1,1-1,1.3-1.1c0.1,0,1.1,0.1,1.6,0.1c0.9,0,1.2-0.1,1.5-0.2l0.2-0.1c0.1-0.1,0.2-0.1,0.3-0.2
	c0.4-0.2,0.8-0.3,1.2-0.5c1.1-0.3,1.4-0.8,1.5-2.2c0.2-1.3,0.2-1.7,0.6-2.5c0.3-0.8,0.8-1.2,1.6-1.3c0.5,0,0.9,0.1,2.2,0.4
	c0.5,0.2,1,0.3,1.5,0.4c0.2,0,0.5,0.1,0.7,0.1c3.5,0,6.6-0.3,8.1-1c0.7-0.3,1.7-0.5,3.7-0.8l1.6-0.2c0.7-0.1,1.2-0.1,1.7-0.2
	c1.4-0.2,2.6-0.4,3.7-0.7c2.1-0.5,4.1-1.5,5.9-3c1.2-0.9,2.2-2,3.2-3.1c0.8-1,1.5-2.1,1.9-3.4c0.6-1.9,0.7-4.1,0.1-6.4
	C65.9,1.7,65.7,0.8,65.5,0L65.5,0z M84.4,0h0.2c-0.1,0.1-0.2,0.2-0.2,0.3c-0.7,0.8-1.1,1.3-1.6,1.6C82.6,2,82.3,2.1,82,2.1
	c-0.4,0-0.7,0.1-1.1,0.4l-0.4,0.3c-0.7,0.5-1.3,0.7-2.3,0.7c-0.9,0-1.7-0.2-2.7-0.7c-0.1-0.1-0.3-0.1-0.4-0.2l-0.4-0.2
	c-0.3-0.1-0.5-0.2-0.7-0.2s-0.4-0.1-0.5-0.1c-0.4,0-0.7-0.1-1.8-0.6l-0.3-0.1c-0.8-0.3-1.3-0.5-1.8-0.4c-0.5,0-0.7,0.3-0.7,1
	c0,3.5-0.9,8.4-2,9.6c-1.3,1.3-4.4,3.9-5.7,4.8C59,18,56,19.8,53.9,20.6c-0.7,0.3-1.5,0.5-2.2,0.7c-0.5,0.1-1.1,0.2-1.9,0.4
	c-0.1,0-1.5,0.2-1.9,0.3c-0.8,0.1-1.5,0.3-2.3,0.5c-3.4,0.7-4.2,0.8-6.4,0.8c-0.4,0-0.5,0-2.3-0.3c-0.4-0.1-0.7-0.1-1-0.2
	c-1.4-0.2-2.3-0.2-2.9,0c-0.8,0.2-1,0.8-0.6,1.8c0.3,0.9,0.8,1.4,1.5,1.8c0.5,0.3,1.1,0.4,2.3,0.6c1.6,0.2,1.8,0.3,2.6,0.5
	c1.1,0.3,2.1,0.7,3.1,1.2c1.4,0.8,2.4,1.9,3.3,3.5c0.5,0.8,1.6,3.2,1.8,3.5c0.6,1,1,1.1,1.8,0.3s1.7-1.4,3.5-2.3
	c0.1,0,0.3-0.2,0.4-0.2c1.3-0.7,2-1.1,2.6-1.6c0.9-0.6,1.4-1.3,1.8-2.2c1.4-3.4,3.5-5.6,5.4-5.6h0.9c1.8,0,2.9,0,4.1-0.1
	c2.3-0.1,4-0.3,4.9-0.8c1-0.4,2.2-0.9,4-1.5c0.6-0.2,1-0.3,2.1-0.7c1.3-0.4,1.8-0.6,2.5-0.8c0.6-0.2,1.3-0.4,1.9-0.6s1-0.3,1.3-0.5
	c0.4-0.1,0.8-0.3,1.1-0.5c0.3-0.2,0.6-0.3,1-0.6c0.6-0.4,1-0.5,2-0.7h0.2c1-0.2,1.5-0.4,2.1-0.9c1.3-1.2,1.4-3.9,0.6-7.4
	C91,7.7,90.9,5.8,91,3.1c0-1,0.1-2.1,0.1-3.1h0.2v0.5c-0.1,1.1-0.1,1.8-0.1,2.6c-0.1,2.7,0,4.6,0.3,5.9c0.8,3.6,0.7,6.4-0.7,7.6
	c-0.7,0.6-1.2,0.8-2.2,1h-0.2c-1,0.2-1.4,0.3-1.9,0.7c-0.3,0.2-0.7,0.4-1,0.6c-0.4,0.2-0.7,0.4-1.1,0.5c-0.3,0.1-0.7,0.3-1.3,0.5
	c-0.6,0.2-1.3,0.4-1.9,0.6c-0.7,0.2-1.2,0.4-2.5,0.8c-1.1,0.3-1.5,0.5-2.1,0.7c-1.8,0.6-3,1-4,1.5c-1,0.4-2.7,0.7-5,0.8
	c-1.3,0.1-2.4,0.1-4.2,0.1h-0.9c-1.9,0-3.9,2.1-5.3,5.4c-0.4,0.9-1,1.6-1.8,2.3c-0.7,0.5-1.3,0.9-2.7,1.6l-0.4,0.2
	c-1.8,0.9-2.7,1.5-3.5,2.3c-0.9,0.9-1.5,0.7-2.1-0.4c-0.2-0.3-1.3-2.7-1.8-3.5c-0.9-1.5-1.9-2.7-3.3-3.4c-1-0.5-2-0.9-3.1-1.2
	c-0.7-0.2-1-0.2-2.6-0.5c-1.2-0.2-1.8-0.3-2.4-0.6c-0.7-0.4-1.2-1-1.5-1.9c-0.4-1.1-0.1-1.7,0.7-2c0.7-0.2,1.6-0.2,3,0
	c0.3,0,0.6,0.1,1,0.2c1.8,0.3,1.9,0.3,2.3,0.3c2.2,0,2.9-0.1,6.3-0.8c0.8-0.2,1.5-0.3,2.3-0.5c0.5-0.1,1.8-0.3,1.9-0.3
	c0.8-0.1,1.3-0.2,1.9-0.4c0.8-0.2,1.5-0.4,2.2-0.7c2.1-0.8,5.1-2.6,7.3-4.2c1.2-0.9,4.4-3.6,5.7-4.8c1.1-1.1,2-6,2-9.4
	c0-0.8,0.3-1.1,0.9-1.2c0.4,0,1,0.1,1.8,0.5l0.3,0.1C72.7,1.9,73,2,73.4,2c0.2,0,0.4,0,0.6,0.1s0.4,0.1,0.7,0.3
	c0.2,0.1,0.4,0.2,0.6,0.3l0.2,0.1c1,0.5,1.7,0.7,2.6,0.7s1.5-0.2,2.2-0.7c0,0,0.3-0.2,0.4-0.3C81.2,2,81.6,1.9,82,1.9
	c0.2,0,0.5-0.1,0.7-0.2c0.5-0.3,0.9-0.7,1.6-1.6L84.4,0L84.4,0z M54.1,100h-0.3c0.1-0.5,0.2-1,0.2-1.6c0.1-0.7,0.1-1.4,0.2-2
	c0-0.2,0-0.4-0.1-1.2c-0.1-0.3-0.2-0.7-0.2-1.1c-0.3-1.9-0.4-3.8-0.2-5.6c0.1-1,0.4-2,0.9-3c0.5-1.1,1.2-2.1,2.1-3
	c0.6-0.6,0.9-0.9,2-1.8c0.7-0.6,1.1-0.9,1.3-1.2c0.1-0.2,0.2-0.3,0.2-0.5c0-0.3,0-0.3-0.1-1.5C60,76.9,60,76.5,60,76
	c-0.1-2,0.3-3.3,1.4-3.6c2.6-0.9,4.3-2,5.6-4.3c1.6-2.8,4.3-5.3,6-5.3c2.1,0,3.3-0.3,4.9-1.5c1.1-0.8,1.6-1.1,2.1-1.2
	c0.4-0.1,0.6-0.1,1.5-0.1c0.3,0,0.6-0.1,0.9-0.4c0.2-0.2,0.9-0.9,0.9-0.9c1-1,2-1.5,3.5-1.5c0.4,0,0.8,0,1.2,0c1.3,0,1.5,0,1.9-0.1
	c0.5-0.2,0.9-0.5,2.5-1.9c1.3-1.2,1.8-1.5,3.8-2.7c0.2-0.1,0.4-0.3,0.6-0.4c0.6-0.4,1.1-0.8,1.6-1.2c0.7-0.6,1.3-1.3,1.9-2v0.5
	c-0.5,0.6-1.1,1.2-1.7,1.7c-0.5,0.5-1,0.9-1.6,1.3c-0.2,0.1-0.4,0.2-0.6,0.4c-2,1.2-2.5,1.6-3.8,2.7c-1.6,1.4-2,1.7-2.6,1.9
	c-0.5,0.2-0.7,0.2-2,0.1c-0.5,0-0.8,0-1.2,0c-1.4,0-2.3,0.4-3.2,1.4c-0.1,0.1-0.8,0.8-0.9,0.9c-0.4,0.3-0.7,0.5-1.1,0.5
	c-0.8,0-1.1,0-1.4,0.1c-0.4,0.1-0.9,0.4-2,1.2c-1.6,1.2-3,1.5-5.1,1.5c-1.5,0-4.2,2.4-5.7,5.1c-1.3,2.3-3,3.5-5.8,4.4
	c-0.9,0.3-1.2,1.4-1.1,3.3c0,0.4,0.1,0.9,0.1,1.5c0.1,1.3,0.1,1.3,0.1,1.6c0,0.2-0.1,0.5-0.2,0.7c-0.2,0.4-0.5,0.7-1.3,1.3
	c-1,0.9-1.4,1.2-1.9,1.8c-0.8,0.9-1.5,1.9-2,3c-0.4,0.9-0.7,1.9-0.8,2.9c-0.2,1.8-0.1,3.7,0.2,5.5c0.1,0.4,0.1,0.8,0.2,1.1
	c0,0.1,0,0.2,0.1,0.7c0,0.9-0.1,1.8-0.2,2.7C54.2,99,54.2,99.5,54.1,100L54.1,100z M51.9,100h-0.2l0,0c0.5-1.2,0.7-2,0.7-3.1
	c0-0.6,0-0.8-0.1-2.6c-0.1-2-0.2-3.3-0.1-4.7c0.1-1.9,0.4-3.7,1-5.4c0.2-0.6,0.5-1.2,0.8-1.8c0.6-1.2,1.1-2.1,1.7-2.8
	c0.2-0.3,0.5-0.5,0.7-0.8c0.1-0.1,0.5-0.5,0.6-0.6c1-0.9,1.3-1.9,1.3-4.9c0-3.1,0.5-4,2.6-4.7c0.2-0.1,0.3-0.1,0.5-0.2
	c0.3-0.1,0.7-0.3,1-0.4c0.8-0.4,1.6-1,2.4-1.9c4.2-4.6,6.2-5.9,9.4-5.9c1.4,0,2.4-0.3,3.7-1c0.3-0.2,2.3-1.5,3-1.9
	c0.5-0.3,0.9-0.5,1.4-0.7c1.3-0.6,2.3-0.7,4.4-0.8c1.3,0,1.8-0.1,2.4-0.3c0.8-0.2,1.3-0.7,1.8-1.4c0.4-0.6,1.1-1.2,2.4-2
	c0.3-0.2,0.5-0.3,0.9-0.6c1.6-1,1.9-1.2,2.5-1.6c0.9-0.7,1.5-1.4,2.3-2.5c0.3-0.5,0.6-1,0.9-1.5v0.3c-0.3,0.5-0.6,0.9-0.8,1.2
	c-0.7,1.1-1.4,1.8-2.3,2.5c-0.5,0.4-0.9,0.6-2.5,1.6c-0.3,0.2-0.6,0.4-0.9,0.6c-1.3,0.8-2,1.4-2.4,2c-0.5,0.8-1.1,1.2-1.9,1.5
	c-0.6,0.2-1.1,0.2-2.4,0.3c-2.1,0.1-3.1,0.2-4.4,0.8c-0.5,0.2-1,0.5-1.4,0.7c-0.7,0.4-2.7,1.7-3,1.9c-1.3,0.7-2.3,1.1-3.7,1.1
	c-3.1,0-5,1.2-9.3,5.8c-0.8,0.9-1.6,1.5-2.4,1.9c-0.3,0.2-0.7,0.3-1,0.5c-0.1,0.1-0.3,0.1-0.9,0.3c-0.8,0.3-1.2,0.5-1.5,1.1
	c-0.4,0.6-0.5,1.7-0.5,3.3c0,3-0.3,4-1.3,5c-0.1,0.1-0.5,0.5-0.6,0.6c-0.3,0.2-0.5,0.5-0.7,0.7c-0.6,0.7-1.1,1.6-1.7,2.7
	c-0.3,0.6-0.5,1.2-0.7,1.8c-0.6,1.7-0.9,3.4-1,5.3c-0.1,1.4,0,2.7,0.1,4.7c0.1,1.8,0.1,2,0.1,2.6C52.6,97.9,52.4,98.6,51.9,100
	L51.9,100z M56,100h-0.2c0-0.8,0-1.6,0-2.5c0-1.1-0.1-2-0.4-4.1l-0.1-0.3c-0.4-2.1-0.5-3.2-0.3-4.4c0.2-1.5,0.8-2.8,2-3.8
	c3.7-3,5-5,5-7.4c0-0.4,0-0.8-0.2-1.4c-0.2-0.8-0.2-0.9-0.2-1.3s0.2-0.8,0.6-1.1c0.4-0.4,1.2-0.8,2.3-1.2c1.6-0.6,2.6-1.5,4-3.6
	l0.3-0.4c0.7-1.1,1.2-1.6,1.7-2.1c0.7-0.7,1.5-1.1,2.4-1.4c2.2-0.6,3.4-0.9,4.2-1.3c0.3-0.1,0.6-0.3,0.9-0.4
	c0.2-0.1,0.3-0.2,0.7-0.4c0.4-0.3,0.9-0.3,1.9-0.4c0.9,0,1.3-0.1,1.8-0.2c0.6-0.2,1.2-0.6,1.6-1c0.8-0.9,1.7-1.3,3-1.5
	c0.2,0,0.3,0,0.6-0.1c1.1-0.2,1.7-0.3,2.2-0.6c0.7-0.4,1.1-0.7,3.9-3.3l0.5-0.5c1.6-1.5,2.7-2.3,3.6-2.7c0.7-0.4,1.3-0.8,1.9-1.4
	v0.2c-0.6,0.6-1.1,1-1.8,1.3C97,53.1,96,54,94.4,55.4l-0.5,0.5c-2.8,2.6-3.2,2.9-3.9,3.3c-0.6,0.3-1.1,0.5-2.3,0.6
	c-0.3,0-0.5,0.1-0.6,0.1c-1.3,0.2-2.1,0.6-2.9,1.4c-0.4,0.5-1,0.9-1.7,1.1c-0.5,0.2-1,0.2-1.9,0.2c-1,0-1.4,0.1-1.8,0.4
	c-0.2,0.1-0.5,0.3-0.7,0.4c-0.3,0.2-0.6,0.3-0.9,0.5c-0.8,0.4-2,0.7-4.2,1.3c-1.6,0.4-2.5,1.3-4.1,3.4L68.6,69
	c-1.5,2.1-2.5,3.1-4.1,3.7c-1.1,0.4-1.8,0.8-2.2,1.1c-0.3,0.3-0.5,0.6-0.5,1c0,0.3,0,0.4,0.2,1.2c0.1,0.6,0.2,0.9,0.2,1.4
	c0,2.5-1.3,4.5-5,7.6c-1.2,1-1.8,2.2-1.9,3.7c-0.1,1.2,0,2.3,0.3,4.4l0.1,0.3c0.4,2.1,0.5,3,0.4,4.1C56,98.4,56,99.2,56,100L56,100z
	 M16,100h-0.3c0.1-0.6,0.2-1.5,0.3-2.7c0-0.5,0-0.7,0.1-0.9c0.2-2.9,0.7-4.5,1.9-5.5c0.8-0.6,1.2-1.5,1.4-2.7
	c0.1-0.4,0.1-0.6,0.2-1.5s0.2-1.3,0.4-1.7c0.2-0.5,0.6-0.8,1.2-0.8c2.4,0,6.4,1.5,8.9,3.4c1.4,1.1,3.5,2.2,5.3,2.9
	c2.2,0.8,3.6,0.7,4.1-0.3c0.3-0.6,0.3-0.7,0.4-1c0.5-1.1,0.8-2,0.9-2.9c0-0.4,0-0.7,0-1c-0.1-0.5-0.2-0.8-0.7-1.2l-0.2-0.2
	c-0.1-0.1-0.3-0.3-0.4-0.5c-0.2-0.2-0.3-0.4-0.4-0.7l-0.2-0.4c-0.3-0.5-0.4-0.8-0.7-0.9c-0.9-0.6-2.5-0.9-4.8-1.1
	c-0.5,0-1-0.1-1.5-0.1h-0.4c-1.6-0.1-2.5-0.3-3.2-0.5c-2.3-1-5.8-4.4-5.8-6.2c0-0.9,0.3-1.6,0.9-2.4c0.3-0.4,1.9-2,2.1-2.3
	c0.8-0.8,1.7-1.6,2.9-2.4c0.5-0.3,2.5-1.6,2.9-1.9s0.7-0.6,1.1-0.9c0.3-0.2,1.2-1.2,1.2-1.2c1.2-1.2,2.1-1.9,3.3-2.4
	c0.6-0.2,1.4-0.5,2.9-0.9c0.7-0.2,1.3-0.4,2-0.5c0.7-0.2,1.4-0.4,2.1-0.6c3.4-1,5.7-2,6.8-3.1c1.5-1.4,2-2.3,2.6-4.3
	c0.3-1,0.5-1.5,0.8-2.1c1.6-3,4.8-6.6,7.2-7.6s3.2-2,3.2-3c0-0.5,0.5-1.4,1.1-2.3c0.8-1,1.8-1.9,2.8-2.4c2.1-1,5.6-1.7,7.9-1.7
	c0.9,0,1.6-0.2,2.7-0.8c1.5-0.8,1.7-0.9,2.3-0.9c1.7,0,5.3-0.4,7.6-1l0.6-0.2l0.6-0.1c0.4-0.1,0.7-0.2,1-0.2
	c0.6-0.1,1.1-0.2,1.6-0.2s0.9,0.1,1.4,0.2c0.8,0.2,2.3-0.1,3.8-0.9c0.6-0.3,1.1-0.6,1.6-1v0.4c-1.8,1.4-4.3,2.3-5.5,1.9
	c-0.4-0.1-0.9-0.2-1.4-0.2c-0.4,0-0.9,0-1.5,0.2c-0.5,0.1-1,0.2-1.6,0.4L89.4,29c-2.3,0.6-5.9,1-7.7,1c-0.5,0-0.7,0.1-2.1,0.8
	c-1.1,0.6-1.9,0.9-2.9,0.9c-2.3,0-5.7,0.7-7.8,1.6c-1,0.4-1.9,1.3-2.7,2.3c-0.6,0.8-1.1,1.7-1.1,2.1c0,1.2-1,2.3-3.4,3.3
	s-5.5,4.5-7.1,7.4c-0.3,0.6-0.5,1-0.8,2.1c-0.7,2.1-1.2,3.1-2.7,4.5c-1.2,1.1-3.5,2.1-6.9,3.1c-0.7,0.2-1.4,0.4-2.1,0.6
	c-0.7,0.2-1.3,0.4-2,0.5c-1.5,0.4-2.3,0.7-2.9,0.9c-1.1,0.4-2,1.1-3.2,2.3c0,0-0.9,1-1.2,1.2c-0.3,0.3-0.7,0.7-1.1,0.9
	c-0.5,0.3-2.5,1.6-2.9,1.9c-1.2,0.8-2.2,1.6-2.9,2.4c-0.3,0.3-1.8,1.9-2.1,2.2c-0.6,0.7-0.8,1.3-0.8,2.1c0,1.6,3.3,4.9,5.6,5.8
	c0.6,0.3,1.5,0.4,3.1,0.5c0.2,0,0.5,0,0.7,0.1c0.5,0,0.8,0.1,1.2,0.1c2.3,0.2,4,0.6,4.9,1.2c0.3,0.2,0.5,0.5,0.8,1l0.2,0.4
	c0.1,0.2,0.2,0.4,0.4,0.6c0.1,0.1,0.2,0.3,0.4,0.4l0.2,0.2c0.5,0.5,0.7,0.9,0.8,1.4c0,0.4,0,0.7,0,1.1c-0.1,0.9-0.4,1.9-0.9,3
	c-0.1,0.3-0.2,0.4-0.4,1c-0.6,1.2-2.2,1.3-4.5,0.5c-1.8-0.6-3.9-1.8-5.4-2.9c-2.5-1.8-6.4-3.3-8.7-3.3c-0.8,0-1.1,0.5-1.3,2.2
	c-0.1,0.5-0.1,1-0.2,1.6c-0.3,1.2-0.7,2.2-1.6,2.9c-1.1,0.9-1.6,2.5-1.8,5.3c0,0.3,0,0.4-0.1,0.9C16.2,98.5,16.1,99.4,16,100L16,100
	z M17.3,100h-0.2c0-0.2,0.1-0.5,0.1-0.8l0.2-0.9c0.4-2.2,0.7-3.3,1.1-4c0.3-0.5,0.6-0.9,1.3-1.8c1.4-1.7,1.8-2.4,1.8-3.1v-0.3
	c0-0.3,0-0.4,0-0.6c0-0.8,0.2-1.4,0.8-1.6c0.7-0.3,1.7,0.1,3.4,1.1c1.6,1,2.9,1.8,4.3,2.6c0.2,0.1,2.4,1.4,2.9,1.7
	c0.4,0.2,0.7,0.4,1.1,0.6c2.3,1.4,6.5,0.8,7.7-1.3c0.6-1,0.8-1.4,1.3-2.9c0.1-0.2,0.1-0.3,0.2-0.5c0.2-0.4,0.4-0.9,0.7-1.3
	c1.6-2.3,2.5-4.3,2.5-6.1c0-0.6,0.1-1.1,0.6-2.5c0.1-0.3,0.1-0.4,0.2-0.6c0.6-2,0.5-3.2-0.7-4c-0.5-0.3-1.1-0.6-1.7-0.6
	c-1.2-0.2-2.4,0.2-4,1c-0.3,0.1-1.1,0.6-1.3,0.7s-0.5,0.2-0.7,0.4l-0.7,0.4c-1.9,1.2-3.4,1.5-5.5,1c-0.6-0.1-1-0.2-2.2-0.4
	c-2.2-0.4-3.1-0.6-3.9-1.1c-1-0.6-1.2-1.5-0.5-2.8c0.7-1.1,1.5-2.1,2.4-3.1c0.4-0.4,0.9-0.9,1.4-1.3c0,0,1-0.9,1.3-1.1
	c0.4-0.3,0.7-0.7,1.1-1.1c1.3-1.4,2.1-2.2,3.3-3.1c1.7-1.2,3.6-2.1,5.9-2.6c6.2-1.4,8.5-2.1,9.8-3c1.4-1,3.5-4.1,6.1-9.1
	c0.9-1.7,2-3.1,3.5-4.3c0.9-0.7,1.6-1.2,2.9-2c1.2-0.8,1.6-1,1.9-1.4c0.2-0.2,0.4-0.5,0.5-0.8c0.1-0.2,0.5-1.1,0.5-1.1
	c0.2-0.5,0.4-0.9,0.7-1.3c1.1-1.8,2.7-3,5.2-3.5c2.1-0.4,3.3-0.4,4.9-0.4c0.5,0,0.7,0,0.9,0c0.9,0,1.6-0.2,2.8-0.6
	c3.5-1.4,6.5-2,9.9-2c0.5,0,1,0,1.7,0.1h0.3c2.1,0.2,3,0.2,4.2-0.1c0.8-0.2,1.6-0.5,2.3-0.9v0.2c-0.7,0.4-1.5,0.7-2.3,0.9
	C96.1,31,95.1,31,93,30.8h-0.3c-0.7-0.1-1.2-0.1-1.7-0.1c-3.4,0-6.4,0.6-9.8,2c-1.2,0.5-1.9,0.6-2.8,0.6c-0.3,0-0.4,0-0.9,0
	c-1.6-0.1-2.8,0-4.9,0.4c-2.5,0.5-4.1,1.6-5.1,3.4c-0.2,0.4-0.5,0.8-0.6,1.3c0,0-0.4,0.9-0.5,1.1c-0.1,0.3-0.3,0.6-0.5,0.8
	c-0.3,0.4-0.7,0.6-1.9,1.4c-1.3,0.8-2.1,1.3-2.9,2c-1.5,1.2-2.6,2.6-3.5,4.2c-2.6,5-4.7,8.2-6.2,9.2c-1.3,0.9-3.7,1.6-9.9,3
	c-2.3,0.5-4.2,1.4-5.8,2.6c-1.2,0.9-2,1.7-3.3,3.1c-0.3,0.4-0.7,0.7-1.1,1.1C31,67.1,30,68,30,68c-0.5,0.5-1,0.9-1.4,1.3
	c-0.9,0.9-1.7,1.9-2.4,3c-0.7,1.2-0.5,2,0.4,2.5c0.7,0.4,1.6,0.7,3.9,1.1c0.7,0.1,1.4,0.3,2.2,0.4c2,0.5,3.4,0.1,5.3-1l0.7-0.4
	c0.3-0.2,0.5-0.3,0.7-0.4s1-0.5,1.3-0.7c1.6-0.8,2.8-1.2,4.1-1c0.6,0.1,1.2,0.3,1.7,0.7c1.3,0.9,1.4,2.1,0.8,4.2
	c-0.1,0.2-0.1,0.3-0.2,0.6c-0.4,1.4-0.6,1.8-0.6,2.4c0,1.8-0.9,3.9-2.5,6.2c-0.3,0.4-0.5,0.8-0.7,1.2c-0.1,0.2-0.1,0.3-0.2,0.5
	c-0.5,1.5-0.7,1.9-1.3,2.9c-1.3,2.2-5.6,2.8-7.9,1.4c-0.4-0.2-0.7-0.4-1.1-0.6c-0.6-0.3-2.7-1.6-2.9-1.7c-1.4-0.8-2.7-1.6-4.3-2.6
	s-2.6-1.3-3.2-1.1c-0.4,0.2-0.6,0.6-0.7,1.4c0,0.2,0,0.4,0,0.6v0.3c0,0.7-0.4,1.5-1.9,3.3c-0.7,0.8-1,1.3-1.3,1.7
	c-0.4,0.7-0.7,1.8-1.1,4l-0.2,0.9L17.3,100L17.3,100z M19.1,100h-0.2c0-0.1,0-0.1,0-0.2c0-2.1,1.4-5.6,3.2-7.2
	c0.2-0.2,0.4-0.4,0.6-0.7c0.2-0.3,0.3-0.5,0.5-0.8c0.1-0.1,0.3-0.6,0.3-0.7c0.5-1,1.1-1.1,2.8,0.1c0.2,0.2,1,0.7,1.1,0.7
	c0.4,0.3,0.8,0.5,1.1,0.8c0.8,0.6,1.6,1,2.3,1.4c2.4,1.4,4.2,2.2,5.7,2.2c2.8,0,5.5-1,6.6-2.5c0.3-0.3,0.5-0.9,0.8-1.6
	c0.1-0.3,0.3-0.7,0.4-1.1l0.5-1.2c0.8-2.1,1.3-3.2,1.9-3.9c1.3-1.5,2.5-6,2.5-8.8c0-0.3,0-0.5,0.2-1.4c0.1-0.4,0.1-0.6,0.1-0.8
	c0.1-0.9,0-1.6-0.3-2.1c-0.8-1.2-3.3-1.5-6.4-0.8c-1.1,0.2-2.1,0.6-3.2,1c-0.9,0.4-2.9,1.6-2.7,1.6c-1.1,0.6-2.2,0.7-4.1,0.2
	c-4.9-1.2-5.1-1.4-2.5-4.5c2.9-3.5,7.9-7.7,9.4-7.7c1.7,0,9-2,11-3c1.6-0.8,4.1-3.5,6.1-6.3c0.1-0.2,2.2-3.6,3.2-4.9
	c1.6-2.2,3-3.8,4.5-4.6c1.2-0.7,2.2-1.7,3.1-3.1c0.3-0.5,1.8-2.9,2.1-3.4c0.3-0.3,0.5-0.5,0.8-0.6c2.3-1,4-1.5,6.5-1.5h4.8
	c0.7,0,1.2-0.1,3.8-0.4l0.7-0.1c1.7-0.2,2.8-0.3,3.6-0.3c0.3,0,0.5,0,1,0c3.1,0,4.8-0.1,7.5-0.7c0.5-0.1,1-0.3,1.5-0.6v0.2
	c-0.5,0.2-1,0.4-1.5,0.5c-2.7,0.6-4.4,0.7-7.5,0.7c-0.5,0-0.7,0-1,0c-0.9,0-2,0.1-3.6,0.3l-0.7,0.1c-2.6,0.4-3.2,0.4-3.8,0.4H77
	c-2.5,0-4.1,0.5-6.5,1.5c-0.2,0.1-0.4,0.3-0.7,0.6c-0.4,0.4-1.8,2.9-2.1,3.4c-1,1.4-1.9,2.5-3.2,3.2c-1.4,0.8-2.9,2.4-4.4,4.5
	c-0.9,1.3-3.1,4.8-3.2,4.9c-2.1,2.8-4.6,5.6-6.2,6.4c-2,1-9.4,3-11,3c-1.5,0-6.4,4.2-9.3,7.6c-2.4,2.9-2.4,3,2.5,4.2
	c1.9,0.5,2.9,0.4,4-0.2c-0.1,0.1,1.9-1.2,2.8-1.6c0.9-0.4,1.9-0.8,3.2-1.1c3.2-0.8,5.8-0.4,6.6,0.9c0.3,0.5,0.4,1.2,0.3,2.2
	c0,0.3-0.1,0.6-0.1,0.9c-0.1,0.8-0.2,1-0.2,1.3c0,2.8-1.2,7.4-2.5,8.9c-0.6,0.7-1.1,1.8-1.9,3.8c-0.1,0.2-0.4,1-0.5,1.2
	c-0.2,0.5-0.3,0.8-0.4,1.1c-0.3,0.8-0.6,1.3-0.9,1.6c-1.2,1.5-3.9,2.5-6.7,2.5c-1.5,0-3.4-0.8-5.8-2.2c-0.7-0.4-1.4-0.9-2.3-1.5
	c-0.4-0.3-0.7-0.5-1.1-0.8l-1.1-0.7c-1.6-1.1-2.1-1.1-2.6-0.1c-0.1,0.1-0.3,0.6-0.3,0.7c-0.1,0.3-0.3,0.6-0.5,0.8
	c-0.2,0.3-0.4,0.5-0.6,0.7c-1.7,1.6-3.1,5.1-3.1,7.1L19.1,100L19.1,100z M14.1,100h-0.2c0.2-0.4,0.3-0.9,0.3-1.3c0-3.3,0.8-7,2-8.2
	c0.9-0.9,1.3-1.4,1.6-2.1c0.4-0.9,0.7-2,0.7-3.5c0-1.1,0.2-1.9,0.6-2.5c0.3-0.4,0.6-0.7,1.5-1.3c0.2-0.1,0.4-0.3,0.6-0.5
	c0.8-0.7,1.1-1,1.3-1.6c0.2-0.7,0.2-1.5-0.3-2.7c-0.2-0.5-0.4-0.9-0.7-1.3l-0.2-0.3c-0.2-0.3-0.3-0.6-0.4-0.8
	c-0.9-1.8-0.6-3.1,1.3-5c1.4-1.3,2.9-2.5,4.5-3.6c0.7-0.4,2.8-1.8,3.2-2.1c0.3-0.2,0.7-0.5,1.3-1c0,0,1.2-1.1,1.6-1.4
	c0.8-0.7,1.5-1.2,2.2-1.7c0.8-0.5,1.5-0.9,2.1-1.1c2.1-0.6,2.6-0.7,3.6-1c2.1-0.6,3.7-1.1,4.7-1.7c0.4-0.2,0.8-0.3,1.2-0.5
	c1.4-0.4,2-0.7,2.8-1.3c1.1-0.9,2.2-2.4,3.2-4.6c2.7-5.8,3.2-6.6,5.4-8.2c0.5-0.4,1.1-0.7,1.9-1.1l0.4-0.2c2-0.9,2.8-1.5,3.5-2.9
	c0.3-0.6,0.4-1,0.6-2c0.1-0.9,0.2-1.3,0.6-1.7c0.4-0.6,1.2-1,2.4-1.5c0.6-0.2,1.2-0.4,2-0.6c2.7-0.7,4.2-0.9,6.6-1
	c1.1,0,1.6-0.1,2.1-0.3c0.2-0.1,0.4-0.2,0.6-0.4c0.6-0.4,1.4-0.8,2.2-0.9c1-0.2,1.8-0.3,3.1-0.2h0.4c0.5,0,1.1-0.2,3.3-0.8
	c1.8-0.5,2.7-0.7,3.2-0.7c0.1,0,0.3,0,0.6,0.1l0.8,0.1c1.6,0.3,2.9,0.3,4.2,0c1.3-0.4,2.5-1.1,3.4-2.4v0.3c-0.9,1.2-2,1.9-3.3,2.3
	s-2.6,0.3-4.3,0l-0.8-0.1c-0.3,0-0.4-0.1-0.6-0.1c-0.5,0-1.4,0.2-3.3,0.7c-2.1,0.6-2.7,0.8-3.2,0.8H84c-1.3,0-2.1,0-3.1,0.2
	c-0.8,0.2-1.5,0.5-2.1,0.9c-0.2,0.1-0.4,0.3-0.6,0.4c-0.6,0.2-1,0.3-2.2,0.3c-2.4,0.1-3.9,0.2-6.6,1c-0.7,0.2-1.3,0.4-2,0.6
	c-1.2,0.4-1.9,0.9-2.3,1.4c-0.3,0.4-0.4,0.8-0.6,1.6c-0.2,1-0.3,1.4-0.6,2.1c-0.4,0.8-0.9,1.4-1.6,1.9c-0.5,0.4-1,0.6-2,1.1
	l-0.4,0.2c-0.8,0.4-1.4,0.7-1.9,1c-2.1,1.6-2.7,2.4-5.3,8.1c-1.1,2.3-2.1,3.8-3.3,4.7c-0.8,0.7-1.4,0.9-2.9,1.4
	c-0.4,0.1-0.8,0.3-1.2,0.5c-1,0.5-2.6,1.1-4.7,1.7c-1.2,0.3-2.4,0.7-3.6,1c-0.6,0.2-1.3,0.5-2.1,1s-1.5,1.1-2.2,1.7
	c-0.4,0.3-1.6,1.4-1.6,1.4c-0.4,0.4-0.9,0.7-1.3,1.1c-0.4,0.3-2.6,1.6-3.2,2.1c-1.6,1.1-3.1,2.3-4.4,3.6c-1.9,1.8-2.1,3-1.2,4.8
	c0.1,0.3,0.3,0.6,0.4,0.8l0.2,0.3c0.3,0.4,0.5,0.9,0.7,1.4c0.5,1.2,0.6,2.1,0.3,2.8c-0.2,0.6-0.5,1-1.3,1.6
	c-0.2,0.2-0.4,0.3-0.9,0.6c-0.7,0.4-0.9,0.6-1.2,1.1c-0.4,0.5-0.5,1.3-0.5,2.4c0,1.5-0.2,2.6-0.7,3.6c-0.4,0.7-0.8,1.3-1.7,2.2
	c-1.2,1.2-2,4.8-2,8.1C14.4,99.1,14.3,99.6,14.1,100L14.1,100z M61.2,100H61l-0.2-1c-0.5-2.7-0.7-4.4-0.5-6.2c0.1-1,0.1-1.6,0.1-2.5
	c0-0.7,0-0.9,0-1.3c0.1-0.7,0.6-1.4,1.7-2.7c1.5-1.7,2-2.6,3.3-5c0.2-0.4,0.4-0.7,0.6-1s0.3-0.5,0.5-0.7c0.5-0.8,1.2-1.4,2.8-2.8
	c1.9-1.6,2.6-2.3,3-3.2c0.1-0.2,0.2-0.5,0.3-0.7c0.1-0.2,0.2-0.4,0.2-0.7c0.6-1.7,1.3-2.3,3.8-3c0.8-0.2,3.4-0.9,3.6-0.9
	c2.7-0.7,4.2-1.2,5.6-2.1c1-0.6,1-0.6,4.6-2.8l0.4-0.3c1.7-1,2.8-1.7,3.8-2.3c0.5-0.3,1-0.7,1.5-1c0.4-0.3,0.7-0.6,1.1-0.8
	c0.8-0.7,1.7-1.2,2.7-1.7v0.2c-0.9,0.5-1.8,1-2.6,1.6c0,0-0.8,0.6-1.1,0.8c-0.5,0.4-1,0.7-1.5,1.1c-0.9,0.6-2.1,1.3-3.8,2.3
	l-0.4,0.3c-3.5,2-3.5,2-4.5,2.6c-1.4,0.9-2.9,1.4-5.6,2.1c-0.1,0-2.7,0.7-3.6,0.9c-1.3,0.3-2.2,0.7-2.7,1.2c-0.4,0.4-0.7,0.8-1,1.6
	l-0.2,0.7c-0.1,0.3-0.2,0.5-0.3,0.7c-0.5,0.9-1.2,1.6-3.1,3.2c-1.6,1.4-2.3,2-2.8,2.8c-0.2,0.2-0.3,0.5-0.5,0.7
	c-0.2,0.3-0.3,0.6-0.6,1c-1.3,2.5-1.8,3.3-3.3,5.1c-1.1,1.3-1.6,2-1.7,2.6c-0.1,0.3-0.1,0.5,0,1.2c0,0.9,0,1.6-0.1,2.6
	c-0.2,1.8-0.1,3.5,0.5,6.2L61.2,100L61.2,100z M48.5,100h-0.3l0.2-0.7c0.2-0.5,0.3-1.1,0.4-1.7c0.4-2.1,0.5-3.9,0.5-6.9
	c0-1-0.3-1.6-0.7-1.6c-0.5,0-1.2,0.9-1.8,2.8c-1.6,4.7-3.8,6.9-7.2,6.9c-3.7,0-4.9-0.2-8.1-1.7c-0.5-0.2-1.1-0.5-1.6-0.8
	s-2.1-1.4-2.5-1.6c-0.7-0.4-1.2-0.5-1.6-0.2c-0.1,0.1-0.2,0.2-0.3,0.3c-0.2,0.2-0.5,0.4-0.7,0.6c-0.2,0.1-0.3,0.3-0.5,0.4L24.2,96
	c-1.4,1.1-1.9,1.9-1.9,3.5c0,0.2,0,0.3,0,0.5H22c0-0.2,0-0.3,0-0.5c0-1.8,0.6-2.6,2-3.8c0.1-0.1,0.2-0.2,0.3-0.3
	c0.1-0.1,0.2-0.2,0.3-0.3c0.2-0.2,0.5-0.4,0.7-0.6c0.1-0.1,0.2-0.2,0.4-0.3c0.6-0.4,1.2-0.3,2,0.2c0.4,0.2,2,1.3,2.5,1.6
	c0.5,0.3,1,0.6,1.5,0.8c3.1,1.4,4.2,1.7,7.9,1.7c3.2,0,5.2-2.1,6.8-6.7c0.7-2,1.4-3.1,2.1-3.1c0.6,0,1,0.8,1,2c0,3-0.1,4.8-0.5,6.9
	c-0.1,0.6-0.3,1.2-0.5,1.8C48.6,99.6,48.5,99.8,48.5,100L48.5,100z M23.6,100l0.1-0.2c0.4-0.7,0.8-1.5,1.1-2.2c0.5-1,1-1.6,1.5-1.8
	c0.6-0.2,1.2,0.1,2.1,0.9c0.9,0.7,1,0.8,1.3,0.8s0.7,0.2,1.5,0.5c0.2,0.1,1.8,0.7,2.3,0.9c0.5,0.2,1,0.4,1.4,0.5
	c0.5,0.2,1,0.3,1.4,0.5h-0.6c-0.3-0.1-0.6-0.2-0.9-0.3c-0.5-0.2-0.9-0.3-1.4-0.5s-2.1-0.8-2.3-0.9c-0.7-0.3-1.2-0.4-1.4-0.5
	c-0.3,0-0.4-0.1-1.4-0.9c-0.9-0.7-1.4-1-1.9-0.8c-0.5,0.1-1,0.7-1.4,1.7c-0.3,0.8-0.7,1.6-1.1,2.3H23.6L23.6,100z M42.4,100
	c0.7-0.2,1.3-0.6,1.9-1c0.3-0.2,0.6-0.6,0.9-1c0.2-0.2,0.4-0.5,0.6-0.8c0.1-0.2,0.3-0.4,0.4-0.6l0.1-0.1l0.2-0.2
	c0.2-0.3,0.4-0.5,0.5-0.8c0.2-0.2,0.3-0.4,0.4-0.4c0.2-0.1,0.2,0.1,0.2,0.3v0.4c0,1.2,0,1.9-0.1,2.7c-0.1,0.6-0.2,1.2-0.4,1.8h-0.2
	c0.2-0.6,0.3-1.2,0.4-1.8c0.1-0.8,0.1-1.6,0.1-2.7v-0.4c0-0.2,0-0.2,0-0.2c-0.1,0-0.2,0.1-0.3,0.3c-0.2,0.3-0.4,0.5-0.5,0.8
	l-0.2,0.2l-0.1,0.1c-0.1,0.2-0.3,0.4-0.4,0.7c-0.2,0.3-0.4,0.6-0.6,0.8c-0.3,0.5-0.6,0.8-0.9,1.1c-0.4,0.4-0.9,0.7-1.5,0.9L42.4,100
	L42.4,100z M11.8,100h-0.2c0.6-0.6,0.9-1.4,0.9-2.5c0-3.1,0-2.9,0.2-3.5c0.1-0.3,0.2-0.6,0.5-1.1c0.1-0.1,0.8-1.3,1.1-1.8
	c0.5-0.8,1.8-2.7,2-3.1c0.6-1,0.8-2,0.8-4c0-1.3,0.4-2.4,1.3-3.9l0.5-0.8c0.1-0.2,0.3-0.5,0.4-0.7c0.3-0.5,0.4-1,0.4-1.4
	c0-0.6-0.2-1.2-0.8-1.8c-0.9-0.9-1.4-0.9-1.9-0.3c-0.4,0.5-0.6,1.3-0.8,2.7c0,0.2-0.1,0.8-0.1,0.8c-0.1,0.8-0.2,1.2-0.3,1.6
	c-0.2,0.7-0.6,1.3-1.4,2l-0.5,0.5c-1.1,1.1-1.6,1.9-1.9,3.2l-0.2,0.9c-0.1,0.7-0.3,1.2-0.4,1.7c-0.6,2.3-1.6,4.3-3.8,7.5
	c-1.3,1.9-1.8,3.1-1.8,4H5.6c0-0.9,0.6-2.2,1.8-4c2.1-3.1,3.1-5.1,3.7-7.4c0.1-0.5,0.2-1,0.4-1.6l0.2-0.9c0.3-1.4,0.9-2.2,1.9-3.3
	c0.1-0.1,0.5-0.5,0.5-0.5c0.8-0.8,1.1-1.3,1.4-2c0.1-0.5,0.3-1,0.3-1.6l0.1-0.8c0.3-1.5,0.5-2.3,0.9-2.8c0.5-0.7,1.2-0.6,2.1,0.3
	c0.6,0.6,0.9,1.3,0.9,1.9c0,0.4-0.2,0.9-0.5,1.4c-0.1,0.3-0.3,0.5-0.4,0.7l-0.5,0.8c-0.9,1.5-1.3,2.5-1.3,3.8c0,2-0.2,3.1-0.8,4.1
	c-0.2,0.3-1.5,2.3-2,3.1c-0.3,0.5-1.1,1.7-1.1,1.8c-0.3,0.5-0.4,0.8-0.5,1.1c-0.2,0.5-0.2,0.3-0.2,3.4C12.6,98.6,12.3,99.4,11.8,100
	L11.8,100z M51.7,0h0.2c-0.1,0.1-0.1,0.3-0.2,0.5c-0.7,1.5-1,2.5-1,4.2c0,1.3-0.3,1.9-1.1,2.2c-0.6,0.2-1,0.2-2.9-0.1
	c-1.9-0.2-3.2-0.3-4.7,0C41,7.2,37.7,8,36.6,8c-1.9,0-6.1-0.5-9-1.2c-1-0.2-2-0.1-2.8,0.4c-0.7,0.4-1.2,0.8-2.3,2
	c-1,1.1-1.6,1.5-2.3,1.9c-1.2,0.6-1.9,1.3-2.2,2c-0.3,0.6-0.4,1.3-0.4,2.5c0,0.7-0.4,1.1-1.6,1.6c0,0-0.5,0.2-0.6,0.3
	c-1.5,0.7-2.1,1.4-2.1,2.8c0,2.1-0.8,3.2-2.9,4.7l-0.8,0.5c-0.3,0.2-0.5,0.4-0.8,0.5c-0.2,0.1-0.3,0.2-0.4,0.3
	c-1.2,0.9-1.8,2.4-2.6,5.5c-0.1,0.4-0.5,2.3-0.7,2.9C4.9,35.9,4.6,37,4.2,38c-0.2,0.7-0.7,2.5-0.8,2.8c-0.2,0.6-0.3,0.8-0.4,1.1
	c-0.1,0.2-1.1,1.5-2.1,3L0,46.3V46l0.8-1.2c0.7-1,1.4-2.1,2.1-3c0,0.1,0.2-0.5,0.4-1c0.1-0.2,0.6-2,0.8-2.8c0.3-1,0.6-2,0.9-3.2
	c0.1-0.5,0.6-2.4,0.7-2.9c0.8-3.2,1.4-4.7,2.7-5.6c0.1-0.1,0.3-0.2,0.4-0.3c0.2-0.2,0.5-0.3,0.8-0.6l0.8-0.5c2-1.4,2.8-2.5,2.8-4.5
	c0-1.5,0.7-2.2,2.2-2.9c0.1-0.1,0.7-0.3,0.6-0.3c1.1-0.5,1.5-0.8,1.5-1.5c0-1.3,0.1-1.9,0.4-2.6c0.4-0.8,1.1-1.5,2.3-2.1
	c0.7-0.4,1.2-0.8,2.4-2c1-1.1,1.6-1.5,2.3-1.9c0.9-0.5,1.9-0.7,2.9-0.4c2.9,0.7,7.1,1.2,9,1.2c1,0,4.3-0.8,5.3-1.2
	c1.5-0.2,2.8-0.2,4.7,0s2.3,0.2,2.9,0.1c0.7-0.2,1-0.8,1-2C50.6,3,50.8,2,51.7,0L51.7,0z M55.9,0L55.9,0C56,0.9,56,1.9,56.1,3.2
	c0.1,1.6,0.1,2.4,0.1,3.6c0,1.6-0.8,2.9-2.2,3.9c-1.1,0.7-2.5,1.2-4.1,1.6c-0.6,0.1-1.6,0.1-3.8,0c-1.1,0-1.6,0-2.1,0
	s-0.8,0.1-1.3,0.2c-0.1,0-0.8,0.3-0.9,0.4c-1.1,0.4-2.3,0.6-4.1,0.6c-1.3,0-2.3-0.2-3.7-0.8l-0.5-0.2c-2.1-0.8-3.5-0.9-6.2,0.2
	c-1.9,0.7-3,1.5-3.7,2.5c-0.5,0.7-0.7,1.3-1,2.6c-0.2,1-0.3,1.5-0.6,2c-0.3,0.6-0.7,1-1.2,1.2c-0.4,0.2-0.7,0.2-1.6,0.4
	c-1.5,0.2-2.1,0.5-2.6,1.6c-0.6,1.4-1.3,2.3-2.4,3.3c-0.4,0.4-2.2,1.8-2.7,2.2c-1.4,1.2-2.3,2.9-3.1,5.3C8.2,34.4,8,35,7.9,35.6
	c0,0-0.4,1.3-0.5,1.7C6.2,42,4.6,46,3.2,47.4c-0.5,0.5-0.8,0.9-1.7,2.2c-0.6,0.8-1,1.4-1.5,1.8v-0.3c0.5-0.5,1-1.1,1.6-2
	c0.7-0.9,1.1-1.4,1.5-1.9c1.3-1.3,2.9-5.4,4.3-10.1c0.1-0.3,0.5-1.7,0.5-1.7c0.2-0.7,0.4-1.3,0.5-1.8c0.8-2.5,1.8-4.2,3.2-5.4
	c0.5-0.4,2.2-1.9,2.6-2.2c1.1-1,1.7-1.8,2.3-3.2c0.3-0.6,0.7-1.1,1.2-1.3c0.4-0.2,0.8-0.3,1.6-0.4c0.8-0.1,1.1-0.2,1.4-0.3
	c0.5-0.2,0.8-0.6,1.1-1.1c0.3-0.5,0.4-1,0.6-2c0.3-1.4,0.5-2,1-2.7c0.7-1,1.9-1.8,3.8-2.5c2.7-1.1,4.2-1,6.3-0.2l0.5,0.2
	c1.5,0.6,2.4,0.8,3.7,0.8c1.8,0,3-0.2,4.1-0.6c0.2-0.1,0.8-0.3,0.9-0.4c0.4-0.2,0.9-0.2,1.3-0.2c0.5,0,0.9,0,2.3,0
	c1.9,0,2.9,0,3.5,0c1.5-0.3,2.9-0.8,4-1.5c1.4-0.9,2.1-2.1,2.1-3.7c0-1.2,0-2-0.1-3.8C55.9,1.8,55.9,0.9,55.9,0z M15.6,0H16
	c-0.1,0.7-0.3,1.1-0.5,1.6c-0.4,0.7-0.5,1-0.9,2.2c-0.1,0.3-0.2,0.6-0.3,0.8c-0.4,0.8-1,1.5-2.2,2.4c-1.3,1-2.4,2.8-3.3,5.3
	c-0.4,1-1.5,4.3-1.6,4.7c-0.4,1.2-1.1,2.1-2.6,3.9l-0.4,0.5c-1,1.2-1.6,2-2,2.9C1.8,25.1,1,25.9,0,26.6v-0.4
	c0.9-0.7,1.5-1.4,1.8-2.1c0.4-0.9,1-1.7,2-2.9l0.4-0.5c1.5-1.8,2.1-2.7,2.5-3.8C7,16.4,8,13.2,8.5,12.1c1-2.6,2-4.3,3.4-5.4
	c1.2-0.9,1.7-1.5,2.1-2.3c0.1-0.2,0.2-0.4,0.3-0.8c0.4-1.2,0.5-1.5,0.9-2.2C15.4,1,15.6,0.5,15.6,0z M17.2,0h0.2
	c-0.3,1.4-0.5,2.1-0.8,2.5s-0.5,0.9-0.7,1.4s-0.4,1-0.6,1.6c-0.1,0.2-0.1,0.4-0.4,0.9c-0.7,0.7-1.5,1.5-2.1,2.2
	c-0.6,0.7-1,1.2-1.2,1.6c-0.2,0.3-0.3,1-0.6,2.2c-0.1,0.5-0.6,2.9-0.8,3.5c-0.6,2.7-1.1,4.4-1.6,5.3c-1.3,2.1-1.8,2.6-6.2,6.8
	c-0.7,0.7-1.5,1.3-2.4,1.8v-0.2c0.8-0.5,1.6-1.1,2.3-1.7c4.4-4.2,4.9-4.8,6.2-6.8c0.5-0.9,1-2.6,1.6-5.3c0.1-0.7,0.6-3,0.8-3.5
	c0.3-1.2,0.4-1.9,0.6-2.2c0.2-0.4,0.6-1,1.2-1.6C12.8,8.3,13,8.1,13.1,8c0.4-0.4,0.8-0.9,1.3-1.3c0.1-0.1,0.3-0.3,0.6-0.6
	c0.2-0.8,0.5-1.5,0.8-2.2C16,3.4,16.2,3,16.5,2.5C16.7,2.1,16.9,1.3,17.2,0L17.2,0z M14,0h0.2c-0.3,0.8-1,1.5-1.9,2
	C11,2.8,9.5,3.3,8.2,3.3c-1.5,0-2,1.2-2,3.6c0,0.3,0,0.5,0,1s0,0.7,0,1c0,1-0.1,1.9-0.3,2.7c-0.1,0.4-0.2,0.8-0.4,1.2
	c-0.4,0.9-0.8,1.8-1.2,2.6c-1.1,2.4-2.2,4.9-3.3,7.3c-0.3,0.6-0.6,1.2-1.1,1.8v-0.3c0.4-0.5,0.7-1,0.9-1.6c1.4-3.1,2.8-6.2,4.2-9.3
	c0.1-0.2,0.2-0.4,0.4-1C5.8,11.2,6,10,6,8.8c0-0.3,0-0.4,0-1c0-0.5,0-0.7,0-1c0-1.1,0.1-1.9,0.3-2.6C6.6,3.4,7.2,3,8.1,3
	c1.3,0,2.8-0.4,4-1.2C13,1.4,13.6,0.7,14,0L14,0z M61.1,0h0.2c0.3,1.7,0.4,2.1,0.4,3c0.2,1.5,0.2,3.1,0.1,4.6
	c-0.2,1.5-0.5,2.7-1.1,3.5c-1.9,2.7-6.6,4.9-11.1,4.9c-0.8,0-1.7,0-2.7,0.1c-1.4,0.1-2.7,0.3-4.1,0.5c-3.6,0.5-4.6,0.7-6.1,0.7
	c-1.2,0-2-0.2-3.6-0.6l-0.5-0.1c-0.2-0.1-0.4-0.1-0.6-0.2c-1.3-0.3-2.4-0.3-3.6,0.1c-0.7,0.2-1.2,0.7-1.5,1.4
	c-0.3,0.5-0.4,1-0.7,2.1c-0.2,1.1-0.4,1.6-0.7,2.1c-0.3,0.7-0.9,1.2-1.6,1.4c-0.5,0.2-1.1,0.4-1.6,0.6c-1.1,0.5-1.7,0.9-2.3,1.7
	c-0.2,0.3-0.2,0.2-0.9,1.3c-0.3,0.5-0.8,1-1.4,1.5c-0.3,0.3-1.8,1.5-2.1,1.8c-1.2,1.1-2.1,2-2.8,3.2c-0.7,1.2-1.3,3-1.9,5.5
	c-0.1,0.6-0.3,1.3-0.4,2l-0.2,1L10,43.2c-0.3,1.5-0.5,2.2-0.6,2.7c-1.1,3.4-2.9,7-4.5,8.5C4,55.2,3.5,55.6,3,55.9
	C2.9,56,2.7,56,2.6,56.1c-0.1,0-1.6,0.7-2.3,1.1L0,57.3v-0.2L0.1,57c0.8-0.3,2.3-1,2.4-1c0.2-0.1,0.3-0.2,0.5-0.3
	c0.5-0.3,1-0.7,1.8-1.5c1.6-1.5,3.3-5.1,4.5-8.5c0.2-0.5,0.3-1.2,0.6-2.7l0.2-0.9c0.2-1,0.4-2,0.6-3c0.6-2.5,1.2-4.4,1.9-5.6
	c0.7-1.2,1.6-2.2,2.8-3.2c0.4-0.3,1.8-1.5,2.1-1.8c0.6-0.5,1.1-1,1.4-1.5c0.7-1.1,0.7-1,0.9-1.3c0.6-0.8,1.2-1.3,2.4-1.8
	c0.4-0.2,1-0.4,1.6-0.6c0.7-0.2,1.2-0.7,1.5-1.3c0.3-0.5,0.4-1,0.7-2.2c0.2-1,0.4-1.6,0.7-2.1c0.3-0.7,0.9-1.2,1.6-1.4
	c1.3-0.5,2.3-0.5,3.7-0.1c0.2,0,0.4,0.1,0.6,0.2l0.6,0.2c1.4,0.4,2.3,0.6,3.4,0.6c1.4,0,2.4-0.1,6-0.7c1.4-0.2,2.7-0.4,4.1-0.5
	c1-0.1,1.9-0.1,2.7-0.1c4.4,0,9.1-2.1,10.9-4.8c0.6-0.8,0.9-2,1.1-3.4c0.1-1.3,0.1-2.7,0-4c0-0.3-0.1-0.6-0.1-0.9
	C61.4,2.1,61.4,1.7,61.1,0L61.1,0z M3.1,0h0.2C3,1.3,2.9,1.7,2.4,2.7C2.1,3.4,2,4.2,2,5.2c0,0.7,0.1,1.3,0.4,2.7
	c0.2,1,0.3,1.5,0.3,2c0.2,1.5,0,2.7-0.5,3.8c-0.7,1.5-1.4,3-2.2,4.5v-0.4c0.7-1.4,1.4-2.8,2.1-4.3c0.5-1.1,0.6-2.3,0.5-3.7
	c-0.1-0.6-0.1-1-0.3-2C2,6.5,1.9,5.9,1.8,5.2c0-1,0.1-1.8,0.4-2.6C2.7,1.7,2.8,1.2,3.1,0z M49.9,0c-0.2,0.6-0.5,1.3-0.8,1.9
	c-0.4,0.8-0.7,1.4-0.8,2l-0.1,0.3v0.2c0,0.1-0.1,0.2-0.1,0.3C47.9,4.9,47.7,5,47.2,5c0.2,0-1.6,0-2.5,0c-1.7,0-3.1,0.1-4.9,0.4
	c-2.8,0.4-3,0.5-3.9,0.4c-0.4,0-0.9-0.1-1.3-0.2c-2.9-0.7-7.7-1-9.1-0.5c-0.5,0.1-1,0.5-1.6,0.9c-0.4,0.3-0.7,0.6-1.1,0.9
	c-0.2,0.2-1.5,1.4-1.8,1.6c-0.2,0.2-1.4,1.2-1.5,1.3c-0.2,0.2-0.5,0.4-0.8,0.6c-0.8,0.7-1.5,1-2,1c-0.6,0-0.7,0-0.9-0.1
	s-0.2-0.3-0.2-0.6c0.1-0.6,0.7-1.8,2.1-4.1c0.9-1.6,1.6-3,2-4.4C20,1.6,20,1.2,20.2,0h0.2c-0.2,1.2-0.3,1.6-0.5,2.5
	c-0.4,1.4-1,2.8-2,4.4c-1.4,2.3-2,3.5-2.1,4.1c0,0.2,0,0.4,0.1,0.4s0.2,0.1,0.6,0c0.7,0,1.3-0.3,2.1-1c0.2-0.2,0.5-0.4,0.8-0.6
	c0.1-0.1,1.2-1.1,1.5-1.3C21,8.2,22.3,7,22.6,6.8c0.4-0.4,0.8-0.7,1.1-0.9c0.6-0.5,1.2-0.8,1.6-1c1.5-0.5,6.2-0.2,9.2,0.5
	c0.4,0.1,0.9,0.2,1.3,0.2c1,0,1.1,0,3.9-0.4c1.8-0.3,3.2-0.4,4.9-0.4c0.9,0,2.7,0,2.5,0c0.5,0,0.6,0,0.7-0.1c0-0.1,0.1-0.1,0.1-0.3
	V4.2L48,3.9c0.1-0.6,0.4-1.2,0.8-2c0.3-0.6,0.6-1.2,0.8-1.8L49.9,0L49.9,0z M48.5,0c-1,3-1.6,3.7-3.3,3.7c-0.7,0-1.7,0.1-4.8,0.2
	h-0.3c-2.6,0.2-3.9,0.2-4.8,0.2c-0.9,0-2.2-0.2-4.8-0.5h-0.3c-3.1-0.5-4-0.6-4.8-0.6c-0.7,0-1.2,0.2-1.8,0.6c0,0-0.3,0.2-0.4,0.2
	c-0.4,0.2-0.7,0.4-1.1,0.4c-0.5,0-0.7-0.2-0.7-0.7c0-0.2,0-0.4,0.1-0.7c0-0.1,0.1-0.7,0.2-0.9C21.9,1.2,22,0.6,22,0h0.3
	c0,0.6-0.1,1.2-0.2,2c0,0.2-0.2,0.7-0.2,0.9s-0.1,0.4-0.1,0.6c0,0.3,0.1,0.4,0.4,0.4s0.6-0.1,0.9-0.3c0.1,0,0.4-0.2,0.4-0.2
	c0.7-0.4,1.2-0.6,2-0.6s1.7,0.1,4.8,0.6h0.3c2.6,0.4,3.9,0.5,4.8,0.5c0.9,0,2.2-0.1,4.8-0.2h0.3c3.1-0.2,4-0.2,4.8-0.2
	c1.5,0,2-0.6,2.9-3.3h0.3C48.5,0.2,48.5,0,48.5,0z M23.6,0h0.2c-0.3,0.6-0.4,0.8-0.5,1c0,0.2,0.1,0.3,0.4,0.3s0.6,0.1,1.8,0.1
	c1,0,2.2,0.1,3.6,0.3c0.7,0.1,1.3,0.2,2.2,0.3c4,0.6,3.7,0.6,4.5,0.6c4,0,8.6-0.4,10.1-1.2C46.4,1.1,46.7,0.7,47,0h0.2
	c-0.3,0.7-0.7,1.3-1.2,1.6c-1.5,0.8-6.1,1.2-10.2,1.2c-0.7,0-0.5,0-4.5-0.6C30.4,2,29.7,1.9,29,1.9c-1.4-0.2-2.5-0.3-3.5-0.3
	c-1.2,0-1.5,0-1.8-0.1c-0.4-0.1-0.6-0.2-0.5-0.5C23.2,0.8,23.3,0.6,23.6,0L23.6,0z M36.3,0c0.9,0.3,1.7,0.4,2.3,0.4
	c1.6,0,2.8-0.1,3.7-0.4h0.5c-1,0.4-2.4,0.6-4.2,0.6c-0.7,0-1.7-0.2-2.9-0.6H36.3L36.3,0z M11.8,0c-0.5,0.5-1.2,0.9-2,1.1
	C9.1,1.2,8.5,1.3,7.6,1.3c-0.1,0-0.2,0-0.3,0C6.4,1.3,5.9,1,5.6,0.4c0-0.1-0.1-0.3-0.1-0.4h0.2c0,0.1,0,0.3,0.1,0.4
	C6,0.9,6.5,1.1,7.3,1.1h0.3c0.9,0,1.5,0,2.1-0.2c0.7-0.2,1.4-0.5,1.8-0.9L11.8,0L11.8,0z M0,34.6c1.2,0,1.9,0.6,1.9,1.9
	c0,1.9-0.8,4.7-1.9,6.9V43c1-2.1,1.7-4.7,1.7-6.5c0-1.2-0.6-1.7-1.7-1.7V34.6L0,34.6z M0,35.8c0.2,0,0.4,0.1,0.5,0.2
	c0.2,0.2,0.3,0.6,0.2,1.3v0.2c0,0.2-0.1,0.4-0.1,0.6c0,0.5-0.2,1.6-0.6,2.6v-0.6c0.2-0.9,0.4-1.6,0.4-2.1c0-0.2,0-0.3,0.1-0.7v-0.2
	c0.1-0.6,0-0.9-0.1-1.1c-0.1,0.1-0.2,0-0.4,0C0,36,0,35.8,0,35.8z M0,68.5v-0.2c0.2-0.2,0.4-0.5,0.5-0.8c0.2-0.4,0.4-1,0.8-2
	c1.3-3.9,1.3-4.4,0-5.1c-0.4-0.2-0.8-0.2-1.3-0.2V60c0.5-0.1,0.9,0,1.4,0.2c1.4,0.7,1.4,1.3,0,5.3c-0.3,0.9-0.5,1.5-0.8,2
	C0.5,67.9,0.3,68.2,0,68.5z M5.6,75.3c0.3,0,0.5,0,1.4-0.2L7.4,75c1.4-0.3,2.1-0.2,2.4,0.4c0.2,0.5-0.1,1-0.8,1.6
	c-0.3,0.2-0.6,0.5-0.8,0.7c-0.2,0.1-0.8,0.6-1,0.7c-0.3,0.2-0.5,0.4-0.6,0.5c-0.2,0.3-0.4,0.6-0.5,0.9c0,0-0.7,2.3-1.2,3.7
	c-0.4,1.3-0.9,1.8-1.5,1.4c-0.4-0.2-0.6-0.7-1.1-1.8c-0.3-0.8-0.4-1-0.6-1.2c-0.8-1.4-0.6-4,0-5.5c0.2-0.5,0.6-0.9,1.2-1
	c0.4-0.1,0.8-0.1,2-0.1L5.6,75.3L5.6,75.3z M5.6,75.7c-0.2,0-0.3,0-0.6,0c-2,0-2.5,0.1-2.8,0.9c-0.6,1.4-0.7,3.9,0,5.2
	C2.3,82,2.4,82.2,2.7,83c0.5,1,0.7,1.5,1,1.7s0.6-0.1,1-1.3c0.4-1.2,0.8-2.5,1.2-3.7c0.1-0.4,0.3-0.7,0.5-1c0.1-0.1,0.3-0.3,0.6-0.6
	c0.2-0.1,0.8-0.6,1-0.7c0.3-0.3,0.6-0.5,0.8-0.7c0.6-0.5,0.8-0.9,0.7-1.2c-0.2-0.4-0.8-0.4-2.1-0.2L7,75.4
	C6.1,75.6,5.9,75.7,5.6,75.7L5.6,75.7z M63.2,100c-0.6-2-0.6-2.4-0.6-3.2c0-0.6,0-1-0.1-1.9c-0.1-1.7-0.1-2.2,0-2.8
	c0.2-0.8,0.7-1.2,1.6-1.2h4.3c0.7,0,0.9,0.3,1,1.2c0,0.1,0,0.2,0,0.2c0.1,0.9,0.5,1.3,1.5,1.3c0.6,0,0.9,0.1,1.1,0.2
	c0.1,0.1,0.1,0.2,0.1,0.7c-0.1,0.9,0.1,1.5,1.2,2.3c1.1,0.7,1.9,0.9,2.8,0.6c0.6-0.3,1.1-0.7,2-1.7l0.2-0.2l0.2-0.2
	c0.1-0.2,0.3-0.3,0.4-0.5c0.5-0.5,1-0.8,1.6-1.1c0.3-0.1,0.3-0.1,0.9-0.4c1-0.5,1.5-0.7,2-1.3c0.4-0.5,0.8-0.8,1.1-1
	c0.5-0.3,0.9-0.4,2.3-0.4c1,0,1.8-0.7,3-2.5l0.5-0.7c0.2-0.2,0.3-0.4,0.5-0.6c1.3-1.7,3.2-1.7,5.1,0.2c0.9,0.9,1.7,3.2,2.3,6.4
	c0.4,2.3,0.7,4.9,0.7,6.6h-0.2c0-1.7-0.3-4.3-0.7-6.6c-0.6-3.1-1.3-5.4-2.2-6.3c-1.8-1.8-3.6-1.8-4.9-0.2c-0.1,0.2-0.3,0.4-0.5,0.6
	L90,88.2c-1.3,1.8-2.1,2.6-3.1,2.6c-1.3,0-1.7,0-2.2,0.3c-0.3,0.2-0.6,0.5-1.1,1s-1,0.8-2,1.3c-0.3,0.1-0.6,0.3-0.9,0.4
	c-0.6,0.3-1.1,0.6-1.6,1.1c-0.2,0.2-0.4,0.4-0.6,0.7l-0.2,0.2c-0.9,1-1.4,1.4-2,1.7c-0.9,0.4-1.8,0.2-2.9-0.6
	c-1.2-0.9-1.5-1.5-1.3-2.5c0.1-0.4,0.1-0.4,0-0.5s-0.4-0.2-0.9-0.2c-1.1,0-1.5-0.4-1.6-1.4v-0.2c-0.1-0.8-0.3-1-0.8-1h-4.3
	c-0.8,0-1.3,0.3-1.4,1.1c-0.1,0.6-0.1,1.1,0,2.8c0,0.6,0.1,1.3,0.1,1.9c0,0.8,0.1,1.1,0.6,3.2L63.2,100L63.2,100z M65.5,100
	c-0.2-1.1-0.3-1.8-0.2-2.5c0-0.1,0-0.2,0-0.4v-0.4c0.1-0.6,0.1-1.2,0.1-1.9c0-0.8,0.2-1.3,0.7-1.4c0.4-0.1,0.9,0.1,1.5,0.5
	c1.1,0.8,2.3,2.2,2.8,3.2c0.8,1.9,2.4,2.6,5.6,2.6c1.4,0,2.4-0.4,3.4-1.3c0.2-0.2,2.5-2.5,3.5-3.3c1.2-1,2-1.3,3.4-1.4
	c0.9-0.1,1.3-0.2,1.9-0.4c0.8-0.3,1.6-0.9,2.5-1.9c1.2-1.3,2.2-1.5,2.9-0.7c0.6,0.6,0.9,1.8,1.1,3.4c0.1,0.9,0.2,1.3,0.3,2.9
	c0,0.6,0,0.9-0.2,3h-0.2c0.2-2.1,0.2-2.4,0.2-3c-0.1-1.6-0.1-2-0.3-2.9c-0.2-1.6-0.6-2.7-1.1-3.3c-0.6-0.7-1.5-0.5-2.7,0.7
	c-0.9,1-1.8,1.6-2.5,1.9c-0.6,0.3-1,0.3-1.9,0.4c-1.5,0.1-2.2,0.4-3.4,1.3c-1,0.8-3.2,3.1-3.5,3.3c-1.1,0.9-2.1,1.4-3.6,1.4
	c-3.3,0-4.9-0.7-5.7-2.7c-0.4-1-1.6-2.4-2.7-3.1c-0.6-0.4-1.1-0.6-1.4-0.5c-0.4,0.1-0.6,0.5-0.6,1.2s0,1.2-0.1,1.9V97
	c0,0.2,0,0.3,0,0.4C65.3,98.1,65.3,98.8,65.5,100L65.5,100L65.5,100z M84.4,100c0.4-0.5,1.5-2,1.8-2.4c0.9-1.2,2.2-2.1,3.2-2.3
	c1.2-0.3,1.9,0.2,1.9,1.5c0,0.7,0,0.9-0.1,3.2H91c0.1-2.3,0.1-2.5,0.1-3.2c0-1.2-0.6-1.6-1.7-1.4c-1,0.2-2.2,1.1-3.1,2.3
	c-0.3,0.4-1.3,1.7-1.7,2.3H84.4L84.4,100z M82.8,43.5c0.6,0.5,1.2,0.8,1.9,1.3c0.2,0.1,1.4,0.8,1.7,1c1.9,1.2,2.5,2.2,2.1,4.2
	c-0.2,1.1-0.8,1.8-1.6,2.4c-0.6,0.4-1.3,0.7-2.7,1.1c-2,0.6-2.3,0.7-3.1,1c-0.5,0.2-0.9,0.4-1.3,0.7c-1.9,1.2-3.2,1.3-4.7,0.5
	c-0.6-0.3-2.9-1.8-2.9-1.8c-0.3-0.2-0.6-0.3-0.9-0.5c-2.7-1.5-5.7-4-5.8-5.3c0-0.6,0.3-1.1,1-1.7c0.2-0.1,0.4-0.3,0.6-0.5
	c0.1-0.1,0.6-0.4,0.7-0.5c0.7-0.6,1.2-1,1.6-1.4c1.9-2.3,4.4-4.8,5.7-5.4c2-0.9,3.3-1,4.6,0c0.5,0.4,0.9,1.1,1.4,2.2
	c0,0.1,0.4,0.9,0.5,1.1c0.3,0.6,0.5,1,0.7,1.2C82.6,43.3,82.7,43.4,82.8,43.5L82.8,43.5z M82.2,43.5c-0.3-0.2-0.5-0.6-0.8-1.3
	c-0.1-0.2-0.4-1-0.5-1.1c-0.5-1.1-0.8-1.7-1.3-2.1c-1.1-0.9-2.3-0.9-4.2,0c-1.2,0.6-3.8,3-5.6,5.3c-0.4,0.5-0.8,0.9-1.6,1.5
	l-0.7,0.5c-0.2,0.2-0.4,0.3-0.6,0.5c-0.6,0.6-0.9,1-0.9,1.4c0,1.1,3,3.6,5.6,5c0.3,0.2,0.6,0.3,0.9,0.5c0,0,2.3,1.5,2.8,1.8
	c1.4,0.7,2.6,0.6,4.3-0.5c0.4-0.3,0.9-0.5,1.3-0.7c0.9-0.4,1.2-0.5,3.2-1.1c1.3-0.4,2-0.6,2.6-1c0.7-0.5,1.2-1.2,1.4-2.2
	c0.4-1.8-0.1-2.8-1.9-3.9c-0.3-0.2-1.5-0.9-1.7-1c-0.7-0.4-1.4-0.9-1.9-1.3C82.5,43.7,82.3,43.6,82.2,43.5L82.2,43.5z M14.6,40.3
	c0.7-0.5,1.3-0.8,2-1.2c0.1-0.1,0.3-0.1,0.5-0.2l0.7-0.3c1-0.4,2-0.9,3-1.5c1.5-0.9,3.1-1.7,4.6-2.4c0.7-0.3,3.6-1.6,3.5-1.6
	c3.2-1.4,4.7-1.2,8.2,1.3c1.3,0.9,2.2,2.2,2.7,3.8c0.5,1.5,0.6,2.8,0.6,4.6c0,1.4-0.1,2.2-0.6,3.2c-0.7,1.4-2,2.7-4.3,3.9
	c-4.1,2.2-6.5,4.6-8.8,8c-1.5,2.1-8,7.4-10.9,9c-3.5,2-7.9,3.7-10.9,3.7c-1.7,0-2.4-0.8-2.5-2.2c0-1.1,0.3-2.3,1-4.1
	c0.5-1.2,0.3-2.1-0.4-3.7c-0.5-1.2-0.6-1.5-0.6-2.1s0.3-1.1,0.9-1.8c0.4-0.5,0.6-0.6,2-1.9C6.5,54,7,53.5,7.4,52.9
	c1.6-1.9,2.1-3.2,3-7.5c0.5-2.5,1.1-3.4,2.5-4.2c0.1-0.1,0.7-0.4,0.8-0.4C14,40.7,14.3,40.5,14.6,40.3L14.6,40.3z M14.7,40.4
	c-0.3,0.2-0.6,0.4-0.9,0.6L13,41.4c-1.4,0.8-1.9,1.6-2.4,4.1c-0.9,4.2-1.4,5.6-3,7.5c-0.4,0.5-0.9,1-1.8,1.8c-1.4,1.3-1.5,1.4-2,1.9
	c-0.6,0.7-0.9,1.2-0.9,1.7s0.1,0.8,0.6,2C4.2,62,4.4,63,3.9,64.2c-0.7,1.7-1,3-1,4c0,1.3,0.7,2.1,2.3,2.1c2.9,0,7.3-1.6,10.8-3.7
	c2.9-1.6,9.3-6.9,10.8-9c2.3-3.4,4.8-5.8,8.9-8c2.2-1.2,3.5-2.5,4.2-3.8c0.5-1,0.6-1.7,0.6-3.1c0-1.9-0.1-3.1-0.6-4.6
	s-1.4-2.8-2.7-3.7c-3.5-2.5-4.9-2.7-8.1-1.3c0.1-0.1-2.8,1.3-3.5,1.6c-0.3,0.1-0.5,0.3-0.8,0.4c-1.3,0.6-2.6,1.3-3.8,2
	c-1,0.6-2,1.1-3,1.5l-0.7,0.3C17.1,39,17,39,16.8,39.1C16,39.6,15.3,40,14.7,40.4z M13.4,42.4c1.3-1,2-1.4,3.9-1.9
	c1-0.3,1.5-0.5,2.1-1s1.2-0.8,2.6-1c0.5-0.1,0.6-0.1,0.8-0.2c0.9-0.2,1.6-0.5,2.2-1c1.7-1.4,4.2-2.4,6.1-2.4c0.9,0,2.8,1.3,4.3,2.9
	c1.8,1.9,2.7,3.9,2.1,5.4c-0.5,1.5-1.9,3.1-3.8,4.6c-1.4,1.1-3.1,2.2-4.2,2.7c-0.6,0.3-1.1,0.8-1.6,1.7c-0.1,0.2-1.8,3.4-2.7,4.6
	c-0.9,1.4-2.6,2.9-5,4.7c-0.5,0.4-1,0.7-1.5,1.1c0,0-1.1,0.8-1.4,1c-1.1,0.7-1.7,1.2-2.2,1.6c-1.9,1.8-6.2,2.6-7.3,1.5
	c-0.3-0.3-0.4-0.7-0.3-1.8c0.1-1.6-0.1-2.4-0.8-3.4c-0.3-0.4-0.7-0.8-1.2-1.2c-0.7-0.5-1-1-1.1-1.6c-0.2-1.1,0.6-2.2,2.4-3.6
	c0.3-0.2,1.1-0.9,1.2-1c0.3-0.2,0.6-0.5,0.9-0.8c0.7-0.8,1-1.6,1.3-3.3c0-0.2,0.1-0.5,0.1-0.7c0.1-0.3,0.1-0.5,0.1-0.8
	c0.1-0.6,0.2-1.2,0.4-1.8s0.2-0.9,0.4-1.7c0.1-0.5,0.2-0.7,0.3-0.9C11.6,43.9,11.6,43.9,13.4,42.4L13.4,42.4z M13.6,42.6
	c-1.8,1.5-1.8,1.5-2,1.8c-0.1,0.2-0.1,0.4-0.2,0.9c-0.2,0.8-0.2,1.1-0.4,1.7c-0.1,0.6-0.3,1.1-0.4,1.8c-0.1,0.4-0.1,0.8-0.2,1.2
	l-0.1,0.4C10,52.2,9.7,53,9,53.8c-0.4,0.2-0.7,0.5-1,0.7c-0.1,0.1-0.9,0.7-1.2,1c-1.7,1.4-2.5,2.4-2.3,3.5c0.1,0.5,0.4,1,1,1.5
	c0.5,0.4,0.9,0.8,1.2,1.2c0.8,1,0.9,1.9,0.9,3.5c0,1,0,1.3,0.3,1.6c1,1,5.2,0.2,7.1-1.5c0.5-0.4,1.1-0.9,2.2-1.7l1.4-1
	c0.6-0.4,1.1-0.7,1.5-1.1c2.5-1.8,4.1-3.2,5-4.6c0.8-1.3,2.6-4.4,2.7-4.6c0.5-0.9,1-1.4,1.7-1.7c1.1-0.6,2.8-1.6,4.2-2.7
	c1.9-1.5,3.3-3.1,3.8-4.6s-0.3-3.4-2.1-5.2c-1.5-1.6-3.3-2.8-4.2-2.8c-1.8,0-4.2,0.9-5.9,2.3c-0.6,0.5-1.3,0.8-2.2,1
	c-0.2,0.1-0.4,0.1-0.9,0.2c-1.4,0.3-2,0.5-2.6,1s-1.1,0.7-2.1,1C15.6,41.2,14.8,41.5,13.6,42.6L13.6,42.6z M35.3,42
	c0,1.3-0.1,1.8-0.4,2.4c-0.2,0.3-1.3,1.7-1.4,1.9c-1,1.3-1.6,1.7-2.9,2.3c-0.2,0.1-0.4,0.2-0.5,0.2c-0.1,0.1-0.2,0.1-0.3,0.2
	c-0.1,0.1-0.7,0.3-0.9,0.4c-1,0.5-1.5,1-1.5,1.8c0,1.8-3.2,6-5.8,7.5c-1.4,0.8-3.5,1.6-5.5,2c-2.2,0.5-3.7,0.4-4.1-0.4
	c-0.2-0.5-0.7-0.7-2-1H9.9c-0.8-0.2-1.2-0.3-1.5-0.4c-0.5-0.2-0.7-0.6-0.7-1.1s0.2-1,0.5-1.6c0.1-0.3,0.3-0.5,0.5-0.9
	c0,0,0.5-0.7,0.6-1c1.1-1.8,1.6-3.1,1.6-4.5c0-3.1,1.9-5.6,4.6-7.1c0.9-0.5,1.5-0.6,2.5-0.4c0.8,0.2,1,0.1,1.2-0.3
	c0.7-1.3,1.2-1.6,2.6-1.6c0.7,0,1.2-0.2,1.7-0.5c0.3-0.2,1.4-1,1.8-1.3c1.5-1,1.9-1.2,4.2-2c1.2-0.4,2.5,0.2,3.7,1.5
	C34.6,39.2,35.3,40.8,35.3,42L35.3,42z M35,42c0-1.1-0.7-2.6-1.7-3.7c-1.1-1.2-2.4-1.8-3.4-1.4c-2.3,0.8-2.6,1-4.1,2
	c-0.4,0.2-1.6,1.1-1.8,1.3c-0.6,0.4-1.2,0.6-1.9,0.6c-1.3,0-1.7,0.2-2.4,1.4c-0.2,0.3-0.4,0.5-0.7,0.5c-0.2,0-0.3,0-0.9-0.1
	c-0.9-0.2-1.5-0.1-2.3,0.3c-2.6,1.5-4.4,3.9-4.4,6.9c0,1.5-0.5,2.9-1.7,4.7l-0.6,1c-0.2,0.4-0.4,0.6-0.5,0.9C8.2,56.8,8,57.3,8,57.6
	c0,0.7,0.5,0.9,2,1.3h0.1c1.4,0.3,1.9,0.5,2.2,1.2c0.5,1.2,6,0,9.1-1.7c2.5-1.4,5.6-5.5,5.6-7.2c0-1,0.6-1.6,1.7-2.1
	c0.2-0.1,0.8-0.3,0.9-0.4c0.1-0.1,0.2-0.1,0.3-0.2c0.2-0.1,0.3-0.2,0.5-0.3c1.3-0.6,1.8-0.9,2.7-2.2c0.2-0.2,1.2-1.6,1.4-1.9
	C34.9,43.7,35,43.2,35,42L35,42z M28.8,38.2c0,0,0.4-0.3,0.5-0.3c0.2-0.1,0.3-0.2,0.4-0.2c0.4-0.1,0.8,0,1.8,0.5
	c2.5,1.3,3.2,3.8,1.5,6.5c-0.7,1-1.6,1.5-3.1,1.9c-0.1,0-0.2,0-0.5,0.1c-1,0.2-1.5,0.3-1.9,0.6c-0.6,0.3-1,0.8-1.2,1.6
	c-1.3,4.2-3.3,7.2-6,8.4c-2.7,1.2-3.5,1.4-4.7,1.5c-0.8,0-1.6-0.1-2.6-0.5c-0.3-0.1-0.6-0.3-0.9-0.4c-0.7-0.4-0.9-0.8-0.7-1.6
	c0-0.4,0.6-2.6,0.8-3.4c0.1-0.5,0.2-1,0.3-1.6c0.1-0.5,0.2-1,0.2-1.5c0.2-1.6,0.4-2.4,0.7-3.1c0.4-0.9,1-1.5,2-1.9
	c1.1-0.4,1.8-0.5,3-0.6c0.8,0,1.1-0.1,1.5-0.3c0.1-0.1,0.2-0.1,0.3-0.2c0.2-0.2,0.4-0.4,0.6-0.6c0.1-0.1,0.4-0.5,0.4-0.5
	c0.6-0.7,1-0.9,2.1-0.9c0.7,0,1-0.2,1.4-0.6c0,0,0.5-0.5,0.6-0.7c0.3-0.3,0.7-0.6,1.1-0.8c0.2-0.1,0.5-0.3,0.8-0.4
	C27.7,38.9,28.3,38.6,28.8,38.2L28.8,38.2z M26.4,39.6c-0.4,0.2-0.8,0.5-1.1,0.8c-0.2,0.2-0.4,0.5-0.6,0.7c-0.4,0.4-0.8,0.6-1.5,0.6
	c-1,0-1.4,0.2-1.9,0.9c0,0-0.3,0.4-0.4,0.5c-0.2,0.2-0.4,0.4-0.6,0.6c-0.1,0.1-0.2,0.2-0.3,0.2c-0.4,0.3-0.8,0.3-1.6,0.4
	c-1.2,0.1-1.9,0.2-3,0.6c-0.9,0.3-1.5,0.9-1.9,1.8c-0.3,0.7-0.5,1.5-0.7,3.1l-0.1,0.7l-0.1,0.8c-0.1,0.6-0.2,1.1-0.3,1.6
	c-0.2,0.9-0.8,3.1-0.8,3.4c-0.1,0.7,0.1,1,0.7,1.4c0.2,0.1,0.5,0.3,0.9,0.4c0.9,0.4,1.7,0.5,2.5,0.5c1.1-0.1,1.9-0.3,4.6-1.5
	c2.7-1.1,4.7-4.2,6-8.3c0.2-0.8,0.7-1.3,1.3-1.7c0.5-0.3,1-0.4,2-0.6c0.3-0.1,0.4-0.1,0.5-0.1c1.5-0.3,2.4-0.8,3-1.8
	c1.7-2.6,0.9-4.9-1.5-6.2c-1-0.5-1.3-0.6-1.7-0.5c-0.1,0-0.2,0.1-0.4,0.2c-0.1,0.1-0.5,0.3-0.5,0.3c-0.5,0.3-1.1,0.6-1.7,0.9
	C26.9,39.4,26.6,39.5,26.4,39.6L26.4,39.6z M19.3,45.1c2.7-0.5,4.4-0.2,5.4,1c0.8,1,0.2,3.6-1,5.9c-0.8,1.6-1.8,2.7-3.9,4.2
	c-2.4,1.7-5.9,2-6.8,0.6c-0.3-0.5-0.3-1.4-0.2-2.6c0.1-0.9,0.3-1.8,0.8-3.8v-0.1c0.3-1.1,0.4-1.7,0.5-2.4c0.2-1.2,0.6-1.9,1.2-2.3
	c0.5-0.3,0.9-0.4,2.1-0.4C18.4,45.2,18.8,45.2,19.3,45.1L19.3,45.1z M19.3,45.2c-0.5,0.1-0.9,0.1-1.8,0.2c-1.1,0.1-1.5,0.1-2,0.4
	c-0.5,0.3-0.9,1-1.1,2.2c-0.1,0.6-0.3,1.2-0.5,2.4v0.1c-0.5,2-0.7,2.9-0.8,3.8c-0.2,1.2-0.1,2.1,0.1,2.5c0.8,1.3,4.3,0.9,6.5-0.7
	c2.1-1.5,3-2.6,3.8-4.1c1.1-2.3,1.8-4.8,1-5.7C23.6,45.1,22,44.8,19.3,45.2z M22,46.1c1.2,0,1.8,0.5,1.9,1.4
	c0.1,0.7-0.1,1.4-0.5,2.7c-0.4,1.4-3.1,4.2-4.5,5.2c-1.2,0.8-3.3,0.9-4.4,0.2c-0.7-0.5-0.6-2,0-4.4c0.1-0.5,0.2-0.9,0.4-1.5
	s0.3-1.1,0.5-1.7l0.1-0.2c0.2-0.8,0.8-1.3,1.8-1.5c0.7-0.2,1.6-0.2,2.9-0.2h0.6C21.4,46.1,21.7,46.1,22,46.1z M22,46.3
	c-0.3,0-0.6,0-1.2,0h-0.6c-1.3,0-2.2,0-2.9,0.2c-0.9,0.2-1.4,0.7-1.7,1.4c-0.1,0.3-0.2,0.6-0.3,0.9c-0.1,0.4-0.2,0.7-0.3,1
	c-0.1,0.5-0.3,1-0.4,1.5C14,53.5,14,55,14.5,55.4c1,0.7,3.1,0.6,4.2-0.2c1.4-1,4.1-3.7,4.5-5.1c0.4-1.3,0.5-2,0.5-2.6
	C23.6,46.7,23.1,46.3,22,46.3L22,46.3z M19,47.4c0.5,0,1,0.1,1.4,0.2c0.9,0.3,1.5,0.8,1.5,1.7c0,1.6-1.6,2.9-3.7,3.6
	c-1.6,0.5-2.3-0.3-1.9-2.8c0.1-1,0.6-1.8,1.4-2.2C18.1,47.6,18.5,47.5,19,47.4z M18.9,47.6c-0.4,0.1-0.9,0.2-1.2,0.5
	c-0.7,0.4-1.2,1.1-1.3,2.1c-0.3,2.4,0.2,3.1,1.7,2.6c2.1-0.7,3.6-1.9,3.6-3.4c0-0.8-0.5-1.2-1.3-1.5c-0.4-0.1-0.9-0.2-1.4-0.2
	C19,47.6,19,47.6,18.9,47.6z M32.4,43.7c-0.5,1.6-2.5,1.6-4.5,0.5c-1.7-0.9-2.3-3-0.8-3.8c0.3-0.1,0.5-0.3,0.7-0.4l0.3-0.2
	c0.2-0.1,0.4-0.3,0.7-0.4c0.8-0.4,1.5-0.5,2.3-0.1C32.7,39.9,33,41.5,32.4,43.7L32.4,43.7z M28.9,39.5c-0.2,0.1-0.4,0.2-0.6,0.4
	L28,40.1c-0.1,0.1-0.2,0.2-0.4,0.2c-0.1,0.1-0.3,0.2-0.4,0.2c-1.3,0.7-0.8,2.6,0.8,3.5c1.9,1,3.8,1,4.2-0.4c0.6-2.1,0.3-3.7-1.1-4.2
	C30.3,39.1,29.7,39.1,28.9,39.5L28.9,39.5z M31.9,41.6c0,0.9-0.4,1.5-1.1,1.7c-0.5,0.1-1.3,0-1.8-0.3l-0.3-0.2
	c-0.1-0.1-0.2-0.1-0.3-0.1c-0.7-0.4-0.7-0.8,0.1-1.8C29.6,39.3,31.9,39.6,31.9,41.6L31.9,41.6z M31.7,41.6c0-0.9-0.5-1.4-1.2-1.5
	s-1.5,0.2-2,0.9c-0.7,0.9-0.7,1.2-0.1,1.6c0.1,0,0.2,0.1,0.3,0.1l0.3,0.2c0.6,0.3,1.2,0.4,1.7,0.3C31.4,42.9,31.7,42.4,31.7,41.6
	L31.7,41.6z M64.5,88.4c0-2.1,0.4-2.8,3.1-5c0.4-0.3,0.8-0.6,1.3-0.9c0.4-0.2,0.9-0.5,1.4-0.7c0.2-0.1,0.4-0.2,0.7-0.3l0.7-0.3
	c1.6-0.6,2.3-1.1,2.8-2c0.2-0.4,0.4-0.7,0.5-1.1c0.1-0.2,0.2-0.4,0.3-0.6v-0.1l0.1-0.2c0.5-1.3,1-2,2.1-2.7c0.3-0.2,0.6-0.4,0.8-0.7
	c0.2-0.2,0.4-0.5,0.6-0.7c0-0.1,0.4-0.5,0.5-0.7c0.6-0.7,1.1-1,1.9-1c0.5,0,0.9-0.1,1.6-0.3c0.9-0.3,1.1-0.4,1.5-0.4
	s0.8,0.2,1.2,0.6c0.2,0.2,0.9,1,1.1,1.1c0.8,0.8,1.6,1.2,3,1.2c0.7,0,1.3,0,2,0.1c2.7,0.1,3.7,0.1,4.2-0.4c1.2-1,1.9-0.5,1.9,1.3
	s-1.4,3.3-3.2,3.3c-0.8,0-1.4,0.2-1.6,0.6s0.1,1,1,1.8c2.3,1.9,1.9,3.5-1.3,3.5c-0.9,0-1.8,0.3-2.4,0.9c-0.5,0.5-1,1-1.6,2l-0.3,0.4
	c-0.5,0.8-0.8,1.2-1.2,1.6c-1,1-1.5,1.3-2.2,1.1h-0.2c-0.1,0-0.3-0.1-0.4-0.1c-0.3,0-0.4,0.1-1.4,1c-0.8,0.8-1.3,1.1-2,1.1
	c-0.2,0-0.6,0.2-1.1,0.6c-0.2,0.2-0.4,0.4-0.7,0.6l-0.8,0.7c-0.2,0.2-0.5,0.4-0.8,0.6C76,95.6,75,96,74.2,95.4
	c-0.4-0.4-0.7-0.8-0.8-1.2c-0.1-0.3,0-0.6,0-1.2c0.1-1,0.1-1.4-0.3-1.9s-0.5-0.5-0.6-0.4c0,0-0.2,0.3-0.3,0.3
	c-0.4,0.4-0.8,0.6-1.5,0.5c-0.8-0.1-0.9-0.7-0.8-1.7v-0.3c0.1-0.6,0.1-0.8,0-1c-0.1-0.1-0.3-0.2-0.9,0.1h-0.1
	c-2.3,0.9-2.5,1-3.2,1.1C65,89.8,64.5,89.4,64.5,88.4L64.5,88.4z M64.8,88.4c0,0.8,0.4,1.1,1.2,1c0.7-0.1,0.9-0.2,3.2-1.1h0.1
	c0.7-0.3,1.1-0.3,1.3,0.1c0.1,0.2,0.1,0.5,0,1.2v0.3c-0.1,0.8,0,1.2,0.5,1.3c0.6,0.1,0.9,0,1.2-0.4c0,0,0.2-0.3,0.3-0.3
	c0.3-0.3,0.6-0.2,1.1,0.4s0.5,1.1,0.4,2.2c-0.2,1.1-0.1,1.6,0.6,2.1c0.6,0.5,1.5,0.1,2.9-1.1c0.2-0.2,0.5-0.4,0.7-0.6l0.8-0.7
	c0.3-0.3,0.5-0.5,0.8-0.6c0.6-0.4,1-0.6,1.3-0.6c0.5,0,1-0.3,1.7-1l0.4-0.4c0.2-0.1,0.3-0.3,0.4-0.4c0.3-0.2,0.5-0.4,0.8-0.4
	c0.2,0,0.3,0,0.5,0.1c0.1,0,0.1,0,0.2,0c0.5,0.1,0.9-0.1,1.9-1.1c0.4-0.4,0.7-0.8,1.2-1.5l0.3-0.4c0.7-1,1.1-1.6,1.7-2
	c0.7-0.6,1.7-1,2.6-0.9c2.8,0,3.1-1.2,1.1-2.9c-1-0.8-1.4-1.6-1.1-2.2c0.2-0.5,0.9-0.8,1.9-0.8c1.5,0,2.8-1.4,2.8-3
	c0-1.5-0.5-1.8-1.4-1c-0.7,0.5-1.7,0.6-4.4,0.4h-0.2c-0.8,0-1.3-0.1-1.8-0.1c-1.5,0-2.3-0.4-3.2-1.2c-0.2-0.2-0.9-0.9-1.1-1.1
	c-0.3-0.3-0.6-0.5-1-0.5c-0.3,0-0.5,0-1.4,0.3c-0.7,0.3-1.1,0.4-1.7,0.4c-0.7,0-1.1,0.2-1.7,0.9c-0.1,0.1-0.5,0.6-0.5,0.7
	c-0.2,0.3-0.4,0.5-0.7,0.7c-0.3,0.3-0.6,0.5-0.9,0.7c-1,0.7-1.5,1.3-2,2.6l-0.1,0.2v0.1c-0.1,0.2-0.2,0.4-0.3,0.6
	c-0.2,0.4-0.3,0.8-0.6,1.2c-0.5,1-1.3,1.5-2.9,2.2L71,82.1c-0.3,0.1-0.5,0.2-0.7,0.3c-0.5,0.2-0.9,0.4-1.4,0.7
	c-0.4,0.2-0.8,0.5-1.2,0.8C65.2,85.8,64.8,86.4,64.8,88.4L64.8,88.4z M87,75.1c0.5,0.3,1.1,0.3,1.8,0.3c0.4,0,0.8-0.1,1.5-0.2
	c0.9-0.2,1.1-0.2,1.4-0.3c0.5,0,0.8,0,1,0.2c0.3,0.2,0.3,0.5,0.2,0.7c-0.1,0.2-0.2,0.3-0.8,0.8c-0.6,0.5-0.8,0.8-0.8,1.2
	c0,1.2,0.2,1.7,1.3,2.6c0.6,0.5,1,1.1,0.9,1.6s-0.8,0.8-2.1,0.8c-1.2,0-2.1,0.8-3.3,2.4c-0.1,0.1-0.7,0.9-0.8,1.1
	c-0.2,0.3-0.5,0.6-0.8,0.9c-0.2,0.2-0.3,0.3-0.5,0.4C85.4,88,85,88,84.2,88c-1.3,0-1.8,0.2-2.5,1.2c-0.3,0.4-0.5,0.7-0.8,0.9
	c-0.4,0.4-0.9,0.8-1.4,1.1c0,0-1.8,1-2.5,1.5c-0.6,0.4-1.1,0.3-1.4-0.1c-0.2-0.3-0.3-0.8-0.5-1.7c-0.1-0.8-0.2-1.2-0.3-1.5
	c-0.2-0.4-0.4-0.5-0.7-0.5c-1,0.2-1.5,0.2-1.8,0c-0.4-0.2-0.5-0.8-0.4-1.8c0-0.3-0.2-0.5-0.6-0.5s-0.8,0-1.7,0.2h-0.1
	c-1.3,0.2-1.8,0.3-2.1,0.1c-0.5-0.2-0.3-0.9,0.7-2c0.9-1.1,1.8-1.8,2.6-2.3c0.6-0.3,1-0.4,2-0.7c1.2-0.3,1.7-0.6,2.3-1.6
	c0.5-0.8,1.8-3.1,2-3.5c0.6-0.9,1.1-1.5,1.8-1.9c0.4-0.2,0.8-0.5,1.5-1l0.2-0.2c1.3-1,2-1.3,2.9-1.3c0.7,0,1.1,0.2,1.5,0.8
	c0.1,0.1,0.3,0.4,0.3,0.4c0.1,0.2,0.3,0.3,0.4,0.5C86.2,74.6,86.6,74.9,87,75.1L87,75.1z M87,75.2c-0.5-0.2-0.8-0.5-1.2-0.8
	c-0.1-0.1-0.3-0.3-0.4-0.5c-0.1-0.1-0.3-0.4-0.3-0.4c-0.4-0.5-0.7-0.7-1.4-0.7c-0.8,0-1.6,0.4-2.8,1.3l-0.2,0.2
	c-0.7,0.5-1.1,0.8-1.5,1c-0.7,0.4-1.2,0.9-1.8,1.8c-0.2,0.4-1.5,2.7-2,3.5c-0.6,1-1.2,1.3-2.4,1.6c-1,0.2-1.4,0.3-2,0.7
	c-0.8,0.4-1.7,1.1-2.6,2.2s-1.1,1.6-0.8,1.8c0.3,0.1,0.7,0.1,2-0.1h0.1c0.9-0.2,1.3-0.2,1.7-0.2c0.5,0,0.8,0.2,0.8,0.7
	c-0.1,1,0,1.4,0.4,1.6c0.3,0.2,0.7,0.1,1.7-0.1c0.4-0.1,0.7,0.1,0.9,0.6c0.1,0.3,0.2,0.7,0.3,1.5V91c0.2,0.9,0.3,1.4,0.5,1.7
	c0.2,0.4,0.6,0.4,1.1,0.1c0.7-0.4,2.4-1.5,2.5-1.5c0.5-0.3,1-0.7,1.4-1.1c0.3-0.3,0.5-0.6,0.8-0.9c0.7-1,1.3-1.2,2.6-1.2
	c0.8,0,1.1-0.1,1.6-0.3c0.2-0.1,0.3-0.2,0.5-0.3c0.3-0.3,0.5-0.6,0.8-0.9c0.2-0.2,0.7-1,0.8-1.1c1.2-1.7,2.2-2.5,3.5-2.5
	c1.2,0,1.8-0.3,1.9-0.7c0.1-0.4-0.2-0.9-0.8-1.4c-1.1-1-1.4-1.5-1.4-2.7c0-0.4,0.3-0.8,0.9-1.3s0.7-0.6,0.8-0.8
	c0.1-0.2,0-0.3-0.2-0.5c-0.4-0.3-0.8-0.3-2.3,0.1c-0.7,0.1-1.1,0.2-1.5,0.3C88.1,75.6,87.5,75.5,87,75.2L87,75.2z M82.3,74.6
	c0.9-0.5,1.5-0.4,2.1,0.2c0.1,0.1,0.4,0.4,0.5,0.5c0.7,0.6,1.3,1,2.4,1c1.9,0,2.3,0.2,2.7,1.3c0,0.1,0.2,0.8,0.3,0.9
	c0.1,0.4,0.3,0.8,0.4,1.3c0.4,0.9,0.4,1.4,0.3,1.7c-0.1,0.3-0.3,0.4-0.9,0.5c-0.4,0.1-0.5,0.1-0.6,0.1c-0.3,0.1-0.6,0.2-0.8,0.4
	c-0.2,0.2-0.3,0.4-0.6,0.6c-0.1,0.1-0.5,0.6-0.6,0.7c-1.2,1.4-2.1,2.1-3.3,2.1c-0.6,0-1.2,0.2-1.8,0.7c-0.3,0.2-1.9,1.7-2.5,2.2
	c-0.5,0.4-1,0.7-1.5,1c-0.8,0.4-1.2,0.5-1.5,0.4c-0.2-0.1-0.3-0.3-0.3-0.9c0-0.1,0-0.2,0-0.3c-0.1-0.8-0.4-1.1-1.2-1.1
	c-1.2,0-1.5-0.2-1.6-0.9c-0.2-0.8-0.3-1.1-1.1-1.6C72,85,72,84.5,72.4,84c0.3-0.3,0.8-0.6,1.9-1.1s1.5-0.8,1.8-1.1
	c0.3-0.3,0.6-0.7,0.9-1.1c0.2-0.3,0.3-0.5,0.5-0.9L78,79c0.2-0.3,0.3-0.6,0.4-0.8C79.4,76.4,80.2,75.7,82.3,74.6L82.3,74.6z
	 M78.6,78.2c-0.1,0.3-0.3,0.5-0.4,0.8l-0.4,0.7c-0.1,0.3-0.3,0.6-0.5,0.9c-0.3,0.4-0.6,0.8-0.9,1.1c-0.3,0.3-0.8,0.6-1.9,1.1
	s-1.5,0.8-1.8,1.1c-0.4,0.4-0.3,0.7,0.2,1.1c0.8,0.5,1,0.9,1.2,1.7c0.1,0.6,0.3,0.8,1.5,0.8c0.9,0,1.3,0.4,1.4,1.3
	c0,0.1,0,0.1,0,0.3c0,0.5,0.1,0.7,0.2,0.8c0.2,0.1,0.6,0,1.3-0.4c0.5-0.3,1-0.6,1.5-1c0.6-0.4,2.2-1.9,2.5-2.2
	c0.6-0.5,1.2-0.7,1.9-0.7c1.1,0,2-0.6,3.1-2l0.6-0.7c0.2-0.2,0.4-0.4,0.6-0.6s0.5-0.4,0.8-0.5c0.2-0.1,0.3-0.1,0.7-0.1
	c0.5-0.1,0.7-0.2,0.8-0.4c0.1-0.3,0-0.7-0.3-1.6c-0.2-0.4-0.3-0.8-0.5-1.3c-0.1-0.2-0.2-0.8-0.3-0.9c-0.3-1-0.7-1.2-2.5-1.2
	c-1.1,0-1.8-0.3-2.5-1c-0.1-0.1-0.4-0.4-0.5-0.5c-0.6-0.5-1.1-0.6-2-0.2C80.3,75.8,79.5,76.5,78.6,78.2L78.6,78.2z M87.9,80.2
	c-0.5,1.1-2.8,2.5-4.5,2.5c-0.9,0-1.3-0.5-1.2-1.3c0.1-0.6,0.3-1.3,0.7-1.8l0.3-0.4c0.1-0.2,0.2-0.3,0.3-0.4
	c0.6-0.8,1.3-1.2,2.3-1.2C87.2,77.6,88.4,79.2,87.9,80.2L87.9,80.2z M87.7,80.1c0.4-0.9-0.6-2.4-2-2.4c-0.9,0-1.6,0.4-2.1,1.2
	c-0.1,0.1-0.2,0.3-0.3,0.4c0,0-0.2,0.3-0.3,0.4c-0.3,0.4-0.6,1.1-0.6,1.7c-0.1,0.7,0.2,1.1,1,1.1C85,82.6,87.3,81.1,87.7,80.1
	L87.7,80.1z M76.1,83.6c0.3,0,0.7,0.1,1,0.3c0.4,0.2,0.4,0.6,0,1c-0.9,0.9-2.1,0.7-2.1-0.2C74.9,83.9,75.4,83.5,76.1,83.6L76.1,83.6
	z M76.1,83.7c-0.6,0-1,0.2-1,0.9c0,0.8,1.1,0.9,1.9,0.1c0.3-0.3,0.3-0.6,0.1-0.8C76.8,83.9,76.4,83.8,76.1,83.7L76.1,83.7z M81,46.1
	c0.8,0.4,2.9,1.4,3.2,1.6c0.4,0.2,0.8,0.6,1.2,0.9c0.2,0.3,0.4,0.6,0.6,0.9c0.4,0.6,0,1.3-1,1.9c-0.8,0.5-2,1-3.7,1.6
	c-0.8,0.3-3.3,1.1-3.5,1.2c-1.1,0.4-2.5,0-4.2-1c-0.7-0.4-1.3-0.8-2.2-1.4c-0.4-0.3-1.6-1.2-1.8-1.3c-0.5-0.3-0.9-0.7-1.4-0.9
	c-0.8-0.4-0.7-1.1,0-2c0.5-0.6,0.7-0.8,3-2.7c0.5-0.4,1-0.8,1.5-1.3c0.3-0.2,0.5-0.5,0.8-0.8c0.8-0.9,1.6-1.1,2.5-0.7
	c0.4,0.2,0.8,0.5,1.2,0.9c0.2,0.2,1.2,1.1,1.3,1.3C79.5,45.1,80.2,45.7,81,46.1L81,46.1z M81,46.2c-0.8-0.4-1.5-1-2.4-1.8
	c-0.2-0.2-1.1-1.1-1.3-1.3c-0.5-0.4-0.8-0.7-1.2-0.9c-0.8-0.4-1.5-0.2-2.3,0.6c-0.3,0.3-0.5,0.5-0.8,0.8c-0.4,0.4-0.9,0.8-1.5,1.3
	c-2.3,1.9-2.5,2.1-3,2.7c-0.7,0.8-0.8,1.4-0.1,1.8c0.4,0.2,0.8,0.5,1.5,1c0.2,0.1,1.4,1,1.8,1.3c0.7,0.5,1.4,1,2.1,1.4
	c1.7,1,3,1.3,4,1c0.2-0.1,2.7-0.9,3.5-1.2c1.6-0.6,2.8-1.1,3.6-1.6c1-0.6,1.3-1.2,1-1.7c-0.2-0.3-0.4-0.6-0.6-0.8
	c-0.3-0.4-0.7-0.7-1.1-0.9C83.8,47.6,81.7,46.6,81,46.2L81,46.2z M74.5,47.6c0.5-0.1,0.9,0,1.4,0.1c0.4,0.1,0.5,0.2,1.4,0.6
	c0.8,0.4,1.4,0.6,2.2,0.9c1.4,0.5,1.9,1,1.5,1.6c-0.3,0.5-1.3,1-3,1.5c-1.4,0.5-2.6,0.4-3.6-0.1c-0.8-0.4-1.4-1.1-2-2
	c-0.5-0.7-0.5-1.4,0-1.8S73.6,47.7,74.5,47.6L74.5,47.6z M74.5,47.7c-0.9,0.1-1.6,0.4-1.9,0.7c-0.4,0.4-0.4,1,0,1.6
	c0.6,0.9,1.2,1.6,2,2c0.9,0.5,2.1,0.6,3.4,0.1c1.6-0.5,2.6-1,2.9-1.5s-0.1-0.9-1.4-1.4c-0.8-0.3-1.4-0.5-2.2-0.9
	c-1-0.5-1.1-0.5-1.4-0.6C75.4,47.7,75,47.7,74.5,47.7L74.5,47.7z M33.7,83.4c0,0.8-0.2,1.3-0.7,1.5c-0.4,0.2-0.8,0.2-1.8,0.2h-0.3
	c-1.5,0-2.8-1.3-2.8-2.6c0-1.3,1.8-1.8,3.3-0.9c0.5,0.3,0.7,0.3,1.4,0.5C33.5,82.2,33.7,82.4,33.7,83.4L33.7,83.4z M33.6,83.4
	c0-0.9-0.1-1.1-0.8-1.2s-1-0.2-1.5-0.5c-1.4-0.8-3-0.3-3,0.8c0,1.2,1.2,2.4,2.7,2.4h0.3c1,0,1.4,0,1.7-0.2
	C33.4,84.5,33.6,84.1,33.6,83.4L33.6,83.4z M39.1,63.8c0.6-0.2,1.4-0.4,2.7-0.8c0.4-0.1,2.8-0.7,3.4-0.8c3.3-0.8,5.3-1.5,6.4-2.2
	c2.5-1.7,6.1-5.6,7.3-8c0.4-0.7,0.8-1.1,1.3-1c0.2,0,0.4,0.1,0.7,0.2c0.2,0.1,0.4,0.2,0.6,0.3l0.2,0.1c0.8,0.4,1.4,0.6,2.1,0.6
	c1.2,0,1.7,0.5,1.4,1.3c-0.2,0.7-1,1.5-1.8,2c-1.4,0.8-2,2.9-2,5.6c0,0.6-0.2,1-0.7,1.4c-0.3,0.3-0.7,0.4-1.4,0.7l-0.2,0.1
	c-0.8,0.3-1.2,0.5-1.4,0.7c-0.8,0.8-2.1,1.2-3.4,1.2c-0.2,0-0.4,0.2-0.7,0.5c0,0.1-0.2,0.3-0.2,0.4c-0.4,0.7-0.8,1-1.4,1
	c-1.3,0-1.8,0.2-3.6,1.2c-0.9,0.5-1.5,0.6-2.4,0.6c0,0-0.1,0-0.2,0c-0.8,0-1.2,0-1.8,0.2c-0.5,0.2-1,0.4-1.5,0.6
	c-0.4,0.2-1.8,0.8-1.7,0.8c-1.3,0.6-2.2,1-3.1,1.3c-2.1,0.6-3.1,0.4-4.6-0.7c-0.4-0.3-0.5-0.7-0.1-1.3c0.2-0.4,0.6-0.8,1.3-1.5
	l0.3-0.3c0.7-0.6,0.7-0.7,1-0.9c0.4-0.4,0.5-0.6,0.9-1.3c0.3-0.6,0.6-0.9,1-1.2C37.9,64.2,38.5,64,39.1,63.8L39.1,63.8z M39.2,63.9
	c-0.7,0.2-1.2,0.5-1.5,0.7c-0.5,0.3-0.7,0.6-1,1.1c-0.4,0.7-0.5,0.9-0.9,1.3c-0.2,0.2-0.3,0.3-1,0.9l-0.3,0.3
	c-0.7,0.6-1.1,1.1-1.3,1.5c-0.3,0.5-0.3,0.8,0.1,1c1.4,1,2.4,1.2,4.4,0.7c0.9-0.3,1.8-0.6,3.1-1.3c0,0,1.3-0.6,1.7-0.8
	c0.5-0.2,1-0.4,1.5-0.6c0.6-0.2,1-0.2,1.8-0.2H46c1,0,1.5-0.1,2.4-0.6c1.9-1,2.4-1.2,3.7-1.2c0.5,0,0.9-0.3,1.3-0.9l0.2-0.4
	c0.3-0.4,0.5-0.6,0.8-0.6c1.3,0,2.5-0.3,3.3-1.1c0.3-0.3,0.7-0.5,1.5-0.8l0.2-0.1c1.4-0.5,2-0.9,2-1.9c0-2.8,0.6-4.9,2-5.7
	c0.8-0.5,1.6-1.3,1.8-1.9c0.2-0.7-0.1-1.1-1.2-1.1c-0.7,0-1.4-0.2-2.2-0.6C60.5,51,60.7,51,60.3,51s-0.8,0.3-1.1,0.9
	c-1.2,2.3-4.8,6.4-7.4,8c-1.1,0.8-3.1,1.4-6.4,2.2c-0.7,0.2-3,0.7-3.4,0.8C40.6,63.5,39.8,63.7,39.2,63.9L39.2,63.9z M42,64.6
	c0.3,0,0.7,0,1.2-0.1c0.9-0.1,1.1-0.2,1.4-0.1c0.4,0.1,0.6,0.4,0.6,0.9c0,0.7-0.4,1.2-1.1,1.7c-0.5,0.3-1.1,0.6-2.4,1.1l0,0
	l-0.4,0.1c-0.5,0.2-0.9,0.4-1.6,0.9l-0.1,0.1c-1.4,1-2.2,1.3-3.8,1.3c-0.8,0-1.1-0.3-1-0.9c0.1-0.5,0.6-1.1,1.3-1.9
	c0.2-0.2,0.4-0.5,0.7-0.7c0.5-0.5,1.9-1.8,1.9-1.8c0.1-0.1,0.2-0.1,0.2-0.2c0.6-0.5,1-0.5,2.4-0.5C41.6,64.6,41.8,64.6,42,64.6
	L42,64.6z M42,64.8c-0.2,0-0.4,0-0.6,0c-1.4,0-1.7,0-2.3,0.5c-0.1,0.1-0.1,0.1-0.2,0.2c0,0-1.4,1.3-1.9,1.8
	c-0.2,0.2-0.5,0.5-0.7,0.7c-0.7,0.7-1.1,1.4-1.3,1.8c-0.1,0.5,0.1,0.7,0.8,0.7c1.6,0,2.4-0.3,3.7-1.3l0.1-0.1
	c0.7-0.5,1.1-0.7,1.6-0.9l0.4-0.1l0,0c1.3-0.5,1.8-0.7,2.3-1c0.7-0.4,1-0.9,1-1.5c0-0.5-0.2-0.7-0.5-0.8c-0.3-0.1-0.5,0-1.3,0.1
	C42.7,64.7,42.4,64.8,42,64.8L42,64.8z M60.7,57.2c-0.3,0.9-0.3,1.1-0.2,2.1c0.2,1.2-0.2,2.8-0.9,2.8c-0.1,0-0.2,0-0.3,0h-0.1
	c-0.5,0-0.8,0-1.2,0c-1.1-0.2-1.7-0.9-1.7-2.2c0-2.3,0.4-3.3,1.4-4.4c0.2-0.2,0.3-0.4,0.4-0.6c0.1-0.2,0.5-0.9,0.5-0.8
	c0.7-1.4,1.3-1.9,2-1.7c0.2,0,0.4,0.1,0.6,0.3l0.2,0.1c0.2,0.1,0.3,0.2,0.5,0.3c0.1,0,0.3,0.1,0.8,0h0.1c0.5,0,0.8,0,1,0.1
	c0.3,0.1,0.2,0.4-0.2,0.8c-0.2,0.2-0.4,0.4-0.6,0.6C61.3,56.2,61,56.6,60.7,57.2L60.7,57.2z M60.6,57.1c0.2-0.6,0.6-1,2.4-2.7
	c0.3-0.2,0.5-0.4,0.6-0.6c0.3-0.3,0.4-0.5,0.2-0.6c-0.1-0.1-0.4-0.1-0.9-0.1h-0.1c-0.5,0-0.7,0-0.9-0.1s-0.3-0.1-0.5-0.3l-0.2-0.1
	c-0.2-0.1-0.4-0.2-0.6-0.2c-0.6-0.2-1.2,0.4-1.9,1.6c0,0-0.4,0.7-0.5,0.8c-0.1,0.2-0.3,0.5-0.4,0.7c-1,1.1-1.3,2-1.3,4.3
	c0,1.3,0.6,1.9,1.6,2.1c0.3,0.1,0.7,0.1,1.1,0c0.1,0,0.1,0,0.2,0c0.1,0,0.1,0,0.2,0c0.5,0,0.9-1.5,0.7-2.6
	C60.2,58.3,60.3,58.1,60.6,57.1L60.6,57.1z M59,59.2c0.1,0.1,0.4,0.3,0.4,0.3c0.3,0.3,0.3,0.6,0,1.1c-0.6,0.9-1.5,0.5-1.5-0.8
	c0-0.6,0.1-0.9,0.3-1C58.5,58.8,58.7,58.9,59,59.2L59,59.2z M58.8,59.5c-0.2-0.2-0.4-0.3-0.4-0.3s-0.1,0.2-0.1,0.7
	c0,1,0.4,1.2,0.9,0.6c0.2-0.4,0.2-0.5,0.1-0.6C59.3,59.8,58.9,59.6,58.8,59.5L58.8,59.5z M96,37.8c0.4-0.2,0.6-0.3,1-0.4l0,0
	c0.5-0.1,1-0.3,1.5-0.6c0.7-0.3,1.1-0.3,1.2,0.1c0.1,0.3,0,0.7-0.2,2.1c-0.4,2.3-1.5,4.4-3.5,6c-0.7,0.6-1.2,0.7-1.6,0.4
	c-0.3-0.3-0.5-0.8-0.8-1.7c0-0.2-0.2-1-0.3-1.2c-0.1-0.5-0.3-1-0.5-1.5c-0.4-1.1-0.5-1.8-0.3-2.2c0.1-0.3,0.3-0.4,0.9-0.4
	c0.2,0,0.3,0,0.5,0l0.3-0.1c0.1,0,0.2,0,0.3,0c0.2,0,0.3-0.1,0.5-0.1C95.2,38.1,95.5,38,96,37.8L96,37.8z M96,37.9
	c-0.5,0.3-0.8,0.4-1.1,0.5c-0.1,0-0.3,0.1-0.5,0.1s-0.4,0.1-0.6,0.1c-0.1,0-0.2,0-0.5,0c-0.5,0-0.7,0.1-0.8,0.3
	c-0.1,0.3,0,0.9,0.4,2c0.2,0.5,0.3,1,0.5,1.6l0.3,1.2c0.2,0.9,0.4,1.4,0.7,1.7c0.3,0.3,0.7,0.2,1.4-0.4c2-1.7,3.1-3.7,3.5-5.9
	c0.2-1.4,0.3-1.8,0.2-2.1c-0.1-0.3-0.3-0.3-0.9,0c-0.5,0.2-1,0.4-1.5,0.6l0,0C96.7,37.6,96.4,37.8,96,37.9z M95.3,39
	c0.2-0.1,0.4-0.1,0.6-0.2c0.1,0,0.4-0.2,0.6-0.3s0.5-0.2,0.8-0.3c0.4-0.1,0.8-0.1,1,0.1c0.2,0.2,0.2,0.4,0.2,0.7c0,0.1,0,0.1,0,0.2
	c0,0.9-0.8,2.8-1.9,3.8c-0.7,0.6-1.2,0.8-1.7,0.4c-0.3-0.3-0.6-0.8-1.1-2.2c-0.3-0.8-0.3-1.3-0.1-1.7c0.2-0.3,0.5-0.4,1-0.4h0.2
	C95.1,39,95.2,39,95.3,39L95.3,39z M94.9,39.4h-0.2c-0.4,0-0.6,0.1-0.7,0.3c-0.2,0.2-0.1,0.7,0.1,1.4c0.5,1.3,0.7,1.8,1,2
	s0.6,0.1,1.2-0.4c1-0.9,1.8-2.7,1.8-3.5c0-0.1,0-0.2,0-0.2c0-0.2,0-0.4-0.1-0.5s-0.3-0.1-0.6,0c-0.3,0.1-0.5,0.2-0.7,0.3
	c-0.1,0.1-0.5,0.2-0.6,0.3c-0.2,0.1-0.5,0.2-0.7,0.3C95.3,39.4,95.2,39.4,94.9,39.4L94.9,39.4z M57,24.6c-0.3,0.7-0.6,1.2-1.2,1.9
	L55.4,27c-0.2,0.2-0.3,0.4-0.4,0.5c-0.3,0.4-0.6,0.8-0.8,1.2c-0.5,0.9-1.2,1.7-2.1,2.3c-0.7,0.5-1.4,0.8-2.6,1.3
	c-1.8,0.7-2.7,0.2-4.5-2.7c-0.5-0.8-1.5-1.4-3-2.1c-0.5-0.2-2.1-0.9-2.4-1c-0.8-0.4-1.2-0.6-1.1-1c0.1-0.4,0.9-0.7,2.6-1
	c2.8-0.6,4.5-0.6,6.7-0.5c1.3,0.1,1.6,0.1,2.1,0c0.3-0.1,0.7-0.2,1-0.4l0.5-0.3c1.6-1,2.2-1.3,2.9-1.6c1-0.5,1.8-0.6,2.3-0.2
	C57.6,22,57.7,22.6,57,24.6L57,24.6z M56.7,24.4c0.7-1.8,0.6-2.2-0.4-2.8c-0.4-0.3-1.1-0.2-2,0.2c-0.7,0.3-1.2,0.6-2.8,1.6L51,23.7
	c-0.3,0.2-0.7,0.4-1.1,0.5c-0.6,0.1-0.9,0.1-2.2,0c-2.1-0.1-3.8,0-6.6,0.5c-0.8,0.2-1.4,0.3-1.8,0.5c-0.3,0.1-0.5,0.2-0.5,0.3
	c0,0.1,0.2,0.3,0.9,0.6c0.2,0.1,1.9,0.8,2.4,1c1.6,0.7,2.6,1.4,3.1,2.2c1.7,2.8,2.5,3.3,4.1,2.6c1.2-0.5,1.9-0.8,2.6-1.2
	c0.9-0.6,1.6-1.3,2-2.2c0.2-0.5,0.5-0.9,0.8-1.3c0.1-0.2,0.3-0.4,0.5-0.6l0.4-0.5C56.1,25.6,56.4,25.1,56.7,24.4L56.7,24.4z
	 M55.6,24.4c-1.3,2.1-3.1,3.6-5.5,4.2c-1.3,0.3-2.1-0.1-2.2-1c-0.1-0.7,0.4-1.5,1-1.5c0.5,0,0.9-0.3,2.6-1.5
	c0.2-0.2,0.4-0.3,0.6-0.5c0.7-0.5,1.3-0.9,1.8-1c0.9-0.3,1.6-0.4,1.9-0.2C56.1,23.1,56.1,23.6,55.6,24.4L55.6,24.4z M55.4,24.3
	c0.5-0.7,0.5-1.1,0.2-1.3c-0.3-0.1-0.9-0.1-1.8,0.2c-0.5,0.1-1,0.5-1.8,1c-0.2,0.1-0.4,0.3-0.6,0.5c-1.7,1.3-2.1,1.6-2.7,1.6
	c-0.5,0-0.9,0.7-0.8,1.3c0.1,0.7,0.8,1.1,2,0.8C52.4,27.9,54.1,26.4,55.4,24.3L55.4,24.3z M76.9,5.6c2.3,0.8,3.5,0.8,5.3,0
	C82.6,5.4,83,5.1,84,4.5c0.9-0.7,1.3-0.9,1.9-1.2c0.7-0.3,1.3-0.4,1.9-0.2c0.7,0.2,1,2,1.1,4.7c0.1,2.4-0.1,4.8-0.4,5.7
	c-0.3,0.8-1,1.4-1.9,1.7c-0.7,0.2-1.4,0.3-2.2,0.3c-1,0-1.5,0.4-2,1.3c-0.1,0.1-0.3,0.4-0.3,0.5c-0.3,0.5-0.5,0.7-0.8,0.8
	c-0.2,0.1-0.3,0.1-0.6,0.3l-0.4,0.2c-0.2,0.1-0.3,0.2-0.4,0.2c-1.1,0.5-2,0.8-2.9,0.8c-1,0-1.7,0.3-2.3,1c-0.2,0.2-0.7,0.8-0.8,0.8
	c-0.4,0.4-1,0.7-1.8,1c-0.2,0.1-1,0.4-1,0.4l-0.3,0.1C70.4,23,70.2,23,70.1,23c-0.9,0.2-1.9-0.1-3-0.7c-0.2-0.1-0.9-0.5-1-0.6
	c-0.3-0.2-0.7-0.3-1.5-0.3h-0.3c-0.8-0.1-1.3-0.2-1.7-0.5c-0.8-0.6-1.1-1.3-0.9-2.1c0.2-0.9,1.1-1.8,2.5-2.9
	c0.4-0.3,0.7-0.5,1.1-0.8c-0.1,0,0.7-0.5,0.9-0.6c0.5-0.3,0.8-0.6,2.1-2l0.2-0.2c0.6-0.6,1-1,1.4-1.3c0.5-0.4,0.8-1,1.2-2.2l0.1-0.3
	c0.4-1.2,0.7-1.7,1.1-2.1c0.2-0.2,1.1-1.1,1.3-1.2C74.3,4.9,74.9,4.9,76.9,5.6L76.9,5.6z M76.8,5.7C74.9,5,74.3,5,73.7,5.4
	c-0.2,0.1-1.1,1-1.3,1.2c-0.4,0.4-0.7,0.9-1.1,2L71.2,9c-0.5,1.2-0.8,1.8-1.3,2.2c-0.5,0.5-1,1-1.5,1.5c-1.3,1.4-1.7,1.7-2.1,2
	c-0.2,0.1-0.9,0.6-0.9,0.6c-0.4,0.3-0.8,0.5-1.1,0.8c-1.4,1-2.2,1.9-2.4,2.8c-0.2,0.7,0.1,1.3,0.9,1.9c0.4,0.3,0.9,0.4,1.6,0.5h0.3
	c0.9,0.1,1.2,0.1,1.6,0.3c0.1,0.1,0.7,0.4,1,0.6c1.1,0.6,2,0.9,2.9,0.7c0.1,0,0.3-0.1,0.4-0.1s0.2-0.1,0.3-0.1c0,0,0.8-0.3,1-0.4
	c0.8-0.3,1.3-0.6,1.7-1c0.1-0.1,0.6-0.6,0.8-0.8c0.7-0.7,1.5-1,2.5-1c0.9,0,1.7-0.3,2.8-0.8c0.1-0.1,0.3-0.1,0.4-0.2
	c0,0,0.3-0.2,0.4-0.2c0.3-0.2,0.5-0.2,0.7-0.3c0.3-0.1,0.5-0.3,0.7-0.8l0.3-0.5c0.6-0.9,1.1-1.4,2.2-1.4c0.7,0,1.5-0.1,2.1-0.3
	c0.9-0.3,1.5-0.8,1.8-1.6c0.3-0.9,0.5-3.3,0.4-5.6c-0.1-2.6-0.5-4.4-1-4.6C87.2,3,86.6,3.1,86,3.4c-0.5,0.2-0.9,0.5-1.8,1.1
	c-0.9,0.7-1.3,0.9-1.9,1.2C80.3,6.6,79.2,6.6,76.8,5.7L76.8,5.7z M79.2,9.2c0.9,0,1.3,0,1.6-0.2c0.2-0.1,1.7-0.8,2.5-1.2
	c0.3-0.1,0.6-0.4,1.1-1c0.4-0.5,0.5-0.6,0.7-0.8c0.6-0.6,1.2-0.5,1.7,0.2c1,1.5,0.9,2.7,0,4.5c-0.2,0.3-0.3,0.6-0.4,0.9
	c-0.1,0.1-0.2,0.4-0.2,0.5s-0.1,0.1-0.1,0.2c-0.1,0.2-0.3,0.4-0.7,0.8c-0.4,0.4-0.9,0.5-1.9,0.7c-0.3,0-0.4,0.1-0.5,0.1
	c-1,0.2-1.6,0.4-2,1c-0.6,0.8-1.3,1.2-2.5,1.8c-0.1,0-0.2,0.1-0.3,0.1L77.9,17c-0.4,0.2-0.9,0.4-1.3,0.6c-0.4,0.3-0.8,0.4-1.6,0.6
	c-1.4,0.3-2,0.6-2.9,1.6c-0.9,0.9-1.7,1.3-2.8,1.1c-0.9-0.1-1.8-0.5-3.9-1.6c-1-0.5-1.1-1.3-0.2-2.3c0.6-0.7,0.6-0.7,3.2-2.7
	c1.4-1.1,2.2-1.8,2.8-2.5c0.4-0.5,0.7-1,0.8-1.4c0.9-3,2.1-3.7,3.8-2.6C76.1,8,76.9,8.6,77,8.6C77.6,9,78.1,9.2,79.2,9.2z M79.2,9.5
	c-1.1,0-1.7-0.1-2.3-0.5c-0.1-0.1-0.9-0.6-1.2-0.8c-1.5-0.9-2.4-0.4-3.3,2.4c-0.1,0.5-0.4,1-0.9,1.5c-0.6,0.7-1.4,1.5-2.8,2.5
	c-2.6,2-2.6,2.1-3.2,2.7c-0.7,0.8-0.7,1.3,0.1,1.7c2.1,1.1,3,1.4,3.8,1.5c1,0.1,1.7-0.1,2.5-1c0.9-1,1.6-1.3,3.1-1.7
	c0.7-0.2,1.1-0.3,1.5-0.5c0.4-0.3,0.9-0.5,1.3-0.7l0.3-0.1l0.3-0.1c1.1-0.5,1.8-1,2.4-1.7c0.5-0.6,1.2-0.9,2.2-1.1
	c0.1,0,0.2,0,0.5-0.1c1-0.2,1.4-0.3,1.8-0.6c0.4-0.4,0.5-0.6,0.6-0.7c0,0,0-0.1,0.1-0.2c0,0,0.1-0.3,0.2-0.5
	c0.1-0.3,0.2-0.6,0.4-0.9c0.9-1.7,1-2.8,0-4.2c-0.4-0.6-0.7-0.6-1.2-0.1c-0.2,0.2-0.3,0.3-0.7,0.8c-0.5,0.6-0.8,0.9-1.2,1.1
	c-0.8,0.3-2.3,1.1-2.5,1.2C80.5,9.5,80.1,9.5,79.2,9.5z M77,10.9c0.9,0.6,1.7,0.6,3,0.1c0.9-0.3,1-0.3,1.3-0.3
	c0.4,0,0.7,0.2,0.9,0.7c0.3,0.8-0.4,1.4-2,2.1c-0.4,0.2-2.7,1-3.3,1.3c-1.3,0.5-2.3,1.1-3.1,1.7c-2.2,1.6-3.1,2-4,1.6
	c-0.2-0.1-0.4-0.2-0.6-0.3l-0.3-0.2c-0.1-0.1-0.2-0.2-0.4-0.2c-0.6-0.3-0.5-0.7,0.1-1.2c0.2-0.2,1.8-1.3,2.3-1.7
	c1.2-0.9,2-1.9,2.4-3.1c0.5-1.4,0.8-2,1.1-2.2c0.3-0.2,0.6-0.1,1,0.3c0.1,0.1,0.6,0.5,0.7,0.6C76.4,10.5,76.7,10.7,77,10.9L77,10.9z
	 M76.9,11.1c-0.3-0.2-0.6-0.5-1-0.8c-0.1-0.1-0.6-0.5-0.7-0.6c-0.4-0.4-0.6-0.4-0.8-0.3c-0.3,0.2-0.6,0.8-1.1,2.1
	c-0.4,1.2-1.2,2.2-2.5,3.1c-0.5,0.4-2,1.5-2.3,1.6c-0.5,0.4-0.6,0.7-0.2,1l0.4,0.2l0.3,0.2c0.2,0.2,0.4,0.2,0.6,0.3
	c0.8,0.3,1.7,0,3.8-1.6c0.8-0.6,1.9-1.2,3.2-1.7c0.6-0.3,2.9-1.1,3.3-1.3c1.6-0.7,2.2-1.2,2-1.9c-0.1-0.5-0.4-0.6-0.7-0.6
	c-0.3,0-0.4,0-1.2,0.3C78.8,11.7,77.9,11.8,76.9,11.1L76.9,11.1z"/>
</svg>
