<?xml version="1.0" encoding="utf-8"?>
<!-- Generator: Adobe Illustrator 24.1.2, SVG Export Plug-In . SVG Version: 6.00 Build 0)  -->
<svg version="1.1" id="Layer_1" xmlns="http://www.w3.org/2000/svg" xmlns:xlink="http://www.w3.org/1999/xlink" x="0px" y="0px"
	 viewBox="0 0 100 100" style="enable-background:new 0 0 100 100;" xml:space="preserve">
<style type="text/css">
	.st0{fill:#242424;}
</style>
<path class="st0" d="M0,34.3V0h34.3c1.1,3-0.5,6.3-3.5,7.4s-6.3-0.5-7.4-3.5H11.3c-0.8,3.8-3.7,6.7-7.5,7.5v12.1
	c3,1.1,4.6,4.4,3.5,7.4S3,35.4,0,34.3z M0,69.6c3-1.1,6.3,0.5,7.4,3.5c1.1,3-0.5,6.3-3.5,7.4v12.1c3.8,0.8,6.7,3.7,7.5,7.5h12.1
	c1.1-3,4.4-4.6,7.4-3.5c1.6,0.6,2.9,1.9,3.5,3.5H0V69.6z M69.5,100c1.1-3,4.4-4.6,7.4-3.5c1.6,0.6,2.9,1.9,3.5,3.5h12.1
	c0.8-3.8,3.7-6.7,7.5-7.5V80.4c-3-1.1-4.6-4.4-3.5-7.4c0.6-1.6,1.9-2.9,3.5-3.5V100H69.5z M0,61.4V42.6c2.5-0.5,5.2,0,7.3,1.4
	l8.5-8.5c-1.4-2.9-0.2-6.3,2.7-7.7s6.3-0.2,7.7,2.7c1.4,2.9,0.2,6.3-2.7,7.7c-1.6,0.8-3.4,0.8-5,0L10,46.7c2.1,3.2,2.1,7.4,0,10.6
	l8.5,8.5c2.9-1.4,6.3-0.1,7.7,2.7s0.1,6.3-2.7,7.7c-2.9,1.4-6.3,0.1-7.7-2.7c-0.7-1.6-0.7-3.4,0-5L7.3,60C5.2,61.4,2.5,61.9,0,61.4
	L0,61.4z M100,34.3c-3-1.1-4.6-4.4-3.5-7.4c0.6-1.6,1.9-2.9,3.5-3.5V11.4c-3.8-0.8-6.7-3.7-7.5-7.5H80.4c-1.1,3-4.4,4.6-7.4,3.5
	S68.5,3,69.5,0H100V34.3z M100,61.4c-1.2-0.2-2.3-0.7-3.3-1.4l-8.5,8.5c1.4,2.9,0.1,6.3-2.7,7.7c-2.9,1.4-6.3,0.1-7.7-2.7
	c-1.4-2.9-0.1-6.3,2.7-7.7c1.6-0.7,3.4-0.7,5,0l8.5-8.5c-2.1-3.2-2.1-7.4,0-10.6l-8.5-8.5c-2.9,1.4-6.3,0.2-7.7-2.7
	s-0.2-6.3,2.7-7.7c2.9-1.4,6.3-0.2,7.7,2.7c0.8,1.6,0.8,3.4,0,5l8.5,8.5c1-0.7,2.2-1.2,3.3-1.4C100,42.6,100,61.4,100,61.4z M42.6,0
	h18.8c0.5,2.5,0,5.2-1.4,7.3l8.5,8.5c2.9-1.4,6.3-0.1,7.7,2.7c1.4,2.9,0.1,6.3-2.7,7.7s-6.3,0.1-7.7-2.7c-0.7-1.6-0.7-3.4,0-5
	L57.3,10c-3.2,2.1-7.4,2.1-10.6,0l-8.5,8.5c1.4,2.9,0.1,6.3-2.7,7.7c-2.9,1.4-6.3,0.1-7.7-2.7s-0.1-6.3,2.7-7.7c1.6-0.7,3.4-0.7,5,0
	L44,7.3C42.5,5.2,42.1,2.5,42.6,0L42.6,0z M42.6,100c0.2-1.2,0.7-2.3,1.4-3.3l-8.5-8.5c-2.9,1.4-6.3,0.2-7.7-2.7s-0.2-6.3,2.7-7.7
	c2.9-1.4,6.3-0.2,7.7,2.7c0.8,1.6,0.8,3.4,0,5l8.5,8.5c3.2-2.1,7.4-2.1,10.6,0l8.5-8.5c-1.4-2.9-0.2-6.3,2.7-7.7
	c2.9-1.4,6.3-0.2,7.7,2.7c1.4,2.9,0.2,6.3-2.7,7.7c-1.6,0.8-3.4,0.8-5,0L60,96.7c0.7,1,1.2,2.2,1.4,3.3C61.4,100,42.6,100,42.6,100z
	 M61.3,53.9c-0.8,3.8-3.7,6.7-7.5,7.5v12.1c3,1.1,4.6,4.4,3.5,7.4c-1.1,3-4.4,4.6-7.4,3.5s-4.6-4.4-3.5-7.4c0.6-1.6,1.9-2.9,3.5-3.5
	V61.4c-3.8-0.8-6.7-3.7-7.5-7.5H30.4c-1.1,3-4.4,4.6-7.4,3.5c-3-1.1-4.6-4.4-3.5-7.4c1.1-3,4.4-4.6,7.4-3.5c1.6,0.6,2.9,1.9,3.5,3.5
	h12.1c0.8-3.8,3.7-6.7,7.5-7.5V30.5c-3-1.1-4.6-4.4-3.5-7.4c1.1-3,4.4-4.6,7.4-3.5c3,1.1,4.6,4.4,3.5,7.4c-0.6,1.6-1.9,2.9-3.5,3.5
	v12.1c3.8,0.8,6.7,3.7,7.5,7.5h12.1c1.1-3,4.4-4.6,7.4-3.5c3,1.1,4.6,4.4,3.5,7.4c-1.1,3-4.4,4.6-7.4,3.5c-1.6-0.6-2.9-1.9-3.5-3.5
	H61.3z"/>
</svg>
