<?xml version="1.0" encoding="utf-8"?>
<!-- Generator: Adobe Illustrator 24.1.2, SVG Export Plug-In . SVG Version: 6.00 Build 0)  -->
<svg version="1.1" id="Layer_1" xmlns="http://www.w3.org/2000/svg" xmlns:xlink="http://www.w3.org/1999/xlink" x="0px" y="0px"
	 viewBox="0 0 100 100" style="enable-background:new 0 0 100 100;" xml:space="preserve">
<style type="text/css">
	.st0{fill-rule:evenodd;clip-rule:evenodd;fill:#242424;}
</style>
<g id="Page-1">
	<g id="Artboard-5">
		<path id="Combined-Shape" class="st0" d="M0,96.5l7.1-7.1l3.5,3.5L3.5,100H0V96.5z M0,3.5l7.1,7.1l3.5-3.5L3.5,0H0V3.5L0,3.5z
			 M96.5,100l-7.1-7.1l3.5-3.5l7.1,7.1v3.5H96.5z M100,3.5l-7.1,7.1l-3.5-3.5L96.5,0h3.5V3.5z M50,46.5l7.1-7.1l3.5,3.5l-7.1,7
			l7.1,7.1l-3.5,3.5L50,53.5l-7.1,7.1l-3.5-3.5l7.1-7.1l-7.1-7.1l3.5-3.5L50,46.5L50,46.5z"/>
	</g>
</g>
</svg>
