<?xml version="1.0" encoding="utf-8"?>
<!-- Generator: Adobe Illustrator 24.1.2, SVG Export Plug-In . SVG Version: 6.00 Build 0)  -->
<svg version="1.1" id="Layer_1" xmlns="http://www.w3.org/2000/svg" xmlns:xlink="http://www.w3.org/1999/xlink" x="0px" y="0px"
	 viewBox="0 0 100 100" style="enable-background:new 0 0 100 100;" xml:space="preserve">
<style type="text/css">
	.st0{fill:#242424;}
</style>
<g>
	<g>
		<path class="st0" d="M48.3,97.6l12.3-12.3C54.7,79,50.5,71.4,48.3,63.1c-2.2,8.3-6.4,16-12.3,22.3L48.3,97.6L48.3,97.6z M50.7,100
			L50.7,100l-4.7,0L33.7,87.7c-6.3,5.9-13.9,10.1-22.3,12.3H0v-1.7c11.7-0.4,22.8-5,31.3-13L0,54V46l31.3-31.3
			C22.8,6.7,11.7,2.1,0,1.7V0h11.4c8.3,2.2,16,6.4,22.3,12.3L46,0h4.7L63,12.3C69.3,6.4,76.9,2.2,85.3,0H100v46v0v54H85.3
			c-8.3-2.2-16-6.4-22.3-12.3L50.7,100L50.7,100z M48.3,2.3L36,14.6c5.9,6.3,10.1,13.9,12.3,22.3c2.2-8.3,6.4-16,12.3-22.3L48.3,2.3
			L48.3,2.3z M96.7,1.7c-11.7,0.4-22.8,5-31.3,13L96.7,46V1.7L96.7,1.7z M63,17c-8,8.5-12.6,19.7-13,31.3h44.3L63,17L63,17z
			 M50,51.7c0.4,11.7,5,22.8,13,31.3l31.3-31.3H50z M65.3,85.3c8.5,8,19.7,12.6,31.3,13V54L65.3,85.3L65.3,85.3z M33.7,83
			c8-8.5,12.6-19.7,13-31.3H2.3L33.7,83L33.7,83z M46.6,48.3c-0.4-11.7-5-22.8-13-31.3L2.3,48.3C2.3,48.3,46.6,48.3,46.6,48.3z"/>
	</g>
</g>
</svg>
