<?xml version="1.0" encoding="utf-8"?>
<!-- Generator: Adobe Illustrator 24.1.2, SVG Export Plug-In . SVG Version: 6.00 Build 0)  -->
<svg version="1.1" id="Layer_1" xmlns="http://www.w3.org/2000/svg" xmlns:xlink="http://www.w3.org/1999/xlink" x="0px" y="0px"
	 viewBox="0 0 100 100" style="enable-background:new 0 0 100 100;" xml:space="preserve">
<style type="text/css">
	.st0{fill-rule:evenodd;clip-rule:evenodd;fill:#242424;}
</style>
<g>
	<g id="autumn">
		<path class="st0" d="M9.5,0l35.7,15.6l2.4,1V2.3c0-0.8-0.1-1.5-0.3-2.3h-2.5c0.2,0.7,0.4,1.5,0.4,2.3v11L14.8,0H9.5z M47.3,25
			c-0.8-3.1-3.1-5.6-6.3-7L2.4,1L0,0v14.4c0,3.9,2.6,7.5,6.6,9.3L9.5,25h5.3l-7.2-3.1c-3.2-1.4-5.3-4.3-5.3-7.5v-11L40,19.8
			c2.4,1,4.2,2.9,4.9,5.2H47.3z M90.5,25l2.9-1.3c4-1.8,6.6-5.4,6.6-9.3V0l-2.4,1L59,18c-3.2,1.4-5.5,4-6.3,7h2.5
			c0.7-2.3,2.5-4.1,4.9-5.2L97.6,3.4v11c0,3.2-2,6-5.3,7.5L85.2,25H90.5z M90.5,0L54.8,15.6l-2.4,1V2.3c0-0.8,0.1-1.5,0.3-2.3h2.5
			c-0.2,0.7-0.4,1.5-0.4,2.3v11L85.2,0H90.5z"/>
	</g>
</g>
<g>
	<g id="autumn_1_">
		<path class="st0" d="M9.5,25l35.7,15.6l2.4,1V27.3c0-0.8-0.1-1.5-0.3-2.3h-2.5c0.2,0.7,0.4,1.5,0.4,2.3v11L14.8,25H9.5z M47.3,50
			c-0.8-3.1-3.1-5.6-6.3-7L2.4,26L0,25v14.4c0,3.9,2.6,7.5,6.6,9.3L9.5,50h5.3l-7.2-3.1c-3.2-1.4-5.3-4.3-5.3-7.5v-11L40,44.8
			c2.4,1,4.2,2.9,4.9,5.2H47.3z M90.5,50l2.9-1.3c4-1.8,6.6-5.4,6.6-9.3V25l-2.4,1L59,43c-3.2,1.4-5.5,4-6.3,7h2.5
			c0.7-2.3,2.5-4.1,4.9-5.2l37.6-16.4v11c0,3.2-2,6-5.3,7.5L85.2,50H90.5z M90.5,25L54.8,40.6l-2.4,1V27.3c0-0.8,0.1-1.5,0.3-2.3
			h2.5c-0.2,0.7-0.4,1.5-0.4,2.3v11L85.2,25H90.5z"/>
	</g>
</g>
<g>
	<g id="autumn_2_">
		<path class="st0" d="M9.5,50l35.7,15.6l2.4,1V52.3c0-0.8-0.1-1.5-0.3-2.3h-2.5c0.2,0.7,0.4,1.5,0.4,2.3v11L14.8,50H9.5z M47.3,75
			c-0.8-3.1-3.1-5.6-6.3-7L2.4,51L0,50v14.4c0,3.9,2.6,7.5,6.6,9.3L9.5,75h5.3l-7.2-3.1c-3.2-1.4-5.3-4.3-5.3-7.5v-11L40,69.8
			c2.4,1,4.2,2.9,4.9,5.2H47.3z M90.5,75l2.9-1.3c4-1.8,6.6-5.4,6.6-9.3V50l-2.4,1L59,68c-3.2,1.4-5.5,4-6.3,7h2.5
			c0.7-2.3,2.5-4.1,4.9-5.2l37.6-16.4v11c0,3.2-2,6-5.3,7.5L85.2,75H90.5z M90.5,50L54.8,65.6l-2.4,1V52.3c0-0.8,0.1-1.5,0.3-2.3
			h2.5c-0.2,0.7-0.4,1.5-0.4,2.3v11L85.2,50H90.5z"/>
	</g>
</g>
<g>
	<g id="autumn_3_">
		<path class="st0" d="M9.5,75l35.7,15.6l2.4,1V77.3c0-0.8-0.1-1.5-0.3-2.3h-2.5c0.2,0.7,0.4,1.5,0.4,2.3v11L14.8,75H9.5z M47.3,100
			c-0.8-3.1-3.1-5.6-6.3-7L2.4,76L0,75v14.4c0,3.9,2.6,7.5,6.6,9.3l2.9,1.3h5.3l-7.2-3.1c-3.2-1.4-5.3-4.3-5.3-7.5v-11L40,94.8
			c2.4,1,4.2,2.9,4.9,5.2H47.3z M90.5,100l2.9-1.3c4-1.8,6.6-5.4,6.6-9.3V75l-2.4,1L59,93c-3.2,1.4-5.5,4-6.3,7h2.5
			c0.7-2.3,2.5-4.1,4.9-5.2l37.6-16.4v11c0,3.2-2,6-5.3,7.5l-7.2,3.1H90.5z M90.5,75L54.8,90.6l-2.4,1V77.3c0-0.8,0.1-1.5,0.3-2.3
			h2.5c-0.2,0.7-0.4,1.5-0.4,2.3v11L85.2,75H90.5z"/>
	</g>
</g>
</svg>
