<?xml version="1.0" encoding="utf-8"?>
<!-- Generator: Adobe Illustrator 24.1.2, SVG Export Plug-In . SVG Version: 6.00 Build 0)  -->
<svg version="1.1" id="Layer_1" xmlns="http://www.w3.org/2000/svg" xmlns:xlink="http://www.w3.org/1999/xlink" x="0px" y="0px"
	 viewBox="0 0 100 100" style="enable-background:new 0 0 100 100;" xml:space="preserve">
<style type="text/css">
	.st0{fill-rule:evenodd;clip-rule:evenodd;fill:#242424;}
</style>
<path class="st0" d="M33.4,33.4c0.4-0.4,0.7-1,0.7-1.6V0h-4.5v29.5H0v4.5h31.8C32.4,34.1,33,33.8,33.4,33.4L33.4,33.4L33.4,33.4z
	 M33.4,66.6c0.4,0.4,0.7,1,0.7,1.6V100h-4.5V70.5H0v-4.5h31.8C32.5,65.9,33,66.2,33.4,66.6L33.4,66.6z M66.6,66.6
	c-0.4,0.4-0.7,1-0.7,1.6V100h4.5V70.5H100v-4.5H68.2C67.6,65.9,67,66.2,66.6,66.6L66.6,66.6L66.6,66.6z M70.5,29.5V0h-4.5v31.8
	c0,0.6,0.3,1.2,0.7,1.6c0.4,0.4,1,0.7,1.6,0.7H100v-4.5H70.5z M20.5,40.9c0-1.3,1-2.3,2.3-2.3h11.4c1.3,0,2.3,1,2.3,2.3
	s-1,2.3-2.3,2.3H22.7C21.5,43.2,20.5,42.2,20.5,40.9z M20.5,59.1c0-1.2,1-2.3,2.3-2.3h11.4c1.3,0,2.3,1,2.3,2.3s-1,2.3-2.3,2.3H22.7
	C21.5,61.4,20.5,60.3,20.5,59.1z M38.6,29.5c0-1.3,1-2.3,2.3-2.3s2.3,1,2.3,2.3v4.5c0,1.3-1,2.3-2.3,2.3s-2.3-1-2.3-2.3V29.5z
	 M56.8,29.5c0-1.3,1-2.3,2.3-2.3s2.3,1,2.3,2.3v4.5c0,1.3-1,2.3-2.3,2.3s-2.3-1-2.3-2.3V29.5z M38.6,65.9c0-1.3,1-2.3,2.3-2.3
	s2.3,1,2.3,2.3v4.5c0,1.3-1,2.3-2.3,2.3s-2.3-1-2.3-2.3V65.9z M56.8,65.9c0-1.3,1-2.3,2.3-2.3s2.3,1,2.3,2.3v4.5
	c0,1.3-1,2.3-2.3,2.3s-2.3-1-2.3-2.3V65.9z M38.6,88.6c0-1.3,1-2.3,2.3-2.3s2.3,1,2.3,2.3v6.8c0,1.3-1,2.3-2.3,2.3s-2.3-1-2.3-2.3
	V88.6z M56.8,88.6c0-1.3,1-2.3,2.3-2.3s2.3,1,2.3,2.3v6.8c0,1.3-1,2.3-2.3,2.3s-2.3-1-2.3-2.3V88.6z M38.6,4.5c0-1.3,1-2.3,2.3-2.3
	s2.3,1,2.3,2.3v6.8c0,1.3-1,2.3-2.3,2.3s-2.3-1-2.3-2.3V4.5z M56.8,4.5c0-1.3,1-2.3,2.3-2.3s2.3,1,2.3,2.3v6.8c0,1.3-1,2.3-2.3,2.3
	s-2.3-1-2.3-2.3V4.5z M47.7,97.7c0-1.3,1-2.3,2.3-2.3s2.3,1,2.3,2.3v2.3h-4.5V97.7z M47.7,20.5c0-1.3,1-2.3,2.3-2.3s2.3,1,2.3,2.3
	v11.4c0,1.3-1,2.3-2.3,2.3s-2.3-1-2.3-2.3V20.5z M75,4.5c0-1.3,1-2.3,2.3-2.3c1.3,0,2.3,1,2.3,2.3v9.1c0,1.3-1,2.3-2.3,2.3
	c-1.3,0-2.3-1-2.3-2.3V4.5z M75,86.4c0-1.3,1-2.3,2.3-2.3c1.3,0,2.3,1,2.3,2.3v9.1c0,1.3-1,2.3-2.3,2.3c-1.3,0-2.3-1-2.3-2.3V86.4z
	 M20.5,86.4c0-1.3,1-2.3,2.3-2.3s2.3,1,2.3,2.3v9.1c0,1.3-1,2.3-2.3,2.3s-2.3-1-2.3-2.3V86.4z M20.5,4.5c0-1.3,1-2.3,2.3-2.3
	s2.3,1,2.3,2.3v9.1c0,1.3-1,2.3-2.3,2.3s-2.3-1-2.3-2.3V4.5z M47.7,0h4.5v2.3c0,1.3-1,2.3-2.3,2.3s-2.3-1-2.3-2.3V0z M47.7,68.2
	c0-1.3,1-2.3,2.3-2.3s2.3,1,2.3,2.3v11.4c0,1.3-1,2.3-2.3,2.3s-2.3-1-2.3-2.3V68.2z M63.6,40.9c0-1.3,1-2.3,2.3-2.3h11.4
	c1.3,0,2.3,1,2.3,2.3s-1,2.3-2.3,2.3H65.9C64.7,43.2,63.6,42.2,63.6,40.9z M63.6,59.1c0-1.2,1-2.3,2.3-2.3h11.4c1.3,0,2.3,1,2.3,2.3
	s-1,2.3-2.3,2.3H65.9C64.7,61.4,63.6,60.3,63.6,59.1z M31.8,52.3c1.3,0,2.3-1,2.3-2.3s-1-2.3-2.3-2.3s-2.3,1-2.3,2.3
	S30.6,52.3,31.8,52.3z M40.9,81.8c1.3,0,2.3-1,2.3-2.3c0-1.3-1-2.3-2.3-2.3s-2.3,1-2.3,2.3C38.6,80.8,39.7,81.8,40.9,81.8z
	 M59.1,81.8c1.3,0,2.3-1,2.3-2.3c0-1.3-1-2.3-2.3-2.3s-2.3,1-2.3,2.3C56.8,80.8,57.8,81.8,59.1,81.8z M40.9,22.7
	c1.3,0,2.3-1,2.3-2.3s-1-2.3-2.3-2.3s-2.3,1-2.3,2.3S39.7,22.7,40.9,22.7z M59.1,22.7c1.3,0,2.3-1,2.3-2.3s-1-2.3-2.3-2.3
	s-2.3,1-2.3,2.3S57.8,22.7,59.1,22.7z M50,13.6c1.3,0,2.3-1,2.3-2.3s-1-2.3-2.3-2.3s-2.3,1-2.3,2.3S48.7,13.6,50,13.6z M50,90.9
	c1.3,0,2.3-1,2.3-2.3c0-1.3-1-2.3-2.3-2.3s-2.3,1-2.3,2.3C47.7,89.9,48.7,90.9,50,90.9z M68.2,52.3c1.3,0,2.3-1,2.3-2.3
	s-1-2.3-2.3-2.3c-1.3,0-2.3,1-2.3,2.3S66.9,52.3,68.2,52.3z M86.4,38.6c-1.3,0-2.3,1-2.3,2.3s1,2.3,2.3,2.3c3.8,0,6.8,3.1,6.8,6.8
	s-3.1,6.8-6.8,6.8c-1.3,0-2.3,1-2.3,2.3s1,2.3,2.3,2.3c6.3,0,11.4-5.1,11.4-11.4S92.6,38.6,86.4,38.6z M13.6,38.6
	c1.3,0,2.3,1,2.3,2.3s-1,2.3-2.3,2.3c-3.8,0-6.8,3.1-6.8,6.8s3.1,6.8,6.8,6.8c1.3,0,2.3,1,2.3,2.3s-1,2.3-2.3,2.3
	C7.4,61.4,2.3,56.3,2.3,50S7.4,38.6,13.6,38.6z M77.3,25c1.3,0,2.3-1,2.3-2.3s-1-2.3-2.3-2.3c-1.3,0-2.3,1-2.3,2.3S76,25,77.3,25z
	 M77.3,79.5c1.3,0,2.3-1,2.3-2.3c0-1.3-1-2.3-2.3-2.3C76,75,75,76,75,77.3C75,78.5,76,79.5,77.3,79.5z M22.7,79.5
	c1.3,0,2.3-1,2.3-2.3c0-1.3-1-2.3-2.3-2.3s-2.3,1-2.3,2.3C20.5,78.5,21.5,79.5,22.7,79.5z M22.7,25c1.3,0,2.3-1,2.3-2.3
	s-1-2.3-2.3-2.3s-2.3,1-2.3,2.3S21.5,25,22.7,25z M50,61.4c-6.3,0-11.4-5.1-11.4-11.4S43.7,38.6,50,38.6S61.4,43.7,61.4,50
	S56.3,61.4,50,61.4z M50,56.8c3.8,0,6.8-3.1,6.8-6.8s-3.1-6.8-6.8-6.8s-6.8,3.1-6.8,6.8S46.2,56.8,50,56.8z M90.9,15.9
	c-3.8,0-6.8-3.1-6.8-6.8s3.1-6.8,6.8-6.8c3.8,0,6.8,3.1,6.8,6.8S94.7,15.9,90.9,15.9z M90.9,11.4c1.3,0,2.3-1,2.3-2.3
	s-1-2.3-2.3-2.3c-1.3,0-2.3,1-2.3,2.3S89.7,11.4,90.9,11.4z M11.4,50c0-1.3,1-2.3,2.3-2.3h9.1c1.3,0,2.3,1,2.3,2.3s-1,2.3-2.3,2.3
	h-9.1C12.4,52.3,11.4,51.3,11.4,50z M75,50c0-1.3,1-2.3,2.3-2.3h9.1c1.3,0,2.3,1,2.3,2.3s-1,2.3-2.3,2.3h-9.1C76,52.3,75,51.3,75,50
	z M84.1,77.3c0-1.3,1-2.3,2.3-2.3h9.1c1.3,0,2.3,1,2.3,2.3c0,1.3-1,2.3-2.3,2.3h-9.1C85.1,79.5,84.1,78.5,84.1,77.3z M3.4,77.3
	c0-1.3,1-2.3,2.3-2.3h9.1c1.3,0,2.3,1,2.3,2.3c0,1.3-1,2.3-2.3,2.3H5.7C4.4,79.5,3.4,78.5,3.4,77.3z M3.4,22.7c0-1.3,1-2.3,2.3-2.3
	h9.1c1.3,0,2.3,1,2.3,2.3S16,25,14.8,25H5.7C4.4,25,3.4,24,3.4,22.7z M84.1,22.7c0-1.3,1-2.3,2.3-2.3h9.1c1.3,0,2.3,1,2.3,2.3
	s-1,2.3-2.3,2.3h-9.1C85.1,25,84.1,24,84.1,22.7z M90.9,97.7c-3.8,0-6.8-3.1-6.8-6.8c0-3.8,3.1-6.8,6.8-6.8c3.8,0,6.8,3.1,6.8,6.8
	C97.7,94.7,94.7,97.7,90.9,97.7z M90.9,93.2c1.3,0,2.3-1,2.3-2.3c0-1.3-1-2.3-2.3-2.3c-1.3,0-2.3,1-2.3,2.3
	C88.6,92.2,89.7,93.2,90.9,93.2z M9.1,97.7c-3.8,0-6.8-3.1-6.8-6.8c0-3.8,3.1-6.8,6.8-6.8s6.8,3.1,6.8,6.8
	C15.9,94.7,12.9,97.7,9.1,97.7z M9.1,93.2c1.3,0,2.3-1,2.3-2.3c0-1.3-1-2.3-2.3-2.3s-2.3,1-2.3,2.3C6.8,92.2,7.8,93.2,9.1,93.2z
	 M9.1,15.9c-3.8,0-6.8-3.1-6.8-6.8s3.1-6.8,6.8-6.8s6.8,3.1,6.8,6.8S12.9,15.9,9.1,15.9z M9.1,11.4c1.3,0,2.3-1,2.3-2.3
	s-1-2.3-2.3-2.3s-2.3,1-2.3,2.3S7.8,11.4,9.1,11.4z M50,52.3c1.3,0,2.3-1,2.3-2.3s-1-2.3-2.3-2.3s-2.3,1-2.3,2.3S48.7,52.3,50,52.3z
	"/>
</svg>
