<?xml version="1.0" encoding="utf-8"?>
<!-- Generator: Adobe Illustrator 24.1.2, SVG Export Plug-In . SVG Version: 6.00 Build 0)  -->
<svg version="1.1" id="Layer_1" xmlns="http://www.w3.org/2000/svg" xmlns:xlink="http://www.w3.org/1999/xlink" x="0px" y="0px"
	 viewBox="0 0 100 100" style="enable-background:new 0 0 100 100;" xml:space="preserve">
<style type="text/css">
	.st0{fill:#242424;}
</style>
<g id="Layer_1_1_">
	<path class="st0" d="M49.9,23.3v1.8H43C45.1,23.9,47.4,23.3,49.9,23.3z M26.8,25.1c0-1-0.8-1.8-1.8-1.8s-1.8,0.8-1.8,1.8h-3.6
		C15.3,18.4,7.9,14.3,0,14.3v-1.8c0.6,0,1.2,0,1.8,0.1v-0.1c0-1-0.8-1.8-1.8-1.8V9c1.8,0,3.4,1.4,3.5,3.2C4.3,11,5.1,9.8,6,8.7
		C4.7,6.6,2.5,5.4,0,5.4V3.6c2.9,0,5.6,1.4,7.3,3.8C8.1,6.5,9,5.7,10,5C7.6,1.9,3.9,0,0,0h6.9c1.8,1,3.3,2.4,4.5,4
		c1-0.6,2.1-1.2,3.1-1.7C14,1.5,13.4,0.7,12.7,0h2.4c0.4,0.5,0.8,1,1.2,1.6c1.2-0.4,2.3-0.8,3.6-1c-0.1-0.2-0.2-0.4-0.3-0.5h3.6v0.1
		c1.2-0.1,2.4-0.1,3.6,0V0h3.6l-0.3,0.5c1.2,0.3,2.4,0.6,3.6,1C34,1,34.4,0.5,34.8,0h2.4c-0.7,0.7-1.3,1.5-1.9,2.3
		c1.1,0.5,2.1,1.1,3.2,1.7c1.2-1.6,2.8-3,4.5-4h6.9c-4.1,0-7.7,2-10,5c1,0.7,1.9,1.5,2.7,2.4C44.3,5,47,3.6,49.9,3.6v1.8
		c-2.5,0-4.7,1.3-6,3.3c0.9,1.1,1.8,2.2,2.5,3.5c0.2-1.8,1.7-3.2,3.5-3.2v1.8c-1,0-1.8,0.8-1.8,1.8c0,0,0,0,0,0.1
		c0.6,0,1.2-0.1,1.8-0.1v1.8c-8.2,0-15.4,4.3-19.5,10.7H26.8z M6.9,25.1H0v-1.8C2.5,23.3,4.9,23.9,6.9,25.1z M49.9,17.9v1.8
		c-5,0-9.5,2.1-12.7,5.4h-2.4C38.4,20.7,43.9,17.9,49.9,17.9z M15.1,25.1h-2.4C9.5,21.8,5,19.7,0,19.7v-1.8
		C6.1,17.9,11.5,20.7,15.1,25.1z M28.5,24.7c0.7-1.2,1.6-2.4,2.5-3.5c-2.1-3.4-6.5-4.4-9.8-2.3c-0.9,0.6-1.7,1.3-2.2,2.3
		c0.9,1.1,1.8,2.2,2.5,3.5c0.2-2,1.9-3.4,3.9-3.2C27,21.7,28.4,23,28.5,24.7z M41.3,14.1c1.2-0.4,2.3-0.8,3.6-1
		C38.2,2,24-1.5,13,5.1c-3.2,2-6,4.7-7.9,8c1.2,0.3,2.4,0.6,3.6,1c6-9,18.2-11.5,27.2-5.4C38,10.1,39.8,12,41.3,14.1z M36.4,16.5
		c1-0.6,2.1-1.2,3.2-1.7C34,6.7,22.9,4.7,14.8,10.4c-1.7,1.2-3.2,2.7-4.4,4.4c1.1,0.5,2.1,1.1,3.2,1.7c4.7-6.4,13.6-7.7,19.9-3
		C34.6,14.4,35.6,15.4,36.4,16.5z M32.3,19.9c0.8-0.9,1.7-1.6,2.7-2.4C30.8,12,23,10.9,17.5,15c-1,0.7-1.8,1.6-2.5,2.5
		c1,0.7,1.9,1.5,2.7,2.4c2.8-4,8.4-5,12.4-2.2C30.9,18.3,31.7,19.1,32.3,19.9z"/>
	<path class="st0" d="M100,23.3v1.8h-6.9C95.1,23.9,97.5,23.3,100,23.3z M76.8,25.1c0-1-0.8-1.8-1.8-1.8s-1.8,0.8-1.8,1.8h-3.7
		c-4.3-6.7-11.7-10.8-19.6-10.7v-1.8c0.6,0,1.2,0,1.8,0.1v-0.1c0-1-0.8-1.8-1.8-1.8V9c1.8,0,3.4,1.4,3.6,3.2
		c0.7-1.2,1.6-2.4,2.5-3.5c-1.3-2.1-3.6-3.4-6.1-3.3V3.6c2.9,0,5.6,1.4,7.3,3.8C58.1,6.5,59,5.7,60,5c-2.4-3.2-6.1-5-10-5h6.9
		c1.8,1,3.3,2.4,4.6,4c1-0.6,2.1-1.2,3.2-1.7c-0.7-0.8-1.3-1.6-2-2.3h2.4c0.4,0.5,0.8,1,1.2,1.6c1.2-0.4,2.4-0.8,3.6-1
		c-0.1-0.2-0.2-0.4-0.3-0.5h3.7v0.1c1.2-0.1,2.4-0.1,3.6,0V0h3.7l-0.3,0.5c1.2,0.3,2.4,0.6,3.6,1C84,1,84.4,0.5,84.8,0h2.4
		c-0.7,0.7-1.3,1.5-1.9,2.3c1.1,0.5,2.2,1.1,3.2,1.7c1.2-1.6,2.8-3,4.5-4h6.9c-4.1,0-7.7,2-10,5c1,0.7,1.9,1.5,2.7,2.4
		C94.3,5,97,3.6,99.9,3.6v1.8c-2.5,0-4.7,1.3-6.1,3.3c0.9,1.1,1.8,2.2,2.5,3.5C96.6,10.3,98.2,9,100,9v1.8c-1,0-1.8,0.8-1.8,1.8
		c0,0,0,0,0,0.1c0.6,0,1.2-0.1,1.8-0.1v1.8c-8.2,0-15.5,4.3-19.6,10.7H76.8z M56.9,25.1H50v-1.8C52.5,23.3,54.8,23.9,56.9,25.1z
		 M100,17.9v1.8c-5,0-9.5,2.1-12.8,5.4h-2.4C88.4,20.7,93.9,17.9,100,17.9z M65.1,25.1h-2.4c-3.2-3.3-7.8-5.4-12.8-5.4v-1.8
		C56,17.9,61.5,20.7,65.1,25.1z M78.5,24.7c0.7-1.2,1.6-2.4,2.5-3.5c-2.1-3.4-6.5-4.4-9.9-2.3c-0.9,0.6-1.7,1.3-2.3,2.3
		c0.9,1.1,1.8,2.2,2.5,3.5c0.2-2,1.9-3.4,3.9-3.2C77,21.7,78.4,23,78.5,24.7z M91.3,14.1c1.2-0.4,2.4-0.8,3.6-1
		C88.3,2,74-1.5,63,5.1c-3.3,2-6,4.7-7.9,8c1.2,0.3,2.4,0.6,3.6,1c6-9,18.2-11.5,27.3-5.4C88,10.1,89.9,12,91.3,14.1z M86.4,16.5
		c1-0.6,2.1-1.2,3.2-1.7C84,6.7,72.8,4.7,64.7,10.4c-1.7,1.2-3.2,2.7-4.4,4.4c1.1,0.5,2.2,1.1,3.2,1.7c4.7-6.4,13.6-7.7,20-3
		C84.6,14.4,85.6,15.4,86.4,16.5z M82.3,19.9c0.8-0.9,1.8-1.6,2.7-2.4C80.9,12,73,10.9,67.5,15c-1,0.7-1.8,1.6-2.5,2.5
		c1,0.7,1.9,1.5,2.7,2.4c2.8-4,8.4-5,12.4-2.2C81,18.3,81.7,19.1,82.3,19.9z"/>
	<path class="st0" d="M50.1,48.2V50h-6.9C45.2,48.9,47.6,48.2,50.1,48.2z M26.9,50c0-1-0.8-1.8-1.8-1.8S23.3,49,23.3,50h-3.7
		C15.4,43.3,8,39.2,0,39.3v-1.8c0.6,0,1.2,0,1.8,0.1v-0.1c0-1-0.8-1.8-1.8-1.8v-1.8c1.8,0,3.4,1.4,3.6,3.2c0.7-1.2,1.6-2.4,2.5-3.5
		c-1.3-2.1-3.6-3.4-6.1-3.3v-1.8c2.9,0,5.6,1.4,7.3,3.8c0.8-0.9,1.8-1.6,2.7-2.4c-2.4-3.2-6.1-5-10-5h7c1.8,1,3.3,2.4,4.6,4
		c1-0.6,2.1-1.2,3.2-1.7c-0.6-0.8-1.2-1.6-1.9-2.3h2.4c0.4,0.5,0.8,1,1.2,1.6c1.2-0.4,2.4-0.8,3.6-1c-0.1-0.2-0.2-0.4-0.3-0.5h3.7
		l0,0c1.2-0.1,2.4-0.1,3.6,0v-0.1h3.7l-0.3,0.5c1.2,0.3,2.4,0.6,3.6,1c0.4-0.5,0.8-1.1,1.2-1.6h2.4c-0.7,0.7-1.3,1.5-1.9,2.3
		c1.1,0.5,2.2,1.1,3.2,1.7c1.2-1.6,2.8-3,4.5-4h6.9c-4.1,0-7.7,2-10,5c1,0.7,1.9,1.5,2.7,2.4c1.7-2.4,4.4-3.8,7.3-3.8v1.8
		c-2.5,0-4.7,1.3-6.1,3.3c0.9,1.1,1.8,2.2,2.5,3.5c0.2-1.8,1.7-3.2,3.6-3.2v1.8c-1,0-1.8,0.8-1.8,1.8c0,0,0,0,0,0.1
		c0.6,0,1.2-0.1,1.8-0.1v1.8c-8.2,0-15.5,4.3-19.6,10.7L26.9,50C26.9,49.9,26.9,50,26.9,50z M7,50H0v-1.8C2.6,48.2,4.9,48.9,7,50z
		 M50.1,42.8v1.8c-5,0-9.5,2.1-12.8,5.4h-2.4C38.5,45.6,44,42.8,50.1,42.8z M15.2,50h-2.4C9.6,46.7,5.1,44.6,0,44.6v-1.8
		C6.2,42.8,11.6,45.6,15.2,50z M28.6,49.6c0.7-1.2,1.6-2.4,2.5-3.5c-2.1-3.4-6.5-4.4-9.9-2.3c-0.9,0.6-1.7,1.3-2.3,2.3
		c0.9,1.1,1.8,2.2,2.5,3.5c0.2-2,1.9-3.4,3.9-3.2C27.1,46.6,28.5,47.9,28.6,49.6z M41.4,39c1.2-0.4,2.4-0.8,3.6-1
		c-6.6-11-20.9-14.6-31.9-8c-3.3,2-6,4.7-7.9,8c1.2,0.3,2.4,0.6,3.6,1c6-9,18.2-11.5,27.3-5.4C38.1,35,40,36.9,41.4,39z M36.6,41.4
		c1-0.6,2.1-1.2,3.2-1.7c-5.6-8.1-16.8-10.1-24.9-4.4c-1.7,1.2-3.2,2.7-4.4,4.4c1.1,0.5,2.2,1.1,3.2,1.7c4.7-6.4,13.6-7.7,20-3
		C34.7,39.3,35.7,40.3,36.6,41.4z M32.4,44.8c0.8-0.9,1.8-1.6,2.7-2.4c-4.1-5.5-12-6.7-17.5-2.5c-1,0.7-1.8,1.6-2.5,2.5
		c1,0.7,1.9,1.5,2.7,2.4c2.8-4,8.4-5,12.4-2.2C31.1,43.3,31.8,44,32.4,44.8z"/>
	<path class="st0" d="M100.2,48.2V50h-6.9C95.3,48.9,97.7,48.2,100.2,48.2z M76.9,50c0-1-0.8-1.8-1.8-1.8S73.3,49,73.3,50h-3.7
		C65.4,43.3,58,39.2,50.1,39.3v-1.8c0.6,0,1.2,0,1.8,0.1v-0.1c0-1-0.8-1.8-1.8-1.8v-1.8c1.8,0,3.4,1.4,3.6,3.2
		c0.7-1.2,1.6-2.4,2.5-3.5c-1.3-2.1-3.6-3.4-6.1-3.3v-1.8c2.9,0,5.6,1.4,7.3,3.8c0.8-0.9,1.8-1.6,2.7-2.4c-2.4-3.2-6.1-5-10-5H57
		c1.8,1,3.3,2.4,4.6,4c1-0.6,2.1-1.2,3.2-1.7c-0.6-0.8-1.2-1.6-1.9-2.3h2.4c0.4,0.5,0.8,1,1.2,1.6c1.2-0.4,2.4-0.8,3.6-1
		c-0.1-0.2-0.2-0.4-0.3-0.5h3.7l0,0c1.2-0.1,2.4-0.1,3.6,0v-0.1h3.7l-0.3,0.5c1.2,0.3,2.4,0.6,3.6,1c0.4-0.5,0.8-1.1,1.2-1.6h2.4
		c-0.7,0.7-1.3,1.5-1.9,2.3c1.1,0.5,2.2,1.1,3.2,1.7c1.2-1.6,2.8-3,4.5-4h6.9c-4.1,0-7.7,2-10,5c1,0.7,1.9,1.5,2.7,2.4
		c1.7-2.4,4.4-3.8,7.3-3.8v1.8c-2.5,0-4.7,1.3-6.1,3.3c0.9,1.1,1.8,2.2,2.5,3.5c0.2-1.8,1.7-3.2,3.6-3.2v1.8c-1,0-1.8,0.8-1.8,1.8
		c0,0,0,0,0,0.1c0.6,0,1.2-0.1,1.8-0.1v1.8c-8.2,0-15.5,4.3-19.6,10.7L76.9,50L76.9,50L76.9,50z M57,50h-6.9v-1.8
		C52.6,48.2,55,48.9,57,50z M100.2,42.8v1.8c-5,0-9.5,2.1-12.8,5.4H85C88.6,45.6,94.1,42.8,100.2,42.8z M65.3,50h-2.4
		c-3.2-3.3-7.8-5.4-12.8-5.4v-1.8C56.2,42.8,61.7,45.6,65.3,50z M78.7,49.6c0.7-1.2,1.6-2.4,2.5-3.5c-2.1-3.4-6.5-4.4-9.9-2.3
		c-0.9,0.6-1.7,1.3-2.3,2.3c0.9,1.1,1.8,2.2,2.5,3.5c0.2-2,1.9-3.4,3.9-3.2C77.2,46.6,78.5,47.9,78.7,49.6z M91.5,39
		c1.2-0.4,2.4-0.8,3.6-1c-6.6-11-20.9-14.6-31.9-8c-3.3,2-6,4.7-7.9,8c1.2,0.3,2.4,0.6,3.6,1c6-9,18.2-11.5,27.3-5.4
		C88.2,35,90,36.9,91.5,39z M86.6,41.4c1-0.6,2.1-1.2,3.2-1.7c-5.6-8.1-16.8-10.1-24.9-4.4c-1.7,1.2-3.2,2.7-4.4,4.4
		c1.1,0.5,2.2,1.1,3.2,1.7c4.7-6.4,13.6-7.7,20-3C84.8,39.3,85.8,40.3,86.6,41.4z M82.4,44.8c0.8-0.9,1.8-1.6,2.7-2.4
		c-4.1-5.5-12-6.7-17.5-2.5c-1,0.7-1.8,1.6-2.5,2.5c1,0.7,1.9,1.5,2.7,2.4c2.8-4,8.4-5,12.4-2.2C81.1,43.3,81.8,44,82.4,44.8z"/>
	<path class="st0" d="M50,73.3v1.8h-6.9C45.1,73.9,47.5,73.3,50,73.3z M26.8,75.1c0-1-0.8-1.8-1.8-1.8s-1.8,0.8-1.8,1.8h-3.6
		C15.3,68.4,7.9,64.3,0,64.3v-1.8c0.6,0,1.2,0,1.8,0.1v-0.1c0-1-0.8-1.8-1.8-1.8V59c1.8,0,3.4,1.4,3.5,3.2C4.2,61,5.1,59.8,6,58.7
		c-1.3-2.1-3.6-3.4-6-3.3v-1.8c2.9,0,5.6,1.4,7.3,3.8C8.1,56.5,9,55.8,10,55c-2.3-3.1-6-5-10-5h6.9c1.8,1,3.3,2.4,4.5,4
		c1-0.6,2.1-1.2,3.1-1.7c-0.6-0.8-1.2-1.6-1.9-2.3H15c0.4,0.5,0.8,1,1.2,1.6c1.2-0.4,2.3-0.8,3.6-1c-0.1-0.2-0.2-0.4-0.3-0.5h3.6
		v0.1c1.2-0.1,2.4-0.1,3.6,0V50h3.6L30,50.5c1.2,0.3,2.4,0.6,3.6,1c0.4-0.5,0.7-1.1,1.2-1.6h2.4c-0.7,0.7-1.3,1.5-1.9,2.3
		c1.1,0.5,2.1,1.1,3.2,1.7c1.2-1.6,2.8-3,4.5-4h7c-4.1,0-7.7,2-10,5c1,0.7,1.9,1.5,2.7,2.4c1.7-2.4,4.4-3.8,7.3-3.8v1.8
		c-2.5,0-4.7,1.3-6,3.3c0.9,1.1,1.8,2.2,2.5,3.5c0.2-1.8,1.7-3.2,3.5-3.2v1.8c-1,0-1.8,0.8-1.8,1.8c0,0,0,0,0,0.1
		c0.6,0,1.2-0.1,1.8-0.1v1.8c-8.2,0-15.4,4.3-19.5,10.7L26.8,75.1L26.8,75.1z M6.9,75.1H0v-1.8C2.5,73.3,4.9,73.9,6.9,75.1z
		 M50,67.9v1.8c-5,0-9.5,2.1-12.7,5.4h-2.4C38.4,70.7,43.9,67.9,50,67.9z M15.2,75.1h-2.4C9.5,71.8,5,69.7,0,69.7v-1.8
		C6.1,67.9,11.6,70.7,15.2,75.1z M28.5,74.7c0.7-1.2,1.6-2.4,2.5-3.5c-2.1-3.4-6.5-4.4-9.8-2.3c-0.9,0.6-1.7,1.3-2.2,2.3
		c0.9,1.1,1.8,2.2,2.5,3.5c0.2-2,1.9-3.4,3.9-3.2C27,71.7,28.4,73,28.5,74.7z M41.3,64.1c1.2-0.4,2.3-0.8,3.6-1
		C38.3,52,24,48.5,13,55.1c-3.2,2-6,4.7-7.9,8c1.2,0.3,2.4,0.6,3.6,1c6-9,18.2-11.5,27.2-5.4C38,60.1,39.9,62,41.3,64.1z M36.4,66.5
		c1-0.6,2.1-1.2,3.2-1.7c-5.6-8.1-16.7-10.1-24.8-4.4c-1.7,1.2-3.2,2.7-4.4,4.4c1.1,0.5,2.1,1.1,3.2,1.7c4.7-6.4,13.6-7.7,19.9-3
		C34.6,64.4,35.6,65.4,36.4,66.5z M32.3,69.9c0.8-0.9,1.7-1.6,2.7-2.4C30.9,62,23.1,60.9,17.5,65c-1,0.7-1.8,1.6-2.5,2.5
		c1,0.7,1.9,1.5,2.7,2.4c2.8-4,8.4-5,12.4-2.2C31,68.3,31.7,69.1,32.3,69.9z"/>
	<path class="st0" d="M100,73.3v1.8h-6.9C95.2,73.9,97.5,73.3,100,73.3z M76.8,75.1c0-1-0.8-1.8-1.8-1.8s-1.8,0.8-1.8,1.8h-3.7
		C65.3,68.4,57.9,64.3,50,64.3v-1.8c0.6,0,1.2,0,1.8,0.1v-0.1c0-1-0.8-1.8-1.8-1.8V59c1.8,0,3.4,1.4,3.6,3.2
		c0.7-1.2,1.6-2.4,2.5-3.5c-1.3-2.1-3.6-3.4-6.1-3.3v-1.8c2.9,0,5.6,1.4,7.3,3.8c0.8-0.9,1.8-1.6,2.7-2.4c-2.4-3.2-6.1-5-10-5h6.9
		c1.8,1,3.3,2.4,4.6,4c1-0.6,2.1-1.2,3.2-1.7c-0.6-0.8-1.2-1.6-1.9-2.3h2.4c0.4,0.5,0.8,1,1.2,1.6c1.2-0.4,2.4-0.8,3.6-1
		c-0.1-0.2-0.2-0.4-0.3-0.5h3.7v0.1c1.2-0.1,2.4-0.1,3.6,0V50h3.7l-0.3,0.5c1.2,0.3,2.4,0.6,3.6,1c0.4-0.5,0.8-1.1,1.2-1.6h2.4
		c-0.7,0.7-1.3,1.5-1.9,2.3c1.1,0.5,2.2,1.1,3.2,1.7c1.2-1.6,2.8-3,4.5-4h6.9c-4.1,0-7.7,2-10,5c1,0.7,1.9,1.5,2.7,2.4
		c1.7-2.4,4.4-3.8,7.3-3.8v1.8c-2.5,0-4.7,1.3-6.1,3.3c0.9,1.1,1.8,2.2,2.5,3.5c0.2-1.8,1.7-3.2,3.6-3.2v1.8c-1,0-1.8,0.8-1.8,1.8
		c0,0,0,0,0,0.1c0.6,0,1.2-0.1,1.8-0.1v1.8c-8.2,0-15.5,4.3-19.6,10.7L76.8,75.1L76.8,75.1z M56.9,75.1H50v-1.8
		C52.5,73.3,54.8,73.9,56.9,75.1z M100,67.9v1.8c-5,0-9.5,2.1-12.8,5.4h-2.4C88.5,70.7,93.9,67.9,100,67.9z M65.1,75.1h-2.4
		c-3.2-3.3-7.8-5.4-12.8-5.4v-1.8C56.1,67.9,61.5,70.7,65.1,75.1z M78.6,74.7c0.7-1.2,1.6-2.4,2.5-3.5c-2.1-3.4-6.5-4.4-9.9-2.3
		c-0.9,0.6-1.7,1.3-2.3,2.3c0.9,1.1,1.8,2.2,2.5,3.5c0.2-2,1.9-3.4,3.9-3.2C77,71.7,78.4,73,78.6,74.7z M91.3,64.1
		c1.2-0.4,2.4-0.8,3.6-1C88.3,52,74,48.5,63,55.1c-3.3,2-6,4.7-7.9,8c1.2,0.3,2.4,0.6,3.6,1c6-9,18.2-11.5,27.3-5.4
		C88.1,60.1,89.9,62,91.3,64.1z M86.5,66.5c1-0.6,2.1-1.2,3.2-1.7c-5.6-8.1-16.8-10.1-24.9-4.4c-1.7,1.2-3.2,2.7-4.4,4.4
		c1.1,0.5,2.2,1.1,3.2,1.7c4.7-6.4,13.6-7.7,20-3C84.6,64.4,85.6,65.4,86.5,66.5z M82.3,69.9c0.8-0.9,1.8-1.6,2.7-2.4
		C80.9,62,73,60.9,67.5,65c-1,0.7-1.8,1.6-2.5,2.5c1,0.7,1.9,1.5,2.7,2.4c2.8-4,8.4-5,12.4-2.2C81,68.3,81.7,69.1,82.3,69.9z"/>
	<path class="st0" d="M50.1,98.2v1.8h-6.9C45.3,98.9,47.6,98.2,50.1,98.2z M26.9,100c0-1-0.8-1.8-1.8-1.8s-1.8,0.8-1.8,1.8h-3.7
		C15.4,93.3,8,89.2,0.1,89.3v-1.8c0.6,0,1.2,0,1.8,0.1v-0.1c0-1-0.8-1.8-1.8-1.8v-1.8c1.8,0,3.4,1.4,3.6,3.2
		c0.7-1.2,1.6-2.4,2.5-3.5c-1.3-2.1-3.6-3.4-6.1-3.3v-1.8c2.9,0,5.6,1.4,7.3,3.8c0.8-0.9,1.8-1.6,2.7-2.4c-2.4-3.2-6.1-5-10-5H7
		c1.8,1,3.3,2.4,4.6,4c1-0.6,2.1-1.2,3.2-1.7c-0.6-0.8-1.2-1.6-1.9-2.3h2.4c0.4,0.5,0.8,1,1.2,1.6c1.2-0.4,2.4-0.8,3.6-1
		c-0.1-0.2-0.2-0.4-0.3-0.5h3.7l0,0c1.2-0.1,2.4-0.1,3.6,0v-0.1h3.7l-0.3,0.5c1.2,0.3,2.4,0.6,3.6,1c0.4-0.5,0.8-1.1,1.2-1.6h2.4
		c-0.7,0.7-1.3,1.5-1.9,2.3c1.1,0.5,2.2,1.1,3.2,1.7c1.2-1.6,2.8-3,4.5-4h6.9c-4.1,0-7.7,2-10,5c1,0.7,1.9,1.5,2.7,2.4
		c1.7-2.4,4.4-3.8,7.3-3.8v1.8c-2.5,0-4.7,1.3-6.1,3.3c0.9,1.1,1.8,2.2,2.5,3.5c0.2-1.8,1.7-3.2,3.6-3.2v1.8c-1,0-1.8,0.8-1.8,1.8
		c0,0,0,0,0,0.1c0.6,0,1.2-0.1,1.8-0.1v1.8c-8.2,0-15.5,4.3-19.6,10.7L26.9,100L26.9,100z M7,100H0.1v-1.8C2.6,98.2,5,98.9,7,100z
		 M50.1,92.8v1.8c-5,0-9.5,2.1-12.8,5.4H35C38.6,95.6,44,92.8,50.1,92.8z M15.2,100h-2.4C9.6,96.7,5,94.6,0,94.6v-1.8
		C6.2,92.8,11.6,95.6,15.2,100z M28.7,99.6c0.7-1.2,1.6-2.4,2.5-3.5c-2.1-3.4-6.5-4.4-9.9-2.3c-0.9,0.6-1.7,1.3-2.3,2.3
		c0.9,1.1,1.8,2.2,2.5,3.5c0.2-2,1.9-3.4,3.9-3.2C27.2,96.6,28.5,97.9,28.7,99.6z M41.4,89c1.2-0.4,2.4-0.8,3.6-1
		c-6.6-11-20.9-14.6-31.9-8c-3.3,2-6,4.7-7.9,8c1.2,0.3,2.4,0.6,3.6,1c6-9,18.2-11.5,27.3-5.4C38.2,85,40,86.9,41.4,89z M36.6,91.4
		c1-0.6,2.1-1.2,3.2-1.7c-5.6-8.1-16.8-10.1-24.9-4.4c-1.7,1.2-3.2,2.7-4.4,4.4c1.1,0.5,2.2,1.1,3.2,1.7c4.7-6.4,13.6-7.7,20-3
		C34.7,89.3,35.7,90.3,36.6,91.4z M32.4,94.8c0.8-0.9,1.8-1.6,2.7-2.4c-4.1-5.5-12-6.7-17.5-2.5c-1,0.7-1.8,1.6-2.5,2.5
		c1,0.7,1.9,1.5,2.7,2.4c2.8-4,8.4-5,12.4-2.2C31.1,93.3,31.8,94,32.4,94.8z"/>
	<path class="st0" d="M100.2,98.2v1.8h-6.9C95.3,98.9,97.7,98.2,100.2,98.2z M76.9,100c0-1-0.8-1.8-1.8-1.8s-1.8,0.8-1.8,1.8h-3.7
		C65.3,93.3,57.9,89.2,50,89.3v-1.8c0.6,0,1.2,0,1.8,0.1v-0.1c0-1-0.8-1.8-1.8-1.8v-1.8c1.8,0,3.4,1.4,3.6,3.2
		c0.7-1.2,1.6-2.4,2.5-3.5c-1.3-2.1-3.6-3.4-6.1-3.3v-1.8c2.9,0,5.6,1.4,7.3,3.8c0.8-0.9,1.8-1.6,2.7-2.4c-2.4-3.2-6.1-5-10-5h6.9
		c1.8,1,3.3,2.4,4.6,4c1-0.6,2.1-1.2,3.2-1.7c-0.6-0.8-1.2-1.6-1.9-2.3h2.4c0.4,0.5,0.8,1,1.2,1.6c1.2-0.4,2.4-0.8,3.6-1
		c-0.1-0.2-0.2-0.4-0.3-0.5h3.7l0,0c1.2-0.1,2.4-0.1,3.6,0v-0.1h3.7l-0.3,0.5c1.2,0.3,2.4,0.6,3.6,1c0.4-0.5,0.8-1.1,1.2-1.6h2.4
		c-0.7,0.7-1.3,1.5-1.9,2.3c1.1,0.5,2.2,1.1,3.2,1.7c1.2-1.6,2.8-3,4.5-4h6.9c-4.1,0-7.7,2-10,5c1,0.7,1.9,1.5,2.7,2.4
		c1.7-2.4,4.4-3.8,7.3-3.8v1.8c-2.5,0-4.7,1.3-6.1,3.3c0.9,1.1,1.8,2.2,2.5,3.5c0.2-1.8,1.7-3.2,3.6-3.2v1.8c-1,0-1.8,0.8-1.8,1.8
		c0,0,0,0,0,0.1c0.6,0,1.2-0.1,1.8-0.1v1.8c-8.2,0-15.5,4.3-19.6,10.7L76.9,100L76.9,100z M57.1,100h-6.9v-1.8
		C52.6,98.2,55,98.9,57.1,100z M100.2,92.8v1.8c-5,0-9.5,2.1-12.8,5.4H85C88.6,95.6,94.1,92.8,100.2,92.8z M65.3,100h-2.4
		c-3.2-3.3-7.8-5.4-12.8-5.4v-1.8C56.2,92.8,61.7,95.6,65.3,100z M78.7,99.6c0.7-1.2,1.6-2.4,2.5-3.5c-2.1-3.4-6.5-4.4-9.9-2.3
		c-0.9,0.6-1.7,1.3-2.3,2.3c0.9,1.1,1.8,2.2,2.5,3.5c0.2-2,1.9-3.4,3.9-3.2C77.2,96.6,78.5,97.9,78.7,99.6z M91.5,89
		c1.2-0.4,2.4-0.8,3.6-1c-6.6-11-20.9-14.6-31.9-8c-3.3,2-6,4.7-7.9,8c1.2,0.3,2.4,0.6,3.6,1c6-9,18.2-11.5,27.3-5.4
		C88.2,85,90.1,86.9,91.5,89z M86.6,91.4c1-0.6,2.1-1.2,3.2-1.7c-5.6-8.1-16.8-10.1-24.9-4.4c-1.7,1.2-3.2,2.7-4.4,4.4
		c1.1,0.5,2.2,1.1,3.2,1.7c4.7-6.4,13.6-7.7,20-3C84.8,89.3,85.8,90.3,86.6,91.4z M82.5,94.8c0.8-0.9,1.8-1.6,2.7-2.4
		c-4.1-5.5-12-6.7-17.5-2.5c-1,0.7-1.8,1.6-2.5,2.5c1,0.7,1.9,1.5,2.7,2.4c2.8-4,8.4-5,12.4-2.2C81.1,93.3,81.9,94,82.5,94.8z"/>
</g>
</svg>
