<?xml version="1.0" encoding="utf-8"?>
<!-- Generator: Adobe Illustrator 24.1.2, SVG Export Plug-In . SVG Version: 6.00 Build 0)  -->
<svg version="1.1" id="Layer_1" xmlns="http://www.w3.org/2000/svg" xmlns:xlink="http://www.w3.org/1999/xlink" x="0px" y="0px"
	 viewBox="0 0 100 100" style="enable-background:new 0 0 100 100;" xml:space="preserve">
<style type="text/css">
	.st0{fill-rule:evenodd;clip-rule:evenodd;fill:#242424;}
</style>
<desc>Created with Sketch.</desc>
<g id="Page-1">
	<g id="morphing-diamonds">
		<path id="Combined-Shape" class="st0" d="M91,0l1.4,1.4l-2.4,2.4L86.3,0H91L91,0z M9,0L7.6,1.4l2.4,2.4L13.7,0H9L9,0z M81.6,0
			l6.1,6.1l-2.4,2.4L76.9,0H81.6L81.6,0z M18.4,0l-6.1,6.1l2.4,2.4L23.1,0H18.4L18.4,0z M72.2,0L83,10.8l-2.4,2.4L67.5,0H72.2
			L72.2,0z M27.8,0L17,10.8l2.4,2.4L32.5,0H27.8L27.8,0z M62.8,0l15.5,15.5l-2.4,2.4L58,0H62.8L62.8,0z M37.2,0L21.7,15.5l2.4,2.4
			L42,0H37.2L37.2,0z M53.3,0l20.2,20.2l-2.4,2.4L50,1.4L28.8,22.6l-2.4-2.4L46.7,0H53.3L53.3,0z M0.5,0l46.7,46.7L44.8,49L0,4.2V0
			H0.5L0.5,0z M0,9l42.4,42.4l-2.4,2.4L0,13.7V9L0,9z M0,18.4l37.7,37.7l-2.4,2.4L0,23.1V18.4L0,18.4z M0,27.8l33,33l-2.4,2.4
			L0,32.5V27.8L0,27.8z M0,37.2l28.3,28.3l-2.4,2.4L0,42V37.2L0,37.2z M0,46.7l23.6,23.6l-2.4,2.4L0,51.4V46.7L0,46.7z M0,56.1
			L18.9,75l-2.4,2.4L0,60.8V56.1L0,56.1z M0,65.5l14.1,14.1L11.8,82L0,70.2V65.5L0,65.5z M0,75l9.4,9.4l-2.4,2.4L0,79.7V75L0,75z
			 M0,84.4l4.7,4.7l-2.4,2.4L0,89.1V84.4L0,84.4z M91,100L50,59L9,100h4.7L50,63.7L86.3,100H91L91,100z M81.6,100L50,68.4L18.4,100
			h4.7L50,73.1L76.9,100H81.6L81.6,100z M72.2,100L50,77.8L27.8,100h4.7L50,82.5L67.5,100H72.2L72.2,100z M62.8,100L50,87.2
			L37.2,100H42l8-8l8,8H62.8L62.8,100z M53.3,100L50,96.7l-3.3,3.3H53.3L53.3,100z M99.5,0L52.9,46.7l2.4,2.4L100,4.2V0H99.5L99.5,0
			z M100,9L57.6,51.4l2.4,2.4L100,13.7V9L100,9z M100,18.4L62.3,56.1l2.4,2.4L100,23.1V18.4L100,18.4z M100,27.8l-33,33l2.4,2.4
			L100,32.5V27.8L100,27.8z M100,37.2L71.7,65.5l2.4,2.4L100,42V37.2L100,37.2z M100,46.7L76.4,70.2l2.4,2.4L100,51.4V46.7L100,46.7
			z M100,56.1L81.1,75l2.4,2.4L100,60.8V56.1L100,56.1z M100,65.5L85.9,79.7l2.4,2.4L100,70.2V65.5L100,65.5z M100,75l-9.4,9.4
			l2.4,2.4l7.1-7.1V75L100,75z M100,84.4l-4.7,4.7l2.4,2.4l2.4-2.4V84.4L100,84.4z M66.5,27.3l2.4-2.4L50,6.1L31.1,25l2.4,2.4
			L50,10.8L66.5,27.3L66.5,27.3z M61.8,32l2.4-2.4L50,15.5L35.9,29.7l2.4,2.4L50,20.2L61.8,32L61.8,32z M57.1,36.7l2.4-2.4L50,25
			l-9.4,9.4l2.4,2.4l7.1-7.1L57.1,36.7L57.1,36.7z M52.4,41.5l2.4-2.4L50,34.4l-4.7,4.7l2.4,2.4l2.4-2.4L52.4,41.5L52.4,41.5z
			 M94.8,99l2.4-2.4L50,49.5L2.9,96.7L5.2,99L50,54.2L94.8,99L94.8,99z"/>
	</g>
</g>
</svg>
