<?xml version="1.0" encoding="utf-8"?>
<!-- Generator: Adobe Illustrator 24.1.2, SVG Export Plug-In . SVG Version: 6.00 Build 0)  -->
<svg version="1.1" id="Layer_1" xmlns="http://www.w3.org/2000/svg" xmlns:xlink="http://www.w3.org/1999/xlink" x="0px" y="0px"
	 viewBox="0 0 100 100" style="enable-background:new 0 0 100 100;" xml:space="preserve">
<style type="text/css">
	.st0{fill:#242424;}
</style>
<g>
	<g id="hexagons">
		<path class="st0" d="M12.5,9.5l11.7,7.7v15.4l-11.7,7.7L0.9,32.5V17.2L12.5,9.5z M2.7,18.3v13l9.9,6.5l9.9-6.5v-13l-9.9-6.5
			L2.7,18.3z M0,15.4l11.6-7.7V0H9.8v6.5L0,13V15.4L0,15.4z M0,34.3L11.6,42v8.2H9.8v-7L0,36.7V34.3L0,34.3z M13.5,0v7.7l11.7,7.7
			l0,0V13l0,0l-9.9-6.5V0H13.5z M13.5,50.2V42l11.7-7.7l0,0v2.4l0,0l-9.9,6.5v7H13.5z"/>
	</g>
</g>
<g>
	<g id="hexagons_1_">
		<path class="st0" d="M37.5,9.5l11.7,7.7v15.4l-11.7,7.7l-11.7-7.7V17.2L37.5,9.5z M27.7,18.3v13l9.9,6.5l9.9-6.5v-13l-9.9-6.5
			L27.7,18.3z M25,15.4l11.6-7.7V0h-1.8v6.5L25,13V15.4L25,15.4z M25,34.3L36.6,42v8.2h-1.8v-7L25,36.7V34.3L25,34.3z M38.4,0v7.7
			l11.7,7.7l0,0V13l0,0l-9.9-6.5V0H38.4z M38.4,50.2V42l11.7-7.7l0,0v2.4l0,0l-9.9,6.5v7H38.4z"/>
	</g>
</g>
<g>
	<g id="hexagons_3_">
		<path class="st0" d="M62.4,9.5l11.7,7.7v15.4l-11.7,7.7l-11.7-7.7V17.2L62.4,9.5z M52.6,18.3v13l9.9,6.5l9.9-6.5v-13l-9.9-6.5
			L52.6,18.3z M49.9,15.4l11.6-7.7V0h-1.8v6.5L49.9,13V15.4L49.9,15.4z M49.9,34.3L61.5,42v8.2h-1.8v-7l-9.8-6.5V34.3L49.9,34.3z
			 M63.4,0v7.7L75,15.4l0,0V13l0,0l-9.9-6.5V0H63.4z M63.4,50.2V42L75,34.3l0,0v2.4l0,0l-9.9,6.5v7H63.4z"/>
	</g>
</g>
<g>
	<g id="hexagons_2_">
		<path class="st0" d="M87.4,9.5l11.7,7.7v15.4l-11.7,7.7l-11.7-7.7V17.2L87.4,9.5z M77.6,18.3v13l9.9,6.5l9.9-6.5v-13l-9.9-6.5
			L77.6,18.3z M74.9,15.4l11.6-7.7V0h-1.8v6.5L74.9,13V15.4L74.9,15.4z M74.9,34.3L86.5,42v8.2h-1.8v-7l-9.8-6.5L74.9,34.3
			L74.9,34.3z M88.3,0v7.7l11.7,7.7l0,0V13l0,0l-9.9-6.5V0H88.3z M88.3,50.2V42l11.7-7.7l0,0v2.4l0,0l-9.9,6.5v7H88.3z"/>
	</g>
</g>
<g>
	<g id="hexagons_7_">
		<path class="st0" d="M12.5,59.3L24.2,67v15.4L12.5,90L0.9,82.3V67L12.5,59.3z M2.7,68.2v13l9.9,6.5l9.9-6.5v-13l-9.9-6.5L2.7,68.2
			z M0,65.2l11.6-7.7v-7.7H9.8v6.5L0,62.8V65.2L0,65.2z M0,84.1l11.6,7.7v8.2H9.8v-7L0,86.5V84.1L0,84.1z M13.5,49.8v7.7l11.7,7.7
			l0,0v-2.4l0,0l-9.9-6.5v-6.5C15.3,49.8,13.5,49.8,13.5,49.8z M13.5,100v-8.2l11.7-7.7l0,0v2.4l0,0l-10,6.5v7H13.5z"/>
	</g>
</g>
<g>
	<g id="hexagons_6_">
		<path class="st0" d="M37.5,59.3L49.2,67v15.4L37.5,90l-11.7-7.7V67L37.5,59.3z M27.7,68.2v13l9.9,6.5l9.9-6.5v-13l-9.9-6.5
			L27.7,68.2z M25,65.2l11.6-7.7v-7.7h-1.8v6.5L25,62.8V65.2L25,65.2z M25,84.1l11.6,7.7v8.2h-1.8v-7L25,86.5V84.1L25,84.1z
			 M38.4,49.8v7.7l11.7,7.7l0,0v-2.4l0,0l-9.9-6.5v-6.5C40.2,49.8,38.4,49.8,38.4,49.8z M38.4,100v-8.2l11.7-7.7l0,0v2.4l0,0
			L40.2,93v7H38.4z"/>
	</g>
</g>
<g>
	<g id="hexagons_5_">
		<path class="st0" d="M62.4,59.3L74.1,67v15.4L62.4,90l-11.7-7.7V67L62.4,59.3z M52.6,68.2v13l9.9,6.5l9.9-6.5v-13l-9.9-6.5
			L52.6,68.2z M49.9,65.2l11.6-7.7v-7.7h-1.8v6.5l-9.8,6.5V65.2L49.9,65.2z M49.9,84.1l11.6,7.7v8.2h-1.8v-7l-9.8-6.5V84.1
			L49.9,84.1z M63.4,49.8v7.7L75,65.2l0,0v-2.4l0,0l-9.9-6.5v-6.5C65.1,49.8,63.4,49.8,63.4,49.8z M63.4,100v-8.2L75,84.1l0,0v2.4
			l0,0L65.1,93v7H63.4z"/>
	</g>
</g>
<g>
	<g id="hexagons_4_">
		<path class="st0" d="M87.4,59.3L99.1,67v15.4L87.4,90l-11.7-7.7V67L87.4,59.3z M77.6,68.2v13l9.9,6.5l9.9-6.5v-13l-9.9-6.5
			L77.6,68.2z M74.9,65.2l11.6-7.7v-7.7h-1.8v6.5l-9.8,6.5L74.9,65.2L74.9,65.2z M74.9,84.1l11.6,7.7v8.2h-1.8v-7l-9.8-6.5
			L74.9,84.1L74.9,84.1z M88.3,49.8v7.7l11.7,7.7l0,0v-2.4l0,0l-9.9-6.5v-6.5C90.1,49.8,88.3,49.8,88.3,49.8z M88.3,100v-8.2
			l11.7-7.7l0,0v2.4l0,0L90.1,93v7H88.3z"/>
	</g>
</g>
</svg>
