<?xml version="1.0" encoding="utf-8"?>
<!-- Generator: Adobe Illustrator 24.1.2, SVG Export Plug-In . SVG Version: 6.00 Build 0)  -->
<svg version="1.1" id="Layer_1" xmlns="http://www.w3.org/2000/svg" xmlns:xlink="http://www.w3.org/1999/xlink" x="0px" y="0px"
	 viewBox="0 0 100 100" style="enable-background:new 0 0 100 100;" xml:space="preserve">
<style type="text/css">
	.st0{fill-rule:evenodd;clip-rule:evenodd;fill:#242424;}
</style>
<desc>Created with Sketch.</desc>
<g id="Page-1">
	<g id="line-in-motion">
		<path id="Combined-Shape" class="st0" d="M0,92.5v-1.7h16.7v1.7H0z M0.7,71.6l0.8-1.4L16,78.4l-0.8,1.4L0.7,71.6z M17.4,88.2
			l0.8-1.4l14.4,8.3l-0.8,1.4L17.4,88.2z M3.4,51.5l1.4-0.8l8.3,14.4L11.8,66L3.4,51.5z M36.8,84.9l1.4-0.8l8.3,14.4l-1.4,0.8
			L36.8,84.9z M7.5,33.3h1.7V50H7.5V33.3z M57.5,83.3h1.7V100h-1.7V83.3z M11.7,17.2l1.4,0.8L4.8,32.5l-1.4-0.8L11.7,17.2z
			 M78.3,83.9l1.4,0.8l-8.3,14.4L70,98.3L78.3,83.9z M15.1,3.4L16,4.9L1.5,13.2l-0.8-1.4L15.1,3.4z M98.5,86.8l0.8,1.4l-14.4,8.3
			L84,95.1L98.5,86.8z M20.1,68.2l1.4-0.8l8.3,14.4l-1.4,0.8L20.1,68.2z M24.2,50h1.7v16.7h-1.7V50z M28.3,33.9l1.4,0.8l-8.3,14.4
			L20,48.3L28.3,33.9z M31.8,20.1l0.8,1.4l-14.4,8.3l-0.8-1.4L31.8,20.1z M33.3,7.5v1.7H16.6V7.5H33.3z M34,4.9l0.8-1.4l14.4,8.3
			l-0.8,1.4L34,4.9z M40.8,66.7h1.7v16.7h-1.7V66.7z M45,50.6l1.4,0.8l-8.3,14.4L36.7,65L45,50.6z M48.5,36.8l0.8,1.4l-14.4,8.3
			L34,45.1L48.5,36.8z M50,24.2v1.7H33.3v-1.7H50z M50.7,21.6l0.8-1.4L66,28.4l-0.8,1.4L50.7,21.6z M53.4,1.5l1.4-0.8l8.3,14.4
			L61.8,16L53.4,1.5z M61.7,67.2l1.4,0.8l-8.3,14.4l-1.4-0.8L61.7,67.2z M65.1,53.4l0.8,1.4l-14.4,8.3l-0.8-1.4L65.1,53.4z
			 M66.7,40.8v1.7H50v-1.7H66.7z M67.4,38.2l0.8-1.4l14.4,8.3l-0.8,1.4L67.4,38.2z M70.1,18.2l1.4-0.8l8.3,14.4l-1.4,0.8L70.1,18.2z
			 M74.2,0h1.7v16.7h-1.7V0z M81.8,70.1l0.8,1.4l-14.4,8.3l-0.8-1.4L81.8,70.1z M83.3,57.5v1.7H66.7v-1.7H83.3z M84,54.9l0.8-1.4
			l14.4,8.3l-0.8,1.4L84,54.9z M86.8,34.9l1.4-0.8l8.3,14.4l-1.4,0.8L86.8,34.9z M90.8,16.7h1.7v16.7h-1.7V16.7z M95,0.6l1.4,0.8
			l-8.3,14.4L86.7,15L95,0.6z M100,74.2v1.7H83.3v-1.7H100z"/>
	</g>
</g>
</svg>
