<?xml version="1.0" encoding="utf-8"?>
<!-- Generator: Adobe Illustrator 24.1.2, SVG Export Plug-In . SVG Version: 6.00 Build 0)  -->
<svg version="1.1" id="Layer_1" xmlns="http://www.w3.org/2000/svg" xmlns:xlink="http://www.w3.org/1999/xlink" x="0px" y="0px"
	 viewBox="0 0 100 100" style="enable-background:new 0 0 100 100;" xml:space="preserve">
<style type="text/css">
	.st0{fill-rule:evenodd;clip-rule:evenodd;fill:#242424;}
</style>
<desc>Created with Sketch.</desc>
<g id="Page-1">
	<g id="melt">
		<path id="Combined-Shape" class="st0" d="M20.9,18c0-1.1,0.9-2,2.1-2s2.1-0.9,2.1-2l0,0v6h-4.2C20.9,20,20.9,18,20.9,18z M0,14
			c0-1.1,0.9-2,2.1-2s2.1,0.9,2.1,2s0.9,2,2.1,2s2.1,0.9,2.1,2v2H0V14z M16.7,18c0,1.1-0.9,2-2.1,2s-2.1-0.9-2.1-2v-4
			c0-1.1-0.9-2-2.1-2s-2.1-0.9-2.1-2S7.4,8,6.2,8c-1.1,0-2-0.9-2-2V2c0-1.1-0.9-2-2.1-2S0,0.9,0,2V0h8.4v2c0,1.1,0.9,2,2.1,2
			s2.1,0.9,2.1,2s0.9,2,2.1,2s2.1-0.9,2.1-2s0.9-2,2.1-2S21,3.1,21,2V0h4.2v6c0,1.1-0.9,2-2.1,2S21,8.9,21,10s-0.9,2-2.1,2
			s-2.1,0.9-2.1,2L16.7,18L16.7,18z"/>
	</g>
</g>
<g id="Page-1_1_">
	<g id="melt_1_">
		<path id="Combined-Shape_1_" class="st0" d="M45.8,18c0-1.1,0.9-2,2.1-2c1.2,0,2.1-0.9,2.1-2l0,0v6h-4.2C45.8,20,45.8,18,45.8,18z
			 M24.9,14c0-1.1,0.9-2,2.1-2s2.1,0.9,2.1,2s0.9,2,2.1,2s2.1,0.9,2.1,2v2h-8.4V14z M41.7,18c0,1.1-0.9,2-2.1,2
			c-1.2,0-2.1-0.9-2.1-2v-4c0-1.1-0.9-2-2.1-2c-1.2,0-2.1-0.9-2.1-2s-0.9-2-2.1-2c-1.2,0-2.1-0.9-2.1-2V2c0-1.1-0.9-2-2.1-2
			s-2.1,0.9-2.1,2V0h8.4v2c0,1.1,0.9,2,2.1,2c1.2,0,2.1,0.9,2.1,2s0.9,2,2.1,2c1.2,0,2.1-0.9,2.1-2s0.9-2,2.1-2c1.2,0,2.1-0.9,2.1-2
			V0H50v6c0,1.1-0.9,2-2.1,2c-1.2,0-2.1,0.9-2.1,2s-0.9,2-2.1,2c-1.2,0-2.1,0.9-2.1,2L41.7,18L41.7,18z"/>
	</g>
</g>
<g id="Page-1_3_">
	<g id="melt_3_">
		<path id="Combined-Shape_3_" class="st0" d="M70.9,18c0-1.1,0.9-2,2.1-2s2.1-0.9,2.1-2l0,0v6h-4.2V18z M50,14c0-1.1,0.9-2,2.1-2
			c1.2,0,2.1,0.9,2.1,2s0.9,2,2.1,2c1.2,0,2.1,0.9,2.1,2v2H50V14z M66.7,18c0,1.1-0.9,2-2.1,2c-1.2,0-2.1-0.9-2.1-2v-4
			c0-1.1-0.9-2-2.1-2c-1.2,0-2.1-0.9-2.1-2s-0.9-2-2.1-2c-1.2,0-2.1-0.9-2.1-2V2c0-1.1-0.9-2-2.1-2c-1.1,0-2,0.9-2,2V0h8.4v2
			c0,1.1,0.9,2,2.1,2c1.2,0,2.1,0.9,2.1,2s0.9,2,2.1,2s2.1-0.9,2.1-2s0.9-2,2.1-2S71,3.1,71,2V0h4.2v6c0,1.1-0.9,2-2.1,2
			S71,8.9,71,10s-0.9,2-2.1,2s-2.1,0.9-2.1,2L66.7,18L66.7,18z"/>
	</g>
</g>
<g id="Page-1_2_">
	<g id="melt_2_">
		<path id="Combined-Shape_2_" class="st0" d="M95.8,18c0-1.1,0.9-2,2.1-2s2.1-0.9,2.1-2l0,0v6h-4.2V18z M74.9,14c0-1.1,0.9-2,2.1-2
			s2.1,0.9,2.1,2s0.9,2,2.1,2s2.1,0.9,2.1,2v2h-8.4C74.9,20,74.9,14,74.9,14z M91.6,18c0,1.1-0.9,2-2.1,2s-2.1-0.9-2.1-2v-4
			c0-1.1-0.9-2-2.1-2s-2.1-0.9-2.1-2s-0.9-2-2.1-2S79,7.1,79,6V2c0-1.1-0.9-2-2.1-2s-2.1,0.9-2.1,2V0h8.4v2c0,1.1,0.9,2,2.1,2
			s2.1,0.9,2.1,2s0.9,2,2.1,2s2.1-0.9,2.1-2s0.9-2,2.1-2s2.1-0.9,2.1-2V0h4.2v6c0,1.1-0.9,2-2.1,2s-2.1,0.9-2.1,2s-0.9,2-2.1,2
			s-2.1,0.9-2.1,2V18z"/>
	</g>
</g>
<g id="Page-1_7_">
	<g id="melt_7_">
		<path id="Combined-Shape_7_" class="st0" d="M20.9,38c0-1.1,0.9-2,2.1-2s2.1-0.9,2.1-2l0,0v6h-4.2C20.9,40,20.9,38,20.9,38z M0,34
			c0-1.1,0.9-2,2.1-2s2.1,0.9,2.1,2s0.9,2,2.1,2s2.1,0.9,2.1,2v2H0V34z M16.7,38c0,1.1-0.9,2-2.1,2s-2.1-0.9-2.1-2v-4
			c0-1.1-0.9-2-2.1-2s-2.1-0.9-2.1-2s-0.9-2-2.1-2s-2.1-0.9-2.1-2v-4c0-1.1-0.9-2-2.1-2c-1.1,0-2,0.9-2,2v-2h8.4v2
			c0,1.1,0.9,2,2.1,2s2.1,0.9,2.1,2s0.9,2,2.1,2s2.1-0.9,2.1-2s0.9-2,2.1-2s2.1-0.9,2.1-2v-2h4.2v6c0,1.1-0.9,2-2.1,2S21,28.9,21,30
			s-0.9,2-2.1,2s-2.1,0.9-2.1,2L16.7,38L16.7,38z"/>
	</g>
</g>
<g id="Page-1_6_">
	<g id="melt_6_">
		<path id="Combined-Shape_6_" class="st0" d="M45.8,38c0-1.1,0.9-2,2.1-2c1.2,0,2.1-0.9,2.1-2l0,0v6h-4.2C45.8,40,45.8,38,45.8,38z
			 M24.9,34c0-1.1,0.9-2,2.1-2s2.1,0.9,2.1,2s0.9,2,2.1,2s2.1,0.9,2.1,2v2h-8.4V34z M41.7,38c0,1.1-0.9,2-2.1,2
			c-1.2,0-2.1-0.9-2.1-2v-4c0-1.1-0.9-2-2.1-2c-1.2,0-2.1-0.9-2.1-2s-0.9-2-2.1-2c-1.2,0-2.1-0.9-2.1-2v-4c0-1.1-0.9-2-2.1-2
			s-2.1,0.9-2.1,2v-2h8.4v2c0,1.1,0.9,2,2.1,2c1.2,0,2.1,0.9,2.1,2s0.9,2,2.1,2c1.2,0,2.1-0.9,2.1-2s0.9-2,2.1-2
			c1.2,0,2.1-0.9,2.1-2v-2H50v6c0,1.1-0.9,2-2.1,2c-1.2,0-2.1,0.9-2.1,2s-0.9,2-2.1,2c-1.2,0-2.1,0.9-2.1,2L41.7,38L41.7,38z"/>
	</g>
</g>
<g id="Page-1_5_">
	<g id="melt_5_">
		<path id="Combined-Shape_5_" class="st0" d="M70.9,38c0-1.1,0.9-2,2.1-2s2.1-0.9,2.1-2l0,0v6h-4.2V38z M50,34c0-1.1,0.9-2,2.1-2
			c1.2,0,2.1,0.9,2.1,2s0.9,2,2.1,2c1.2,0,2.1,0.9,2.1,2v2H50V34z M66.7,38c0,1.1-0.9,2-2.1,2c-1.2,0-2.1-0.9-2.1-2v-4
			c0-1.1-0.9-2-2.1-2c-1.2,0-2.1-0.9-2.1-2s-0.9-2-2.1-2c-1.2,0-2.1-0.9-2.1-2v-4c0-1.1-0.9-2-2.1-2c-1.2,0-2.1,0.9-2.1,2v-2h8.4v2
			c0,1.1,0.9,2,2.1,2c1.2,0,2.1,0.9,2.1,2s0.9,2,2.1,2s2.1-0.9,2.1-2s0.9-2,2.1-2s2.1-0.9,2.1-2v-2h4.2v6c0,1.1-0.9,2-2.1,2
			s-2.1,0.9-2.1,2s-0.9,2-2.1,2s-2.1,0.9-2.1,2C66.7,34,66.7,38,66.7,38z"/>
	</g>
</g>
<g id="Page-1_4_">
	<g id="melt_4_">
		<path id="Combined-Shape_4_" class="st0" d="M95.8,38c0-1.1,0.9-2,2.1-2s2.1-0.9,2.1-2l0,0v6h-4.2V38z M74.9,34c0-1.1,0.9-2,2.1-2
			s2.1,0.9,2.1,2s0.9,2,2.1,2s2.1,0.9,2.1,2v2h-8.4C74.9,40,74.9,34,74.9,34z M91.6,38c0,1.1-0.9,2-2.1,2s-2.1-0.9-2.1-2v-4
			c0-1.1-0.9-2-2.1-2s-2.1-0.9-2.1-2s-0.9-2-2.1-2S79,27.1,79,26v-4c0-1.1-0.9-2-2.1-2s-2.1,0.9-2.1,2v-2h8.4v2c0,1.1,0.9,2,2.1,2
			s2.1,0.9,2.1,2s0.9,2,2.1,2s2.1-0.9,2.1-2s0.9-2,2.1-2s2.1-0.9,2.1-2v-2h4.2v6c0,1.1-0.9,2-2.1,2s-2.1,0.9-2.1,2s-0.9,2-2.1,2
			s-2.1,0.9-2.1,2V38z"/>
	</g>
</g>
<g id="Page-1_15_">
	<g id="melt_15_">
		<path id="Combined-Shape_15_" class="st0" d="M20.9,58c0-1.1,0.9-2,2.1-2s2.1-0.9,2.1-2l0,0v6h-4.2C20.9,60,20.9,58,20.9,58z
			 M0,54c0-1.1,0.9-2,2.1-2s2.1,0.9,2.1,2s0.9,2,2.1,2s2.1,0.9,2.1,2v2H0V54z M16.7,58c0,1.1-0.9,2-2.1,2s-2.1-0.9-2.1-2v-4
			c0-1.1-0.9-2-2.1-2s-2.1-0.9-2.1-2s-0.9-2-2.1-2s-2.1-0.9-2.1-2v-4c0-1.1-0.9-2-2.1-2c-1.1,0-2,0.9-2,2v-2h8.4v2
			c0,1.1,0.9,2,2.1,2s2.1,0.9,2.1,2s0.9,2,2.1,2s2.1-0.9,2.1-2s0.9-2,2.1-2s2.1-0.9,2.1-2v-2h4.2v6c0,1.1-0.9,2-2.1,2S21,48.9,21,50
			s-0.9,2-2.1,2s-2.1,0.9-2.1,2L16.7,58L16.7,58z"/>
	</g>
</g>
<g id="Page-1_14_">
	<g id="melt_14_">
		<path id="Combined-Shape_14_" class="st0" d="M45.8,58c0-1.1,0.9-2,2.1-2c1.2,0,2.1-0.9,2.1-2l0,0v6h-4.2C45.8,60,45.8,58,45.8,58
			z M24.9,54c0-1.1,0.9-2,2.1-2s2.1,0.9,2.1,2s0.9,2,2.1,2s2.1,0.9,2.1,2v2h-8.4V54z M41.7,58c0,1.1-0.9,2-2.1,2
			c-1.2,0-2.1-0.9-2.1-2v-4c0-1.1-0.9-2-2.1-2c-1.2,0-2.1-0.9-2.1-2s-0.9-2-2.1-2c-1.2,0-2.1-0.9-2.1-2v-4c0-1.1-0.9-2-2.1-2
			s-2.1,0.9-2.1,2v-2h8.4v2c0,1.1,0.9,2,2.1,2c1.2,0,2.1,0.9,2.1,2s0.9,2,2.1,2c1.2,0,2.1-0.9,2.1-2s0.9-2,2.1-2
			c1.2,0,2.1-0.9,2.1-2v-2H50v6c0,1.1-0.9,2-2.1,2c-1.2,0-2.1,0.9-2.1,2s-0.9,2-2.1,2c-1.2,0-2.1,0.9-2.1,2L41.7,58L41.7,58z"/>
	</g>
</g>
<g id="Page-1_13_">
	<g id="melt_13_">
		<path id="Combined-Shape_13_" class="st0" d="M70.9,58c0-1.1,0.9-2,2.1-2s2.1-0.9,2.1-2l0,0v6h-4.2V58z M50,54c0-1.1,0.9-2,2.1-2
			c1.2,0,2.1,0.9,2.1,2s0.9,2,2.1,2c1.2,0,2.1,0.9,2.1,2v2H50V54z M66.7,58c0,1.1-0.9,2-2.1,2c-1.2,0-2.1-0.9-2.1-2v-4
			c0-1.1-0.9-2-2.1-2c-1.2,0-2.1-0.9-2.1-2s-0.9-2-2.1-2c-1.2,0-2.1-0.9-2.1-2v-4c0-1.1-0.9-2-2.1-2c-1.2,0-2.1,0.9-2.1,2v-2h8.4v2
			c0,1.1,0.9,2,2.1,2c1.2,0,2.1,0.9,2.1,2s0.9,2,2.1,2s2.1-0.9,2.1-2s0.9-2,2.1-2s2.1-0.9,2.1-2v-2h4.2v6c0,1.1-0.9,2-2.1,2
			s-2.1,0.9-2.1,2s-0.9,2-2.1,2s-2.1,0.9-2.1,2C66.7,54,66.7,58,66.7,58z"/>
	</g>
</g>
<g id="Page-1_12_">
	<g id="melt_12_">
		<path id="Combined-Shape_12_" class="st0" d="M95.8,58c0-1.1,0.9-2,2.1-2s2.1-0.9,2.1-2l0,0v6h-4.2V58z M74.9,54
			c0-1.1,0.9-2,2.1-2s2.1,0.9,2.1,2s0.9,2,2.1,2s2.1,0.9,2.1,2v2h-8.4C74.9,60,74.9,54,74.9,54z M91.6,58c0,1.1-0.9,2-2.1,2
			s-2.1-0.9-2.1-2v-4c0-1.1-0.9-2-2.1-2s-2.1-0.9-2.1-2s-0.9-2-2.1-2S79,47.1,79,46v-4c0-1.1-0.9-2-2.1-2s-2.1,0.9-2.1,2v-2h8.4v2
			c0,1.1,0.9,2,2.1,2s2.1,0.9,2.1,2s0.9,2,2.1,2s2.1-0.9,2.1-2s0.9-2,2.1-2s2.1-0.9,2.1-2v-2h4.2v6c0,1.1-0.9,2-2.1,2
			s-2.1,0.9-2.1,2s-0.9,2-2.1,2s-2.1,0.9-2.1,2V58z"/>
	</g>
</g>
<g id="Page-1_11_">
	<g id="melt_11_">
		<path id="Combined-Shape_11_" class="st0" d="M20.9,78c0-1.1,0.9-2,2.1-2s2.1-0.9,2.1-2l0,0v6h-4.2C20.9,80,20.9,78,20.9,78z
			 M0,74c0-1.1,0.9-2,2.1-2s2.1,0.9,2.1,2s0.9,2,2.1,2s2.1,0.9,2.1,2v2H0V74z M16.7,78c0,1.1-0.9,2-2.1,2s-2.1-0.9-2.1-2v-4
			c0-1.1-0.9-2-2.1-2s-2.1-0.9-2.1-2s-0.9-2-2.1-2s-2.1-0.9-2.1-2v-4c0-1.1-0.9-2-2.1-2c-1.1,0-2,0.9-2,2v-2h8.4v2
			c0,1.1,0.9,2,2.1,2s2.1,0.9,2.1,2s0.9,2,2.1,2s2.1-0.9,2.1-2s0.9-2,2.1-2s2.1-0.9,2.1-2v-2h4.2v6c0,1.1-0.9,2-2.1,2S21,68.9,21,70
			s-0.9,2-2.1,2s-2.1,0.9-2.1,2L16.7,78L16.7,78z"/>
	</g>
</g>
<g id="Page-1_10_">
	<g id="melt_10_">
		<path id="Combined-Shape_10_" class="st0" d="M45.8,78c0-1.1,0.9-2,2.1-2c1.2,0,2.1-0.9,2.1-2l0,0v6h-4.2C45.8,80,45.8,78,45.8,78
			z M24.9,74c0-1.1,0.9-2,2.1-2s2.1,0.9,2.1,2s0.9,2,2.1,2s2.1,0.9,2.1,2v2h-8.4V74z M41.7,78c0,1.1-0.9,2-2.1,2
			c-1.2,0-2.1-0.9-2.1-2v-4c0-1.1-0.9-2-2.1-2c-1.2,0-2.1-0.9-2.1-2s-0.9-2-2.1-2c-1.2,0-2.1-0.9-2.1-2v-4c0-1.1-0.9-2-2.1-2
			s-2.1,0.9-2.1,2v-2h8.4v2c0,1.1,0.9,2,2.1,2c1.2,0,2.1,0.9,2.1,2s0.9,2,2.1,2c1.2,0,2.1-0.9,2.1-2s0.9-2,2.1-2
			c1.2,0,2.1-0.9,2.1-2v-2H50v6c0,1.1-0.9,2-2.1,2c-1.2,0-2.1,0.9-2.1,2s-0.9,2-2.1,2c-1.2,0-2.1,0.9-2.1,2L41.7,78L41.7,78z"/>
	</g>
</g>
<g id="Page-1_9_">
	<g id="melt_9_">
		<path id="Combined-Shape_9_" class="st0" d="M70.9,78c0-1.1,0.9-2,2.1-2s2.1-0.9,2.1-2l0,0v6h-4.2V78z M50,74c0-1.1,0.9-2,2.1-2
			c1.2,0,2.1,0.9,2.1,2s0.9,2,2.1,2c1.2,0,2.1,0.9,2.1,2v2H50V74z M66.7,78c0,1.1-0.9,2-2.1,2c-1.2,0-2.1-0.9-2.1-2v-4
			c0-1.1-0.9-2-2.1-2c-1.2,0-2.1-0.9-2.1-2s-0.9-2-2.1-2c-1.2,0-2.1-0.9-2.1-2v-4c0-1.1-0.9-2-2.1-2c-1.2,0-2.1,0.9-2.1,2v-2h8.4v2
			c0,1.1,0.9,2,2.1,2c1.2,0,2.1,0.9,2.1,2s0.9,2,2.1,2s2.1-0.9,2.1-2s0.9-2,2.1-2s2.1-0.9,2.1-2v-2h4.2v6c0,1.1-0.9,2-2.1,2
			s-2.1,0.9-2.1,2s-0.9,2-2.1,2s-2.1,0.9-2.1,2C66.7,74,66.7,78,66.7,78z"/>
	</g>
</g>
<g id="Page-1_8_">
	<g id="melt_8_">
		<path id="Combined-Shape_8_" class="st0" d="M95.8,78c0-1.1,0.9-2,2.1-2s2.1-0.9,2.1-2l0,0v6h-4.2V78z M74.9,74c0-1.1,0.9-2,2.1-2
			s2.1,0.9,2.1,2s0.9,2,2.1,2s2.1,0.9,2.1,2v2h-8.4C74.9,80,74.9,74,74.9,74z M91.6,78c0,1.1-0.9,2-2.1,2s-2.1-0.9-2.1-2v-4
			c0-1.1-0.9-2-2.1-2s-2.1-0.9-2.1-2s-0.9-2-2.1-2S79,67.1,79,66v-4c0-1.1-0.9-2-2.1-2s-2.1,0.9-2.1,2v-2h8.4v2c0,1.1,0.9,2,2.1,2
			s2.1,0.9,2.1,2s0.9,2,2.1,2s2.1-0.9,2.1-2s0.9-2,2.1-2s2.1-0.9,2.1-2v-2h4.2v6c0,1.1-0.9,2-2.1,2s-2.1,0.9-2.1,2s-0.9,2-2.1,2
			s-2.1,0.9-2.1,2V78z"/>
	</g>
</g>
<g id="Page-1_19_">
	<g id="melt_19_">
		<path id="Combined-Shape_19_" class="st0" d="M20.9,98c0-1.1,0.9-2,2.1-2s2.1-0.9,2.1-2l0,0v6h-4.2C20.9,100,20.9,98,20.9,98z
			 M0,94c0-1.1,0.9-2,2.1-2s2.1,0.9,2.1,2s0.9,2,2.1,2s2.1,0.9,2.1,2v2H0V94z M16.7,98c0,1.1-0.9,2-2.1,2s-2.1-0.9-2.1-2v-4
			c0-1.1-0.9-2-2.1-2s-2.1-0.9-2.1-2s-0.9-2-2.1-2s-2.1-0.9-2.1-2v-4c0-1.1-0.9-2-2.1-2c-1.1,0-2,0.9-2,2v-2h8.4v2
			c0,1.1,0.9,2,2.1,2s2.1,0.9,2.1,2s0.9,2,2.1,2s2.1-0.9,2.1-2s0.9-2,2.1-2s2.1-0.9,2.1-2v-2h4.2v6c0,1.1-0.9,2-2.1,2S21,88.9,21,90
			s-0.9,2-2.1,2s-2.1,0.9-2.1,2L16.7,98L16.7,98z"/>
	</g>
</g>
<g id="Page-1_18_">
	<g id="melt_18_">
		<path id="Combined-Shape_18_" class="st0" d="M45.8,98c0-1.1,0.9-2,2.1-2c1.2,0,2.1-0.9,2.1-2l0,0v6h-4.2
			C45.8,100,45.8,98,45.8,98z M24.9,94c0-1.1,0.9-2,2.1-2s2.1,0.9,2.1,2s0.9,2,2.1,2s2.1,0.9,2.1,2v2h-8.4V94z M41.7,98
			c0,1.1-0.9,2-2.1,2c-1.2,0-2.1-0.9-2.1-2v-4c0-1.1-0.9-2-2.1-2c-1.2,0-2.1-0.9-2.1-2s-0.9-2-2.1-2c-1.2,0-2.1-0.9-2.1-2v-4
			c0-1.1-0.9-2-2.1-2s-2.1,0.9-2.1,2v-2h8.4v2c0,1.1,0.9,2,2.1,2c1.2,0,2.1,0.9,2.1,2s0.9,2,2.1,2c1.2,0,2.1-0.9,2.1-2s0.9-2,2.1-2
			c1.2,0,2.1-0.9,2.1-2v-2H50v6c0,1.1-0.9,2-2.1,2c-1.2,0-2.1,0.9-2.1,2s-0.9,2-2.1,2c-1.2,0-2.1,0.9-2.1,2L41.7,98L41.7,98z"/>
	</g>
</g>
<g id="Page-1_17_">
	<g id="melt_17_">
		<path id="Combined-Shape_17_" class="st0" d="M70.9,98c0-1.1,0.9-2,2.1-2s2.1-0.9,2.1-2l0,0v6h-4.2V98z M50,94c0-1.1,0.9-2,2.1-2
			c1.2,0,2.1,0.9,2.1,2s0.9,2,2.1,2c1.2,0,2.1,0.9,2.1,2v2H50V94z M66.7,98c0,1.1-0.9,2-2.1,2c-1.2,0-2.1-0.9-2.1-2v-4
			c0-1.1-0.9-2-2.1-2c-1.2,0-2.1-0.9-2.1-2s-0.9-2-2.1-2c-1.2,0-2.1-0.9-2.1-2v-4c0-1.1-0.9-2-2.1-2c-1.2,0-2.1,0.9-2.1,2v-2h8.4v2
			c0,1.1,0.9,2,2.1,2c1.2,0,2.1,0.9,2.1,2s0.9,2,2.1,2s2.1-0.9,2.1-2s0.9-2,2.1-2s2.1-0.9,2.1-2v-2h4.2v6c0,1.1-0.9,2-2.1,2
			s-2.1,0.9-2.1,2s-0.9,2-2.1,2s-2.1,0.9-2.1,2C66.7,94,66.7,98,66.7,98z"/>
	</g>
</g>
<g id="Page-1_16_">
	<g id="melt_16_">
		<path id="Combined-Shape_16_" class="st0" d="M95.8,98c0-1.1,0.9-2,2.1-2s2.1-0.9,2.1-2l0,0v6h-4.2V98z M74.9,94
			c0-1.1,0.9-2,2.1-2s2.1,0.9,2.1,2s0.9,2,2.1,2s2.1,0.9,2.1,2v2h-8.4C74.9,100,74.9,94,74.9,94z M91.6,98c0,1.1-0.9,2-2.1,2
			s-2.1-0.9-2.1-2v-4c0-1.1-0.9-2-2.1-2s-2.1-0.9-2.1-2s-0.9-2-2.1-2S79,87.1,79,86v-4c0-1.1-0.9-2-2.1-2s-2.1,0.9-2.1,2v-2h8.4v2
			c0,1.1,0.9,2,2.1,2s2.1,0.9,2.1,2s0.9,2,2.1,2s2.1-0.9,2.1-2s0.9-2,2.1-2s2.1-0.9,2.1-2v-2h4.2v6c0,1.1-0.9,2-2.1,2
			s-2.1,0.9-2.1,2s-0.9,2-2.1,2s-2.1,0.9-2.1,2V98z"/>
	</g>
</g>
</svg>
