<?xml version="1.0" encoding="utf-8"?>
<!-- Generator: Adobe Illustrator 24.1.2, SVG Export Plug-In . SVG Version: 6.00 Build 0)  -->
<svg version="1.1" id="Layer_1" xmlns="http://www.w3.org/2000/svg" xmlns:xlink="http://www.w3.org/1999/xlink" x="0px" y="0px"
	 viewBox="0 0 100 100" style="enable-background:new 0 0 100 100;" xml:space="preserve">
<style type="text/css">
	.st0{fill-rule:evenodd;clip-rule:evenodd;fill:#242424;}
</style>
<desc>Created with Sketch.</desc>
<g id="Page-1">
	<g id="moroccan">
		<path id="Combined-Shape" class="st0" d="M27.5,24.9v4.6H25C12.6,29.5,2.5,38.7,2.5,50S12.6,70.5,25,70.5h2.5v4.6
			c10,0.8,18.5,6.5,22.5,14.5c4-7.9,12.5-13.6,22.5-14.5v-4.6H75c12.4,0,22.5-9.2,22.5-20.5S87.4,29.5,75,29.5h-2.5v-4.6
			C62.5,24.1,54,18.4,50,10.4C46,18.4,37.5,24.1,27.5,24.9L27.5,24.9z M67.5,65.9v5.3c-7,1.5-13.1,5-17.5,9.9
			c-4.4-4.8-10.5-8.4-17.5-9.9v-5.3H25c-9.7,0-17.5-7.1-17.5-15.9S15.3,34.1,25,34.1h7.5v-5.3c7-1.5,13.1-5,17.5-9.9
			c4.4,4.8,10.5,8.4,17.5,9.9v5.3H75c9.7,0,17.5,7.1,17.5,15.9S84.7,65.9,75,65.9H67.5L67.5,65.9z M52.5,100
			c0-11.3,10.1-20.5,22.5-20.5h2.5v-4.6l0,0c10-0.8,18.5-6.5,22.5-14.5v8.4c-4.4,4.8-10.5,8.4-17.5,9.9V84H75
			c-9.7,0-17.5,7.1-17.5,15.9L52.5,100L52.5,100z M47.5,100c0-11.3-10.1-20.5-22.5-20.5h-2.5v-4.6C12.5,74.1,4,68.4,0,60.4v8.4
			c4.4,4.8,10.5,8.4,17.5,9.9V84H25c9.7,0,17.5,7.1,17.5,15.9L47.5,100L47.5,100z M52.5,0c0,11.3,10.1,20.5,22.5,20.5h2.5v4.6
			c10,0.8,18.5,6.5,22.5,14.5v-8.4c-4.4-4.8-10.5-8.4-17.5-9.9V16H75c-9.7,0-17.5-7.1-17.5-15.9L52.5,0L52.5,0z M0,39.6
			C4,31.7,12.5,26,22.5,25.1v-4.6H25c12.4,0,22.5-9.2,22.5-20.5h-5c0,8.8-7.8,15.9-17.5,15.9h-7.5l0,0v5.3c-7,1.5-13.1,5-17.5,9.9
			V39.6L0,39.6z"/>
	</g>
</g>
</svg>
