<?xml version="1.0" encoding="utf-8"?>
<!-- Generator: Adobe Illustrator 24.1.2, SVG Export Plug-In . SVG Version: 6.00 Build 0)  -->
<svg version="1.1" id="Layer_1" xmlns="http://www.w3.org/2000/svg" xmlns:xlink="http://www.w3.org/1999/xlink" x="0px" y="0px"
	 viewBox="0 0 100 100" style="enable-background:new 0 0 100 100;" xml:space="preserve">
<style type="text/css">
	.st0{fill-rule:evenodd;clip-rule:evenodd;fill:#242424;}
</style>
<desc>Created with Sketch.</desc>
<g id="Page-1">
	<g id="overlapping-diamonds">
		<path id="Combined-Shape" class="st0" d="M50,43.6v-6.3L37.5,18.7L25,37.5L12.5,18.7L0,37.5v6.3l0,0l4.2,6.3L0,56.2v6.3l12.5,18.7
			L25,62.5l12.5,18.7L50,62.5v-6.3l-4.2-6.3L50,43.6L50,43.6z M8.3,49.9L2,40.5L12.5,25l10.4,15.7l-6.3,9.4l6.3,9.4L12.5,75
			L2.1,59.3L8.3,49.9L8.3,49.9L8.3,49.9L8.3,49.9L8.3,49.9L8.3,49.9z M20.8,49.9l4.2-6.3l4.2,6.3L25,56.2L20.8,49.9L20.8,49.9
			L20.8,49.9L20.8,49.9L20.8,49.9L20.8,49.9z M33.3,49.9L27,40.5L37.5,25l10.4,15.7l-6.3,9.4l6.3,9.4L37.5,75L27.1,59.3L33.3,49.9
			L33.3,49.9L33.3,49.9L33.3,49.9L33.3,49.9L33.3,49.9z M0,25L10.4,9.4L4.2,0h4.2l4.1,6.3L16.7,0h4.2l-6.3,9.4L25,25L35.4,9.4
			L29.2,0h4.2l4.1,6.3L41.7,0h4.2l-6.3,9.4L50,25v6.3L37.5,12.5L25,31.2L12.5,12.5L0,31.2V25L0,25L0,25L0,25L0,25L0,25z M0,75
			l10.4,15.7L4.2,100h4.2l4.2-6.3l4.2,6.3H21l-6.3-9.4L25,75l10.4,15.7l-6.3,9.4h4.2l4.2-6.3l4.2,6.3H46l-6.3-9.4L50,75v-6.3
			L37.5,87.4L25,68.7L12.5,87.4L0,68.7V75L0,75L0,75L0,75L0,75L0,75z"/>
	</g>
</g>
<desc>Created with Sketch.</desc>
<g id="Page-1_1_">
	<g id="overlapping-diamonds_1_">
		<path id="Combined-Shape_1_" class="st0" d="M100,43.6v-6.3L87.5,18.7L75,37.5L62.5,18.7L50,37.5v6.3l0,0l4.2,6.3L50,56.2v6.3
			l12.5,18.7L75,62.5l12.5,18.7L100,62.5v-6.3l-4.2-6.3L100,43.6L100,43.6z M58.3,49.9L52,40.5L62.5,25l10.4,15.7l-6.3,9.4l6.3,9.4
			L62.5,75L52.1,59.3L58.3,49.9L58.3,49.9L58.3,49.9L58.3,49.9L58.3,49.9L58.3,49.9z M70.8,49.9l4.2-6.3l4.2,6.3L75,56.2L70.8,49.9
			L70.8,49.9L70.8,49.9L70.8,49.9L70.8,49.9L70.8,49.9z M83.3,49.9L77,40.5L87.5,25l10.4,15.7l-6.3,9.4l6.3,9.4L87.5,75L77.1,59.3
			L83.3,49.9L83.3,49.9L83.3,49.9L83.3,49.9L83.3,49.9L83.3,49.9z M50,25L60.4,9.4L54.2,0h4.2l4.1,6.3L66.7,0h4.2l-6.3,9.4L75,25
			L85.4,9.4L79.2,0h4.2l4.1,6.3L91.7,0h4.2l-6.3,9.4L100,25v6.3L87.5,12.5L75,31.2L62.5,12.5L50,31.2V25L50,25L50,25L50,25L50,25
			L50,25z M50,75l10.4,15.7l-6.3,9.4h4.2l4.2-6.3l4.2,6.3H71l-6.3-9.4L75,75l10.4,15.7l-6.3,9.4h4.2l4.2-6.3l4.2,6.3H96l-6.3-9.4
			L100,75v-6.3L87.5,87.4L75,68.7L62.5,87.4L50,68.7V75L50,75L50,75L50,75L50,75L50,75z"/>
	</g>
</g>
</svg>
