<?xml version="1.0" encoding="utf-8"?>
<!-- Generator: Adobe Illustrator 24.1.2, SVG Export Plug-In . SVG Version: 6.00 Build 0)  -->
<svg version="1.1" id="Layer_1" xmlns="http://www.w3.org/2000/svg" xmlns:xlink="http://www.w3.org/1999/xlink" x="0px" y="0px"
	 viewBox="0 0 100 100" style="enable-background:new 0 0 100 100;" xml:space="preserve">
<style type="text/css">
	.st0{fill-rule:evenodd;clip-rule:evenodd;fill:#242424;}
</style>
<g>
	<g>
		<path class="st0" d="M40,8.3L36.7,0h-2.1l3.3,8.3H20L17.7,14L12.1,0H10l6.7,16.7H10l-2.3,5.7l-5.6-14L5.4,0H3.3L0,8.3L6.7,25
			l-3.3,8.3h2.1l2.3-5.7l2.3,5.7h20l2.3-5.7l2.3,5.7h2.1L33.3,25H40l2.3-5.7l5.6,14H50l-6.7-16.7L50,0h-2.1l-5.6,14L40,8.3z
			 M41.2,16.7L39,11l-5,12.4h4.6C38.6,23.3,41.2,16.7,41.2,16.7z M30.6,23.3l-2-5h-9.1l2,5C21.4,23.3,30.6,23.3,30.6,23.3z
			 M17.7,19.3l-4.9,12.4h15.8l2.7-6.7H20L17.7,19.3z M18.8,16.7H30l2.3,5.7l5-12.4H21.4L18.8,16.7z M11.4,18.3H16l-4.9,12.4L8.8,25
			L11.4,18.3z"/>
	</g>
</g>
<g>
	<g>
		<path class="st0" d="M90,8.3L86.7,0h-2.1l3.3,8.3H70L67.7,14L62.1,0H60l6.7,16.7H60l-2.3,5.7l-5.6-14L55.4,0h-2.1L50,8.3L56.7,25
			l-3.3,8.3h2.1l2.3-5.7l2.3,5.7h20l2.3-5.7l2.3,5.7h2.1L83.3,25H90l2.3-5.7l5.6,14h2.1l-6.7-16.7L100,0h-2.1l-5.6,14L90,8.3z
			 M91.2,16.7L88.9,11L84,23.3h4.6L91.2,16.7z M80.6,23.3l-2-5h-9.1l2,5C71.4,23.3,80.6,23.3,80.6,23.3z M67.7,19.3l-5,12.4h15.8
			l2.7-6.7H70L67.7,19.3z M68.8,16.7H80l2.3,5.7L87.2,10H71.4L68.8,16.7z M61.4,18.3H66l-5,12.4L58.8,25L61.4,18.3z"/>
	</g>
</g>
<g>
	<g>
		<path class="st0" d="M40,41.7l-3.3-8.3h-2.1l3.3,8.3H20l-2.3,5.7l-5.6-14H10l6.7,16.7H10l-2.3,5.7l-5.6-14l3.3-8.3H3.3L0,41.7
			l6.7,16.7l-3.3,8.3h2.1L7.7,61l2.3,5.7h20l2.3-5.7l2.3,5.7h2.1l-3.3-8.3H40l2.3-5.7l5.6,14H50L43.3,50L50,33.4h-2.1l-5.6,14
			L40,41.7z M41.2,50.1L39,44.4l-5,12.4h4.6C38.6,56.7,41.2,50.1,41.2,50.1z M30.6,56.7l-2-5h-9.1l2,5
			C21.4,56.7,30.6,56.7,30.6,56.7z M17.7,52.7l-4.9,12.4h15.8l2.7-6.7H20L17.7,52.7z M18.8,50.1H30l2.3,5.7l5-12.4H21.4L18.8,50.1z
			 M11.4,51.7H16l-4.9,12.4l-2.3-5.7L11.4,51.7z"/>
	</g>
</g>
<g>
	<g>
		<path class="st0" d="M90,41.7l-3.3-8.3h-2.1l3.3,8.3H70l-2.3,5.7l-5.6-14H60l6.7,16.7H60l-2.3,5.7l-5.6-14l3.3-8.3h-2.1L50,41.7
			l6.7,16.7l-3.3,8.3h2.1l2.3-5.7l2.3,5.7h20l2.3-5.7l2.3,5.7h2.1l-3.3-8.3H90l2.3-5.7l5.6,14h2.1L93.3,50l6.7-16.7h-2.1l-5.6,14
			L90,41.7z M91.2,50.1l-2.3-5.7L84,56.7h4.6L91.2,50.1z M80.6,56.7l-2-5h-9.1l2,5C71.4,56.7,80.6,56.7,80.6,56.7z M67.7,52.7
			l-5,12.4h15.8l2.7-6.7H70L67.7,52.7z M68.8,50.1H80l2.3,5.7l4.9-12.4H71.4L68.8,50.1z M61.4,51.7H66l-5,12.4l-2.3-5.7L61.4,51.7z"
			/>
	</g>
</g>
<g>
	<g>
		<path class="st0" d="M40,75l-3.3-8.3h-2.1l3.3,8.3H20l-2.3,5.7l-5.6-14H10l6.7,16.7H10L7.7,89L2.1,75l3.3-8.3H3.3L0,75l6.7,16.7
			L3.3,100h2.1l2.3-5.7L10,100h20l2.3-5.7l2.3,5.7h2.1l-3.3-8.3H40l2.3-5.7l5.6,14H50l-6.7-16.7L50,66.6h-2.1l-5.6,14L40,75z
			 M41.2,83.3L39,77.6L34,90h4.6L41.2,83.3z M30.6,90l-2-5h-9.1l2,5C21.4,90,30.6,90,30.6,90z M17.7,85.9l-4.9,12.4h15.8l2.7-6.7H20
			L17.7,85.9z M18.8,83.3H30l2.3,5.7l5-12.4H21.4L18.8,83.3z M11.4,85H16l-4.9,12.4l-2.3-5.7L11.4,85z"/>
	</g>
</g>
<g>
	<g>
		<path class="st0" d="M90,75l-3.3-8.3h-2.1l3.3,8.3H70l-2.3,5.7l-5.6-14H60l6.7,16.7H60L57.7,89l-5.6-14l3.3-8.3h-2.1L50,75
			l6.7,16.7l-3.3,8.3h2.1l2.3-5.7L60,100h20l2.3-5.7l2.3,5.7h2.1l-3.3-8.3H90l2.3-5.7l5.6,14h2.1l-6.7-16.7l6.7-16.7h-2.1l-5.6,14
			L90,75z M91.2,83.3l-2.3-5.7L84,90h4.6L91.2,83.3z M80.6,90l-2-5h-9.1l2,5C71.4,90,80.6,90,80.6,90z M67.7,86l-5,12.4h15.8
			l2.7-6.7H70L67.7,86z M68.8,83.3H80l2.3,5.7l4.9-12.4H71.4L68.8,83.3z M61.4,85H66l-5,12.4l-2.3-5.7L61.4,85z"/>
	</g>
</g>
</svg>
