<?xml version="1.0" encoding="utf-8"?>
<!-- Generator: Adobe Illustrator 24.1.2, SVG Export Plug-In . SVG Version: 6.00 Build 0)  -->
<svg version="1.1" id="Layer_1" xmlns="http://www.w3.org/2000/svg" xmlns:xlink="http://www.w3.org/1999/xlink" x="0px" y="0px"
	 viewBox="0 0 100 100" style="enable-background:new 0 0 100 100;" xml:space="preserve">
<style type="text/css">
	.st0{fill:#242424;}
</style>
<desc>Created with Sketch.</desc>
<rect x="1" y="0.9" class="st0" width="11.3" height="11.4"/>
<desc>Created with Sketch.</desc>
<desc>Created with Sketch.</desc>
<desc>Created with Sketch.</desc>
<desc>Created with Sketch.</desc>
<desc>Created with Sketch.</desc>
<desc>Created with Sketch.</desc>
<desc>Created with Sketch.</desc>
<desc>Created with Sketch.</desc>
<desc>Created with Sketch.</desc>
<desc>Created with Sketch.</desc>
<desc>Created with Sketch.</desc>
<desc>Created with Sketch.</desc>
<desc>Created with Sketch.</desc>
<desc>Created with Sketch.</desc>
<desc>Created with Sketch.</desc>
<rect x="25.8" y="0.9" class="st0" width="11.3" height="11.4"/>
<rect x="38.1" y="0.9" class="st0" width="11.3" height="11.4"/>
<rect x="62.9" y="0.9" class="st0" width="11.3" height="11.4"/>
<rect x="75.3" y="0.9" class="st0" width="11.3" height="11.4"/>
<rect x="1" y="13.2" class="st0" width="11.3" height="11.4"/>
<rect x="25.8" y="13.2" class="st0" width="11.3" height="11.4"/>
<rect x="62.9" y="13.2" class="st0" width="11.3" height="11.4"/>
<rect x="75.3" y="13.2" class="st0" width="11.3" height="11.4"/>
<rect x="87.7" y="13.2" class="st0" width="11.3" height="11.4"/>
<rect x="13.4" y="25.6" class="st0" width="11.3" height="11.4"/>
<rect x="25.8" y="25.6" class="st0" width="11.3" height="11.4"/>
<rect x="38.1" y="25.6" class="st0" width="11.3" height="11.4"/>
<rect x="87.7" y="25.6" class="st0" width="11.3" height="11.4"/>
<rect x="1" y="38" class="st0" width="11.3" height="11.4"/>
<rect x="13.4" y="38" class="st0" width="11.3" height="11.4"/>
<rect x="38.1" y="38" class="st0" width="11.3" height="11.4"/>
<rect x="62.9" y="38" class="st0" width="11.3" height="11.4"/>
<rect x="75.3" y="38" class="st0" width="11.3" height="11.4"/>
<rect x="87.7" y="38" class="st0" width="11.3" height="11.4"/>
<rect x="13.4" y="50.4" class="st0" width="11.3" height="11.4"/>
<rect x="38.1" y="50.4" class="st0" width="11.3" height="11.4"/>
<rect x="50.5" y="50.4" class="st0" width="11.3" height="11.4"/>
<rect x="1" y="62.7" class="st0" width="11.3" height="11.4"/>
<rect x="25.8" y="62.7" class="st0" width="11.3" height="11.4"/>
<rect x="87.7" y="62.7" class="st0" width="11.3" height="11.4"/>
<rect x="1" y="75.2" class="st0" width="11.3" height="11.4"/>
<rect x="25.8" y="75.2" class="st0" width="11.3" height="11.4"/>
<rect x="38.1" y="75.2" class="st0" width="11.3" height="11.4"/>
<rect x="50.5" y="75.2" class="st0" width="11.3" height="11.4"/>
<rect x="87.7" y="75.2" class="st0" width="11.3" height="11.4"/>
<rect x="13.4" y="87.5" class="st0" width="11.3" height="11.4"/>
<rect x="38.1" y="87.5" class="st0" width="11.3" height="11.4"/>
<rect x="62.9" y="87.5" class="st0" width="11.3" height="11.4"/>
<rect x="87.7" y="87.5" class="st0" width="11.3" height="11.4"/>
</svg>
